# e_lubeck_l_exact
# Parts: 1
v -4.150942 3.508934 -13.659348
v -3.830387 -0.510986 -21.213409
v -1.197232 -0.474766 24.653393
v -1.197232 1.189484 24.653393
v -3.776474 -4.828442 -5.197983
v -3.776474 -0.261478 -5.156848
v -3.884301 -0.524330 -21.224901
v -3.884301 -0.524330 -21.224901
v -3.884301 -3.796270 -13.808404
v -3.776474 -4.828442 -5.197983
v -4.106277 4.461125 -7.901714
v -4.106277 4.461125 -24.556120
v -7.593861 4.461125 -24.556120
v -7.593861 4.461125 -7.901713
v -4.106277 4.461125 -24.556120
v -4.106277 -0.503109 -24.556120
v -7.593861 -0.503109 -24.556120
v -7.593861 4.461125 -24.556120
v -4.106277 4.461125 -7.901714
v -4.106277 -0.503109 -7.901714
v -4.106277 -0.503109 -24.556120
v -4.106277 4.461125 -24.556120
v -7.593861 4.461125 -7.901713
v -7.593861 -0.503109 -7.901714
v -4.106277 -0.503109 -7.901714
v -4.106277 4.461125 -7.901714
v -7.593861 4.461125 -24.556120
v -7.593861 -0.503109 -24.556120
v -7.593861 -0.503109 -7.901714
v -7.593861 4.461125 -7.901713
v -4.106277 -0.503109 -24.556120
v -4.106277 -0.503109 -7.901714
v -7.593861 -0.503109 -7.901714
v -7.593861 -0.503109 -24.556120
v 4.134532 3.508934 -13.659348
v 1.180821 1.189484 24.653393
v 1.180821 -0.474766 24.653393
v 3.813977 -0.510986 -21.213409
v 3.760064 -4.828442 -5.197982
v 3.867891 -3.796269 -13.808404
v 3.867891 -0.524330 -21.224901
v 3.867891 -0.524330 -21.224901
v 3.760064 -0.261478 -5.156847
v 3.760064 -4.828442 -5.197982
v 4.089384 4.461125 -7.901714
v 7.576968 4.461125 -7.901713
v 7.576968 4.461125 -24.556118
v 4.089384 4.461125 -24.556120
v 4.089384 4.461125 -24.556120
v 7.576968 4.461125 -24.556118
v 7.576968 -0.503109 -24.556120
v 4.089384 -0.503109 -24.556120
v 4.089384 4.461125 -7.901714
v 4.089384 4.461125 -24.556120
v 4.089384 -0.503109 -24.556120
v 4.089384 -0.503109 -7.901714
v 7.576968 4.461125 -7.901713
v 4.089384 4.461125 -7.901714
v 4.089384 -0.503109 -7.901714
v 7.576968 -0.503109 -7.901714
v 7.576968 4.461125 -24.556118
v 7.576968 4.461125 -7.901713
v 7.576968 -0.503109 -7.901714
v 7.576968 -0.503109 -24.556120
v 4.089384 -0.503109 -24.556120
v 7.576968 -0.503109 -24.556120
v 7.576968 -0.503109 -7.901714
v 4.089384 -0.503109 -7.901714
v -4.150942 3.508934 -13.659348
v 4.134532 3.508934 -13.659348
v 3.813977 -0.510986 -21.213409
v -3.830387 -0.510986 -21.213409
v -1.197232 -0.474766 24.653393
v 1.180821 -0.474766 24.653393
v 1.180821 1.189484 24.653393
v -1.197232 1.189484 24.653393
v -1.197232 1.189484 24.653393
v 1.180821 1.189484 24.653393
v 3.813977 -0.510986 -21.213409
v 1.180821 -0.474766 24.653393
v -1.197232 -0.474766 24.653393
v -3.830387 -0.510986 -21.213409
v 3.867891 -3.796269 -13.808404
v 3.760064 -4.828442 -5.197982
v -3.776474 -4.828442 -5.197983
v -3.884301 -3.796270 -13.808404
v -3.884301 -3.796270 -13.808404
v -3.884301 -0.524330 -21.224901
v 3.867891 -0.524330 -21.224901
v 3.867891 -3.796269 -13.808404
v 3.760064 -4.828442 -5.197982
v 3.760064 -0.261478 -5.156847
v -3.776474 -0.261478 -5.156848
v -3.776474 -4.828442 -5.197983
vn -0.981774 -0.181353 0.056833
vn -0.981232 -0.184374 0.056477
vn -0.997063 -0.012424 0.075576
vn -0.997041 0.000000 0.076867
vn -0.999977 -0.000060 0.006711
vn -0.999977 -0.000060 0.006711
vn -0.999977 -0.000060 0.006711
vn -0.999094 0.038941 0.017180
vn -0.999094 0.038941 0.017180
vn -0.999094 0.038941 0.017180
vn 0.000000 1.000000 0.000000
vn 0.000000 1.000000 0.000000
vn 0.000000 1.000000 0.000000
vn 0.000000 1.000000 0.000000
vn 0.000000 0.000000 -1.000000
vn 0.000000 0.000000 -1.000000
vn 0.000000 0.000000 -1.000000
vn 0.000000 0.000000 -1.000000
vn 1.000000 0.000000 0.000000
vn 1.000000 0.000000 0.000000
vn 1.000000 0.000000 0.000000
vn 1.000000 0.000000 0.000000
vn 0.000000 -0.000000 1.000000
vn 0.000000 -0.000000 1.000000
vn 0.000000 -0.000000 1.000000
vn 0.000000 -0.000000 1.000000
vn -1.000000 0.000000 0.000000
vn -1.000000 0.000000 0.000000
vn -1.000000 0.000000 0.000000
vn -1.000000 0.000000 0.000000
vn -0.000000 -1.000000 -0.000000
vn -0.000000 -1.000000 -0.000000
vn -0.000000 -1.000000 -0.000000
vn -0.000000 -1.000000 -0.000000
vn 0.981774 -0.181354 0.056833
vn 0.997041 0.000000 0.076867
vn 0.997062 -0.012424 0.075576
vn 0.981232 -0.184374 0.056477
vn 0.999094 0.038941 0.017179
vn 0.999094 0.038941 0.017179
vn 0.999094 0.038941 0.017179
vn 0.999977 -0.000060 0.006711
vn 0.999977 -0.000060 0.006711
vn 0.999977 -0.000060 0.006711
vn 0.000000 1.000000 0.000000
vn 0.000000 1.000000 0.000000
vn 0.000000 1.000000 0.000000
vn 0.000000 1.000000 0.000000
vn 0.000000 0.000000 -1.000000
vn 0.000000 0.000000 -1.000000
vn 0.000000 0.000000 -1.000000
vn 0.000000 0.000000 -1.000000
vn -1.000000 0.000000 0.000000
vn -1.000000 0.000000 0.000000
vn -1.000000 0.000000 0.000000
vn -1.000000 0.000000 0.000000
vn 0.000000 -0.000000 1.000000
vn 0.000000 -0.000000 1.000000
vn 0.000000 -0.000000 1.000000
vn 0.000000 -0.000000 1.000000
vn 1.000000 0.000000 0.000000
vn 1.000000 0.000000 0.000000
vn 1.000000 0.000000 0.000000
vn 1.000000 0.000000 0.000000
vn -0.000000 -1.000000 -0.000000
vn -0.000000 -1.000000 -0.000000
vn -0.000000 -1.000000 -0.000000
vn -0.000000 -1.000000 -0.000000
vn 0.000000 0.976343 -0.216229
vn 0.000000 0.976343 -0.216229
vn 0.000000 0.882785 -0.469777
vn 0.000000 0.882785 -0.469777
vn 0.000000 -0.000000 1.000000
vn 0.000000 -0.000000 1.000000
vn 0.000000 -0.000000 1.000000
vn 0.000000 -0.000000 1.000000
vn 0.000000 0.998172 0.060429
vn 0.000000 0.998172 0.060429
vn 0.000000 -1.000000 0.000790
vn 0.000000 -1.000000 0.000790
vn 0.000000 -1.000000 0.000790
vn 0.000000 -1.000000 0.000790
vn 0.000000 -0.992891 -0.119023
vn 0.000000 -0.992891 -0.119023
vn 0.000000 -0.992891 -0.119023
vn 0.000000 -0.992891 -0.119023
vn 0.000000 -0.914920 -0.403636
vn 0.000000 -0.914920 -0.403636
vn 0.000000 -0.914920 -0.403636
vn 0.000000 -0.914920 -0.403636
vn -0.000000 -0.009007 0.999959
vn -0.000000 -0.009007 0.999959
vn -0.000000 -0.009007 0.999959
vn -0.000000 -0.009007 0.999959
vt 0.172515 0.417335
vt 0.010000 0.503818
vt 0.996758 0.503039
vt 0.996758 0.467235
vt 0.354796 0.815905
vt 0.355681 0.717653
vt 0.010000 0.723308
vt 0.010000 0.723308
vt 0.169555 0.793699
vt 0.354796 0.815905
vt 0.856038 0.843839
vt 0.497743 0.843839
vt 0.497743 0.918869
vt 0.856038 0.918869
vt 0.987064 0.712813
vt 0.880266 0.712813
vt 0.880266 0.787843
vt 0.987064 0.787843
vt 0.497743 0.712813
vt 0.497743 0.819611
vt 0.856038 0.819611
vt 0.856038 0.712813
vt 0.116798 0.849616
vt 0.010000 0.849616
vt 0.010000 0.924646
vt 0.116798 0.924646
vt 0.377616 0.531207
vt 0.377616 0.663295
vt 0.820755 0.663295
vt 0.820755 0.531207
vt 0.836822 0.711875
vt 0.496968 0.711875
vt 0.496968 0.796691
vt 0.836822 0.796691
vt 0.172515 0.417335
vt 0.996758 0.467235
vt 0.996758 0.503039
vt 0.010000 0.503818
vt 0.354796 0.815905
vt 0.169555 0.793699
vt 0.010000 0.723308
vt 0.010000 0.723308
vt 0.355681 0.717653
vt 0.354796 0.815905
vt 0.856038 0.843839
vt 0.856038 0.918869
vt 0.497743 0.918869
vt 0.497743 0.843839
vt 0.987064 0.712813
vt 0.987064 0.787843
vt 0.880266 0.787843
vt 0.880266 0.712813
vt 0.497743 0.712813
vt 0.856038 0.712813
vt 0.856038 0.819611
vt 0.497743 0.819611
vt 0.116798 0.849616
vt 0.116798 0.924646
vt 0.010000 0.924646
vt 0.010000 0.849616
vt 0.377616 0.531207
vt 0.820755 0.531207
vt 0.820755 0.663295
vt 0.377616 0.663295
vt 0.836822 0.711875
vt 0.836822 0.796691
vt 0.496968 0.796691
vt 0.496968 0.711875
vt 0.172515 0.188260
vt 0.172515 0.010000
vt 0.010000 0.016896
vt 0.010000 0.181364
vt 0.497743 0.986977
vt 0.548914 0.986977
vt 0.548914 0.951173
vt 0.497743 0.951173
vt 0.996758 0.124716
vt 0.996758 0.073545
vt 0.996757 0.220564
vt 0.010000 0.277212
vt 0.010000 0.328383
vt 0.996758 0.385032
vt 0.195241 0.528046
vt 0.010000 0.530365
vt 0.010000 0.692513
vt 0.195241 0.694833
vt 0.195241 0.694833
vt 0.354796 0.694833
vt 0.354796 0.528046
vt 0.195241 0.528046
vt 0.479713 0.990979
vt 0.479713 0.841009
vt 0.232211 0.841009
vt 0.232211 0.990979
g part_0_s36_desc
f 1/1/1 2/2/2 3/3/3
f 3/3/3 4/4/4 1/1/1
f 5/5/5 6/6/6 7/7/7
f 8/8/8 9/9/9 10/10/10
f 11/11/11 12/12/12 13/13/13
f 13/13/13 14/14/14 11/11/11
f 15/15/15 16/16/16 17/17/17
f 17/17/17 18/18/18 15/15/15
f 19/19/19 20/20/20 21/21/21
f 21/21/21 22/22/22 19/19/19
f 23/23/23 24/24/24 25/25/25
f 25/25/25 26/26/26 23/23/23
f 27/27/27 28/28/28 29/29/29
f 29/29/29 30/30/30 27/27/27
f 31/31/31 32/32/32 33/33/33
f 33/33/33 34/34/34 31/31/31
f 35/35/35 36/36/36 37/37/37
f 37/37/37 38/38/38 35/35/35
f 39/39/39 40/40/40 41/41/41
f 42/42/42 43/43/43 44/44/44
f 45/45/45 46/46/46 47/47/47
f 47/47/47 48/48/48 45/45/45
f 49/49/49 50/50/50 51/51/51
f 51/51/51 52/52/52 49/49/49
f 53/53/53 54/54/54 55/55/55
f 55/55/55 56/56/56 53/53/53
f 57/57/57 58/58/58 59/59/59
f 59/59/59 60/60/60 57/57/57
f 61/61/61 62/62/62 63/63/63
f 63/63/63 64/64/64 61/61/61
f 65/65/65 66/66/66 67/67/67
f 67/67/67 68/68/68 65/65/65
f 69/69/69 70/70/70 71/71/71
f 71/71/71 72/72/72 69/69/69
f 73/73/73 74/74/74 75/75/75
f 75/75/75 76/76/76 73/73/73
f 69/69/69 77/77/77 78/78/78
f 78/78/78 70/70/70 69/69/69
f 79/79/79 80/80/80 81/81/81
f 81/81/81 82/82/82 79/79/79
f 83/83/83 84/84/84 85/85/85
f 85/85/85 86/86/86 83/83/83
f 87/87/87 88/88/88 89/89/89
f 89/89/89 90/90/90 87/87/87
f 91/91/91 92/92/92 93/93/93
f 93/93/93 94/94/94 91/91/91
