# f_triglav_l
# Parts: 1
v -0.999880 -0.942523 15.103460
v -0.999880 3.709987 14.917473
v -0.999879 3.673227 3.760653
v -0.999879 1.296835 1.237709
v -0.999880 0.611089 22.859060
v -0.999880 3.063441 22.859060
v -3.302140 -0.894645 23.202641
v -3.302139 -0.894546 15.178711
v -3.302139 -4.369277 13.943382
v -3.302140 -4.330764 23.202641
v -3.302139 1.583145 11.275704
v -3.302139 1.509743 -23.095228
v -3.302139 -2.513395 -23.095228
v -3.302140 -2.515950 7.401378
v 1.048351 -0.942523 15.103460
v 1.048352 1.296835 1.237709
v 1.048352 3.673227 3.760653
v 1.048351 3.709987 14.917473
v 1.048351 0.611089 22.859060
v 1.048351 3.063441 22.859060
v 3.291710 -0.894646 23.202641
v 3.291710 -4.330764 23.202641
v 3.291710 -4.369277 13.943382
v 3.291710 -0.894546 15.178711
v 3.291711 1.583144 11.275704
v 3.291711 -2.515950 7.401378
v 3.291713 -2.513395 -23.095228
v 3.291713 1.509743 -23.095228
v 1.048351 3.063441 22.859060
v -0.999880 3.063441 22.859060
v -0.999880 0.611089 22.859060
v 1.048351 0.611089 22.859060
v 1.048351 3.063441 22.859060
v 1.048351 3.709987 14.917473
v -0.999880 3.709987 14.917473
v -0.999880 3.063441 22.859060
v 1.048352 1.296835 1.237709
v -0.999879 1.296835 1.237709
v -0.999879 3.673227 3.760653
v 1.048352 3.673227 3.760653
v 1.048351 -0.942523 15.103460
v 1.048351 0.611089 22.859060
v -0.999880 0.611089 22.859060
v -0.999880 -0.942523 15.103460
v 1.048352 3.673227 3.760653
v -0.999879 3.673227 3.760653
v 3.291713 -2.513395 -23.095228
v 3.291711 -2.515950 7.401378
v -3.302140 -2.515950 7.401378
v -3.302139 -2.513395 -23.095228
v -3.302139 1.583145 11.275704
v 3.291711 1.583144 11.275704
v 3.291713 1.509743 -23.095228
v -3.302139 1.509743 -23.095228
v 3.291713 1.509743 -23.095228
v 3.291713 -2.513395 -23.095228
v -3.302139 -2.513395 -23.095228
v -3.302139 1.509743 -23.095228
v -3.302140 -0.894645 23.202641
v -3.302140 -4.330764 23.202641
v 3.291710 -4.330764 23.202641
v 3.291710 -0.894646 23.202641
v 3.291710 -4.369277 13.943382
v -3.302139 -4.369277 13.943382
v -3.302139 -0.894546 15.178711
v 3.291710 -0.894546 15.178711
v 3.291710 -4.330764 23.202641
v -3.302140 -4.330764 23.202641
v -3.302140 -0.894645 23.202641
v 3.291710 -0.894646 23.202641
vn -1.000000 0.000000 -0.000000
vn -1.000000 0.000000 -0.000000
vn -1.000000 0.000000 -0.000000
vn -1.000000 0.000000 -0.000000
vn -1.000000 0.000000 -0.000000
vn -1.000000 0.000000 -0.000000
vn -1.000000 0.000000 -0.000000
vn -1.000000 0.000000 -0.000000
vn -1.000000 0.000000 -0.000000
vn -1.000000 0.000000 -0.000000
vn -1.000000 0.000000 -0.000000
vn -1.000000 0.000000 -0.000000
vn -1.000000 0.000000 -0.000000
vn -1.000000 0.000000 -0.000000
vn 1.000000 -0.000000 0.000000
vn 1.000000 -0.000000 0.000000
vn 1.000000 -0.000000 0.000000
vn 1.000000 -0.000000 0.000000
vn 1.000000 -0.000000 0.000000
vn 1.000000 -0.000000 0.000000
vn 1.000000 -0.000000 0.000000
vn 1.000000 -0.000000 0.000000
vn 1.000000 -0.000000 0.000000
vn 1.000000 -0.000000 0.000000
vn 1.000000 -0.000000 0.000000
vn 1.000000 -0.000000 0.000000
vn 1.000000 -0.000000 0.000000
vn 1.000000 -0.000000 0.000000
vn 0.000000 0.000000 1.000000
vn 0.000000 0.000000 1.000000
vn 0.000000 0.000000 1.000000
vn 0.000000 0.000000 1.000000
vn 0.000000 0.996702 0.081144
vn 0.000000 0.999241 0.038959
vn 0.000000 0.999241 0.038959
vn 0.000000 0.996702 0.081144
vn 0.000000 0.727933 -0.685649
vn 0.000000 0.727933 -0.685649
vn 0.000000 0.727933 -0.685649
vn 0.000000 0.727933 -0.685649
vn -0.000000 -0.980520 0.196419
vn -0.000000 -0.980520 0.196419
vn -0.000000 -0.980520 0.196419
vn -0.000000 -0.980520 0.196419
vn 0.000000 0.999995 -0.003295
vn 0.000000 0.999995 -0.003295
vn -0.000000 -1.000000 -0.000084
vn -0.000000 -0.990483 -0.137635
vn -0.000000 -0.990483 -0.137635
vn -0.000000 -1.000000 -0.000084
vn 0.000000 0.960572 0.278033
vn 0.000000 0.960572 0.278033
vn 0.000000 0.999998 -0.002136
vn 0.000000 0.999998 -0.002136
vn 0.000000 0.000000 -1.000000
vn 0.000000 0.000000 -1.000000
vn 0.000000 0.000000 -1.000000
vn 0.000000 0.000000 -1.000000
vn 0.000000 0.000000 1.000000
vn 0.000000 0.000000 1.000000
vn 0.000000 0.000000 1.000000
vn 0.000000 0.000000 1.000000
vn -0.000000 -0.990773 -0.135533
vn -0.000000 -0.990773 -0.135533
vn 0.000000 0.960272 0.279064
vn 0.000000 0.960272 0.279064
vn -0.000000 -0.999991 0.004159
vn -0.000000 -0.999991 0.004159
vn 0.000000 1.000000 0.000012
vn 0.000000 1.000000 0.000012
vt 0.308850 0.696578
vt 0.307893 0.598343
vt 0.072582 0.592014
vt 0.017862 0.640523
vt 0.473397 0.668760
vt 0.474961 0.617043
vt 0.019119 0.117201
vt 0.188413 0.117199
vt 0.214477 0.043887
vt 0.019119 0.044704
vt 0.270762 0.169467
vt 0.995941 0.167915
vt 0.995941 0.083032
vt 0.352504 0.082982
vt 0.308850 0.696578
vt 0.017862 0.640523
vt 0.072582 0.592014
vt 0.307893 0.598343
vt 0.473397 0.668760
vt 0.474961 0.617043
vt 0.019119 0.117201
vt 0.019119 0.044704
vt 0.214477 0.043887
vt 0.188413 0.117199
vt 0.270762 0.169467
vt 0.352504 0.082982
vt 0.995941 0.083032
vt 0.995941 0.167915
vt 0.791846 0.639329
vt 0.791846 0.759715
vt 0.957606 0.759715
vt 0.957606 0.639329
vt 0.529050 0.704516
vt 0.360939 0.704516
vt 0.360939 0.742094
vt 0.529050 0.742094
vt 0.052419 0.704516
vt 0.052419 0.742094
vt 0.125545 0.742094
vt 0.125545 0.704516
vt 0.713561 0.704516
vt 0.546678 0.704516
vt 0.546678 0.742094
vt 0.713561 0.742094
vt 0.125545 0.704516
vt 0.125545 0.742094
vt 0.999282 0.451213
vt 0.355846 0.451213
vt 0.355846 0.571108
vt 0.999282 0.571108
vt 0.736936 0.385812
vt 0.736936 0.265918
vt 0.011756 0.265918
vt 0.011756 0.385812
vt 0.623922 0.676989
vt 0.623922 0.592106
vt 0.504028 0.592106
vt 0.504028 0.676989
vt 0.068016 0.775725
vt 0.068016 0.986938
vt 0.417313 0.986938
vt 0.417313 0.775725
vt 0.212387 0.451213
vt 0.212387 0.571108
vt 0.834474 0.385812
vt 0.834474 0.265918
vt 0.017028 0.451213
vt 0.017028 0.571108
vt 1.003767 0.385812
vt 1.003767 0.265918
g part_0_s36_desc
f 1/1/1 2/2/2 3/3/3
f 3/3/3 4/4/4 1/1/1
f 5/5/5 6/6/6 2/2/2
f 2/2/2 1/1/1 5/5/5
f 7/7/7 8/8/8 9/9/9
f 9/9/9 10/10/10 7/7/7
f 11/11/11 12/12/12 13/13/13
f 13/13/13 14/14/14 11/11/11
f 8/8/8 11/11/11 14/14/14
f 14/14/14 9/9/9 8/8/8
f 15/15/15 16/16/16 17/17/17
f 17/17/17 18/18/18 15/15/15
f 19/19/19 15/15/15 18/18/18
f 18/18/18 20/20/20 19/19/19
f 21/21/21 22/22/22 23/23/23
f 23/23/23 24/24/24 21/21/21
f 25/25/25 26/26/26 27/27/27
f 27/27/27 28/28/28 25/25/25
f 24/24/24 23/23/23 26/26/26
f 26/26/26 25/25/25 24/24/24
f 29/29/29 30/30/30 31/31/31
f 31/31/31 32/32/32 29/29/29
f 33/33/33 34/34/34 35/35/35
f 35/35/35 36/36/36 33/33/33
f 37/37/37 38/38/38 39/39/39
f 39/39/39 40/40/40 37/37/37
f 41/41/41 42/42/42 43/43/43
f 43/43/43 44/44/44 41/41/41
f 34/34/34 45/45/45 46/46/46
f 46/46/46 35/35/35 34/34/34
f 47/47/47 48/48/48 49/49/49
f 49/49/49 50/50/50 47/47/47
f 51/51/51 52/52/52 53/53/53
f 53/53/53 54/54/54 51/51/51
f 55/55/55 56/56/56 57/57/57
f 57/57/57 58/58/58 55/55/55
f 59/59/59 60/60/60 61/61/61
f 61/61/61 62/62/62 59/59/59
f 48/48/48 63/63/63 64/64/64
f 64/64/64 49/49/49 48/48/48
f 51/51/51 65/65/65 66/66/66
f 66/66/66 52/52/52 51/51/51
f 63/63/63 67/67/67 68/68/68
f 68/68/68 64/64/64 63/63/63
f 65/65/65 69/69/69 70/70/70
f 70/70/70 66/66/66 65/65/65
