# f_perun_l_exact
# Parts: 1
v -1.086102 3.539798 17.116899
v -1.086101 1.826157 15.734904
v -1.086102 1.826157 18.962877
v -1.086102 3.539798 18.962877
v -1.086101 1.826157 15.734904
v 1.031653 1.826154 15.734905
v 1.031652 1.826154 18.962877
v -1.086102 1.826157 18.962877
v -1.086102 3.539798 17.116899
v 1.031653 3.539794 17.116899
v 1.031653 1.826154 15.734905
v -1.086101 1.826157 15.734904
v -1.086102 3.539798 18.962877
v 1.031652 3.539794 18.962877
v 1.031653 3.539794 17.116899
v -1.086102 3.539798 17.116899
v -1.086102 1.826157 18.962877
v 1.031652 1.826154 18.962877
v 1.031652 3.539794 18.962877
v -1.086102 3.539798 18.962877
v -1.598760 -3.942582 3.566216
v -1.558338 -3.951005 -11.923037
v 1.503897 -3.951005 -11.923037
v 1.544316 -3.942578 3.566220
v 1.544315 3.815559 4.018985
v 1.503897 3.815556 -11.922486
v -1.558338 3.815562 -11.922486
v -1.598760 3.815559 4.018987
v -0.995925 2.137043 28.791969
v -0.995925 -2.189287 28.791420
v 0.941473 -2.189287 28.791420
v 0.941473 2.137040 28.791971
v -1.598761 2.137043 7.323256
v -1.558338 2.137043 -11.922487
v -1.558338 -2.189287 -11.923037
v -1.598761 -2.189287 7.322701
v 1.463479 2.137040 -28.710644
v 1.463479 -2.189287 -28.711195
v -1.517914 -2.189287 -28.711193
v -1.517914 2.137043 -28.710642
v 1.544315 -2.189287 7.322707
v 0.941473 -2.189287 28.791420
v -0.995925 -2.189287 28.791420
v -1.598761 -2.189287 7.322701
v -1.598761 2.137043 7.323256
v -0.995925 2.137043 28.791969
v 0.941473 2.137040 28.791971
v 1.544315 2.137040 7.323254
v -0.995925 -2.189287 28.791420
v -0.995925 2.137043 28.791969
v -1.558338 -2.189287 -11.923037
v -1.517914 -2.189287 -28.711193
v 1.463479 -2.189287 -28.711195
v 1.503897 -2.189287 -11.923036
v 1.503897 2.137039 -11.922486
v 1.463479 2.137040 -28.710644
v -1.517914 2.137043 -28.710642
v -1.558338 2.137043 -11.922487
v -1.517914 2.137043 -28.710642
v -1.517914 -2.189287 -28.711193
v -1.558338 -3.951005 -11.923037
v -1.558338 -2.189287 -11.923037
v 1.503897 -2.189287 -11.923036
v 1.503897 -3.951005 -11.923037
v -1.598760 -3.942582 3.566216
v -1.598761 -2.189287 7.322701
v -1.558338 -2.189287 -11.923037
v -1.558338 -3.951005 -11.923037
v -1.598760 -3.942582 3.566216
v 1.544316 -3.942578 3.566220
v 1.544315 -2.189287 7.322707
v -1.598761 -2.189287 7.322701
v -1.598760 -3.942582 3.566216
v -1.558338 3.815562 -11.922486
v -1.598761 2.137043 7.323256
v -1.598761 2.137043 7.323256
v -1.598760 3.815559 4.018987
v -1.558338 3.815562 -11.922486
v 1.503897 3.815556 -11.922486
v 1.503897 2.137039 -11.922486
v -1.558338 2.137043 -11.922487
v -1.558338 3.815562 -11.922486
v -1.598760 3.815559 4.018987
v -1.598761 2.137043 7.323256
v 1.544315 2.137040 7.323254
v 1.544315 3.815559 4.018985
vn -1.000000 -0.000000 -0.000000
vn -1.000000 -0.000000 -0.000000
vn -1.000000 -0.000000 -0.000000
vn -1.000000 -0.000000 -0.000000
vn -0.000002 -1.000000 -0.000000
vn -0.000002 -1.000000 -0.000000
vn -0.000002 -1.000000 -0.000000
vn -0.000002 -1.000000 -0.000000
vn 0.000001 0.627760 -0.778407
vn 0.000001 0.627760 -0.778407
vn 0.000001 0.627760 -0.778407
vn 0.000001 0.627760 -0.778407
vn 0.000002 1.000000 0.000000
vn 0.000002 1.000000 0.000000
vn 0.000002 1.000000 0.000000
vn 0.000002 1.000000 0.000000
vn -0.000001 -0.000000 1.000000
vn -0.000001 -0.000000 1.000000
vn -0.000001 -0.000000 1.000000
vn -0.000001 -0.000000 1.000000
vn 0.000001 -1.000000 0.000544
vn 0.000001 -1.000000 0.000544
vn 0.000001 -1.000000 0.000544
vn 0.000001 -1.000000 0.000544
vn 0.000002 1.000000 0.000000
vn 0.000002 1.000000 0.000000
vn 0.000002 1.000000 0.000000
vn 0.000002 1.000000 0.000000
vn -0.000001 -0.000000 1.000000
vn -0.000001 -0.000000 1.000000
vn -0.000001 -0.000000 1.000000
vn -0.000001 -0.000000 1.000000
vn -0.999916 -0.000002 0.012987
vn -0.999997 0.000000 -0.002254
vn -0.999997 0.000000 -0.002254
vn -0.999916 -0.000002 0.012987
vn -0.000001 0.000128 -1.000000
vn -0.000001 0.000128 -1.000000
vn -0.000001 0.000128 -1.000000
vn -0.000001 0.000128 -1.000000
vn -0.000002 -1.000000 -0.000000
vn -0.000002 -1.000000 -0.000000
vn -0.000002 -1.000000 -0.000000
vn -0.000002 -1.000000 -0.000000
vn 0.000002 1.000000 0.000000
vn 0.000002 1.000000 0.000000
vn 0.000002 1.000000 0.000000
vn 0.000002 1.000000 0.000000
vn -0.999606 -0.000004 0.028069
vn -0.999606 -0.000004 0.028069
vn -0.000002 -1.000000 -0.000000
vn -0.000002 -1.000000 -0.000000
vn -0.000002 -1.000000 -0.000000
vn -0.000002 -1.000000 -0.000000
vn 0.000002 1.000000 0.000000
vn 0.000002 1.000000 0.000000
vn 0.000002 1.000000 0.000000
vn 0.000002 1.000000 0.000000
vn -0.999997 0.000000 -0.002254
vn -0.999997 0.000000 -0.002254
vn -0.000001 0.000128 -1.000000
vn -0.000001 0.000128 -1.000000
vn -0.000001 0.000128 -1.000000
vn -0.000001 0.000128 -1.000000
vn -0.999988 0.004500 -0.002100
vn -0.999988 0.004500 -0.002100
vn -0.999988 0.004500 -0.002100
vn -0.999997 0.000000 -0.002254
vn -0.999997 0.000000 -0.002254
vn -0.000001 -0.906159 0.422938
vn -0.000001 -0.906159 0.422938
vn -0.000001 -0.906159 0.422938
vn -0.000001 -0.906159 0.422938
vn -0.999997 0.000000 -0.002254
vn -0.999997 0.000000 -0.002254
vn -0.999984 -0.004991 -0.002536
vn -0.999984 -0.004991 -0.002536
vn -0.999984 -0.004991 -0.002536
vn -0.000001 0.000128 -1.000000
vn -0.000001 0.000128 -1.000000
vn -0.000001 0.000128 -1.000000
vn -0.000001 0.000128 -1.000000
vn 0.000001 0.891562 0.452899
vn 0.000001 0.891562 0.452899
vn 0.000001 0.891562 0.452899
vn 0.000001 0.891562 0.452899
vt 0.507583 0.593382
vt 0.483786 0.620208
vt 0.539371 0.620208
vt 0.539371 0.593382
vt 0.254181 0.609412
vt 0.254181 0.649932
vt 0.309767 0.649932
vt 0.309767 0.609412
vt 0.524255 0.668890
vt 0.483736 0.668890
vt 0.483736 0.704751
vt 0.524255 0.704751
vt 0.365614 0.609401
vt 0.325095 0.609401
vt 0.325095 0.641189
vt 0.365614 0.641189
vt 0.116441 0.666937
vt 0.075921 0.666937
vt 0.075921 0.693763
vt 0.116441 0.693764
vt 0.240257 0.056800
vt 0.007975 0.057573
vt 0.007975 0.116163
vt 0.240257 0.116936
vt 0.440457 0.291198
vt 0.680525 0.290424
vt 0.680525 0.231834
vt 0.440457 0.231061
vt 0.993383 0.576711
vt 0.733177 0.576711
vt 0.733177 0.719129
vt 0.993383 0.719129
vt 0.628414 0.787057
vt 0.331446 0.787057
vt 0.331436 0.854783
vt 0.628405 0.854783
vt 0.789159 0.522069
vt 0.979091 0.522069
vt 0.979091 0.362097
vt 0.789159 0.362096
vt 0.310524 0.116936
vt 0.680210 0.105402
vt 0.680210 0.068334
vt 0.310524 0.056800
vt 0.377784 0.231061
vt 0.008098 0.242595
vt 0.008098 0.279664
vt 0.377785 0.291198
vt 0.998271 0.854783
vt 0.998280 0.787057
vt 0.557834 0.372398
vt 0.234306 0.373172
vt 0.234306 0.430215
vt 0.557834 0.430989
vt 0.072990 0.551024
vt 0.396517 0.550251
vt 0.396517 0.493208
vt 0.072990 0.492434
vt 0.007917 0.787057
vt 0.007907 0.854783
vt 0.134534 0.646594
vt 0.134534 0.619015
vt 0.075944 0.619015
vt 0.075944 0.646594
vt 0.563719 0.882230
vt 0.628405 0.854783
vt 0.331436 0.854783
vt 0.331436 0.882361
vt 0.563719 0.882230
vt 0.240257 0.116936
vt 0.310524 0.116936
vt 0.310524 0.056800
vt 0.240257 0.056800
vt 0.331445 0.760781
vt 0.628414 0.787057
vt 0.628414 0.787057
vt 0.571515 0.760781
vt 0.331445 0.760781
vt 0.254185 0.683339
vt 0.254185 0.709616
vt 0.312775 0.709615
vt 0.312775 0.683339
vt 0.440457 0.231061
vt 0.377784 0.231061
vt 0.377785 0.291198
vt 0.440457 0.291198
g part_0_s36_desc
f 1/1/1 2/2/2 3/3/3
f 3/3/3 4/4/4 1/1/1
f 5/5/5 6/6/6 7/7/7
f 7/7/7 8/8/8 5/5/5
f 9/9/9 10/10/10 11/11/11
f 11/11/11 12/12/12 9/9/9
f 13/13/13 14/14/14 15/15/15
f 15/15/15 16/16/16 13/13/13
f 17/17/17 18/18/18 19/19/19
f 19/19/19 20/20/20 17/17/17
f 21/21/21 22/22/22 23/23/23
f 23/23/23 24/24/24 21/21/21
f 25/25/25 26/26/26 27/27/27
f 27/27/27 28/28/28 25/25/25
f 29/29/29 30/30/30 31/31/31
f 31/31/31 32/32/32 29/29/29
f 33/33/33 34/34/34 35/35/35
f 35/35/35 36/36/36 33/33/33
f 37/37/37 38/38/38 39/39/39
f 39/39/39 40/40/40 37/37/37
f 41/41/41 42/42/42 43/43/43
f 43/43/43 44/44/44 41/41/41
f 45/45/45 46/46/46 47/47/47
f 47/47/47 48/48/48 45/45/45
f 36/36/36 49/49/49 50/50/50
f 50/50/50 33/33/33 36/36/36
f 51/51/51 52/52/52 53/53/53
f 53/53/53 54/54/54 51/51/51
f 55/55/55 56/56/56 57/57/57
f 57/57/57 58/58/58 55/55/55
f 34/34/34 59/59/59 60/60/60
f 60/60/60 35/35/35 34/34/34
f 61/61/61 62/62/62 63/63/63
f 63/63/63 64/64/64 61/61/61
f 65/65/65 66/66/66 67/67/67
f 35/35/35 68/68/68 69/69/69
f 70/70/70 71/71/71 72/72/72
f 72/72/72 73/73/73 70/70/70
f 74/74/74 34/34/34 75/75/75
f 76/76/76 77/77/77 78/78/78
f 79/79/79 80/80/80 81/81/81
f 81/81/81 82/82/82 79/79/79
f 83/83/83 84/84/84 85/85/85
f 85/85/85 86/86/86 83/83/83
