# f_marduk_l
# Parts: 1
v 1.076698 2.553976 -7.284800
v 1.313612 -2.513439 -7.284803
v 0.691697 -2.469497 -15.785953
v 0.633846 2.675621 -15.785950
v 1.104770 -1.373345 -0.791813
v 1.085112 -1.374101 0.323311
v -1.085116 -1.374101 0.323309
v -1.143178 -1.373345 -0.791812
v 0.586951 -1.102413 8.119332
v 0.788744 -1.337456 15.788910
v -0.788757 -1.337456 15.788908
v -0.586956 -1.102413 8.119330
v 1.085112 -1.374101 0.323311
v 1.582070 -1.516771 2.957327
v -1.582073 -1.516771 2.957329
v -1.085116 -1.374101 0.323309
v -0.787802 1.263794 15.789051
v 0.787792 1.263794 15.789051
v 0.596066 1.035360 8.116529
v -0.596075 1.035360 8.116529
v -0.692987 -2.471498 -15.809239
v -1.313614 -2.513439 -7.284802
v -1.076705 2.553976 -7.284801
v -0.633840 2.675621 -15.785948
v -0.936683 2.239646 0.323313
v 0.936679 2.239646 0.323314
v 0.964249 1.627859 -0.793109
v -1.002656 1.627859 -0.793110
v -1.076705 2.553976 -7.284801
v 1.076698 2.553976 -7.284800
v 0.633846 2.675621 -15.785950
v -0.633840 2.675621 -15.785948
v -1.313614 -2.513439 -7.284802
v -0.692987 -2.471498 -15.809239
v 0.691697 -2.469497 -15.785953
v 1.313612 -2.513439 -7.284803
v -1.085116 -1.374101 0.323309
v -0.936683 2.239646 0.323313
v -1.002656 1.627859 -0.793110
v -1.143178 -1.373345 -0.791812
v -1.190641 2.230711 3.034250
v 1.190638 2.230711 3.034251
v -1.582073 -1.516771 2.957329
v -1.190641 2.230711 3.034250
v -0.586956 -1.102413 8.119330
v -0.596075 1.035360 8.116529
v -0.788757 -1.337456 15.788908
v -0.787802 1.263794 15.789051
v 0.787792 1.263794 15.789051
v 0.788744 -1.337456 15.788910
v 0.586951 -1.102413 8.119332
v 0.596066 1.035360 8.116529
v 0.586951 -1.102413 8.119332
v 1.582070 -1.516771 2.957327
v 1.190638 2.230711 3.034251
v 0.596066 1.035360 8.116529
v 1.085112 -1.374101 0.323311
v 0.936679 2.239646 0.323314
v 0.964249 1.627859 -0.793109
v 1.104770 -1.373345 -0.791813
v 1.060915 -1.420894 -3.464565
v -1.099319 -1.420894 -3.464565
v -1.099319 -1.420894 -3.464565
v -0.925251 1.502701 -3.464997
v -1.143178 -1.373345 -0.791812
v -1.002656 1.627859 -0.793110
v -0.925251 1.502701 -3.464997
v 0.886843 1.502701 -3.464996
v 1.060915 -1.420894 -3.464565
v 0.886843 1.502701 -3.464996
v 0.964249 1.627859 -0.793109
v 1.104770 -1.373345 -0.791813
v -1.002656 1.627859 -0.793110
v 0.964249 1.627859 -0.793109
v 0.788744 -1.337456 15.788910
v 0.787792 1.263794 15.789051
v -0.787802 1.263794 15.789051
v -0.788757 -1.337456 15.788908
v -0.633840 2.675621 -15.785948
v 0.633846 2.675621 -15.785950
v 0.691697 -2.469497 -15.785953
v 0.691697 -2.469497 -15.785953
v -0.692987 -2.471498 -15.809239
v -0.633840 2.675621 -15.785948
vn 0.999055 0.042360 -0.009751
vn 0.998781 0.046696 -0.016008
vn 0.997987 0.023315 -0.058974
vn 0.998591 0.011228 -0.051859
vn 0.000000 -0.999963 0.008559
vn -0.000000 -0.999587 -0.028738
vn -0.000000 -0.999587 -0.028738
vn 0.000000 -0.999963 0.008559
vn 0.000000 -0.999624 0.027427
vn 0.000000 -0.999531 -0.030632
vn 0.000000 -0.999531 -0.030632
vn 0.000000 -0.999624 0.027427
vn -0.000000 -0.999587 -0.028738
vn 0.000000 -0.999917 0.012905
vn 0.000000 -0.999917 0.012905
vn -0.000000 -0.999587 -0.028738
vn 0.000000 0.999557 -0.029760
vn 0.000000 0.999557 -0.029760
vn -0.000000 0.994581 0.103965
vn -0.000000 0.994581 0.103965
vn -0.997986 0.023640 -0.058860
vn -0.998702 0.046691 -0.020350
vn -0.998998 0.042461 -0.014163
vn -0.998586 0.011710 -0.051853
vn 0.000000 0.969959 -0.243270
vn 0.000000 0.970543 -0.240927
vn 0.000000 0.962534 -0.271160
vn 0.000000 0.963148 -0.268973
vn -0.000000 0.989932 0.141541
vn -0.000000 0.989932 0.141541
vn -0.000000 0.999898 0.014308
vn -0.000000 0.999898 0.014308
vn 0.000081 -0.990548 0.137168
vn 0.001526 -0.999987 -0.004809
vn 0.001526 -0.999987 -0.004809
vn 0.000081 -0.990548 0.137168
vn -0.996715 0.063451 -0.050333
vn -0.998336 0.041006 -0.040543
vn -0.998828 0.046870 0.012035
vn -0.998758 0.046771 0.017190
vn -0.000000 0.993237 0.116107
vn -0.000000 0.993237 0.116107
vn -0.994578 0.103949 -0.003076
vn -0.997464 0.070621 0.008879
vn -0.998073 0.017147 0.059642
vn -0.998766 -0.004195 0.049493
vn -0.709349 0.000222 0.704857
vn -0.709276 -0.000357 0.704931
vn 0.709276 -0.000357 0.704931
vn 0.709348 0.000221 0.704858
vn 0.998072 0.017148 0.059643
vn 0.998766 -0.004194 0.049494
vn 0.998072 0.017148 0.059643
vn 0.994578 0.103949 -0.003076
vn 0.997464 0.070621 0.008880
vn 0.998766 -0.004194 0.049494
vn 0.995725 0.063381 -0.067196
vn 0.997675 0.040979 -0.054444
vn 0.998871 0.046870 -0.007761
vn 0.998906 0.046770 0.000119
vn 0.000000 -0.988758 0.149526
vn 0.000000 -0.988758 0.149526
vn -0.998517 0.052269 0.015251
vn -0.998121 0.059429 0.014897
vn -0.998758 0.046771 0.017190
vn -0.998828 0.046870 0.012035
vn -0.000000 0.993808 0.111110
vn -0.000000 0.993808 0.111110
vn 0.998419 0.052266 0.020700
vn 0.998028 0.059426 0.020206
vn 0.998871 0.046870 -0.007761
vn 0.998906 0.046770 0.000119
vn 0.000000 0.963148 -0.268973
vn 0.000000 0.962534 -0.271160
vn 0.709348 0.000221 0.704858
vn 0.709276 -0.000357 0.704931
vn -0.709276 -0.000357 0.704931
vn -0.709349 0.000222 0.704857
vn -0.000001 0.000001 -1.000000
vn -0.000001 0.000001 -1.000000
vn -0.000001 0.000001 -1.000000
vn 0.016808 0.004331 -0.999849
vn 0.016808 0.004331 -0.999849
vn 0.016808 0.004331 -0.999849
vt 0.401714 0.017364
vt 0.401690 0.275105
vt 0.017151 0.272737
vt 0.016980 0.011219
vt 0.067008 0.750606
vt 0.010570 0.751604
vt 0.010570 0.861853
vt 0.067008 0.864803
vt 0.397176 0.304042
vt 0.007406 0.293791
vt 0.007406 0.373929
vt 0.397176 0.363677
vt 0.794004 0.278738
vt 0.660158 0.253491
vt 0.660157 0.414231
vt 0.794004 0.388987
vt 0.869852 0.974888
vt 0.869852 0.895402
vt 0.482798 0.905075
vt 0.482799 0.965217
vt 0.014868 0.270716
vt 0.400617 0.272985
vt 0.400584 0.015239
vt 0.015874 0.009092
vt 0.083897 0.982408
vt 0.083900 0.887900
vt 0.020498 0.886506
vt 0.020495 0.985732
vt 0.409602 0.536363
vt 0.409604 0.427728
vt 0.028876 0.450070
vt 0.028877 0.514022
vt 0.452191 0.873456
vt 0.836833 0.841927
vt 0.835651 0.771585
vt 0.452189 0.739991
vt 0.062549 0.717581
vt 0.062394 0.533757
vt 0.005669 0.564852
vt 0.005638 0.717551
vt 0.219923 0.995217
vt 0.219921 0.875086
vt 0.197452 0.725147
vt 0.201561 0.534386
vt 0.462859 0.703974
vt 0.462696 0.595319
vt 0.852794 0.715915
vt 0.852800 0.583706
vt 0.996198 0.721655
vt 0.863991 0.721649
vt 0.875933 0.331718
vt 0.984586 0.331555
vt 0.463977 0.706096
vt 0.198574 0.727269
vt 0.202682 0.536510
vt 0.463814 0.597442
vt 0.063736 0.719703
vt 0.063451 0.535880
vt 0.006805 0.566976
vt 0.006896 0.719673
vt 0.239680 0.752836
vt 0.239681 0.862576
vt 0.606170 0.217579
vt 0.606271 0.068722
vt 0.779189 0.215034
vt 0.779219 0.062335
vt 0.619741 0.528731
vt 0.619743 0.437314
vt 0.607347 0.219700
vt 0.607491 0.070845
vt 0.780355 0.064459
vt 0.780447 0.217156
vt 0.790751 0.532634
vt 0.790754 0.433408
vt 0.887587 0.758006
vt 0.887635 0.891090
vt 0.968245 0.891090
vt 0.968295 0.758007
vt 0.901239 0.319166
vt 0.967706 0.319167
vt 0.970741 0.049359
vt 0.970741 0.049359
vt 0.898119 0.049254
vt 0.901239 0.319166
g part_0_s36_desc
f 1/1/1 2/2/2 3/3/3
f 3/3/3 4/4/4 1/1/1
f 5/5/5 6/6/6 7/7/7
f 7/7/7 8/8/8 5/5/5
f 9/9/9 10/10/10 11/11/11
f 11/11/11 12/12/12 9/9/9
f 13/13/13 14/14/14 15/15/15
f 15/15/15 16/16/16 13/13/13
f 17/17/17 18/18/18 19/19/19
f 19/19/19 20/20/20 17/17/17
f 21/21/21 22/22/22 23/23/23
f 23/23/23 24/24/24 21/21/21
f 15/15/15 14/14/14 9/9/9
f 9/9/9 12/12/12 15/15/15
f 25/25/25 26/26/26 27/27/27
f 27/27/27 28/28/28 25/25/25
f 29/29/29 30/30/30 31/31/31
f 31/31/31 32/32/32 29/29/29
f 33/33/33 34/34/34 35/35/35
f 35/35/35 36/36/36 33/33/33
f 37/37/37 38/38/38 39/39/39
f 39/39/39 40/40/40 37/37/37
f 41/41/41 42/42/42 26/26/26
f 26/26/26 25/25/25 41/41/41
f 37/37/37 43/43/43 44/44/44
f 44/44/44 38/38/38 37/37/37
f 44/44/44 43/43/43 45/45/45
f 45/45/45 46/46/46 44/44/44
f 19/19/19 42/42/42 41/41/41
f 41/41/41 20/20/20 19/19/19
f 45/45/45 47/47/47 48/48/48
f 48/48/48 46/46/46 45/45/45
f 49/49/49 50/50/50 51/51/51
f 51/51/51 52/52/52 49/49/49
f 53/53/53 54/54/54 55/55/55
f 55/55/55 56/56/56 53/53/53
f 55/55/55 54/54/54 57/57/57
f 57/57/57 58/58/58 55/55/55
f 59/59/59 58/58/58 57/57/57
f 57/57/57 60/60/60 59/59/59
f 33/33/33 36/36/36 61/61/61
f 61/61/61 62/62/62 33/33/33
f 23/23/23 22/22/22 63/63/63
f 63/63/63 64/64/64 23/23/23
f 63/63/63 65/65/65 66/66/66
f 66/66/66 64/64/64 63/63/63
f 30/30/30 29/29/29 67/67/67
f 67/67/67 68/68/68 30/30/30
f 69/69/69 2/2/2 1/1/1
f 1/1/1 70/70/70 69/69/69
f 71/71/71 72/72/72 69/69/69
f 69/69/69 70/70/70 71/71/71
f 68/68/68 67/67/67 73/73/73
f 73/73/73 74/74/74 68/68/68
f 8/8/8 62/62/62 61/61/61
f 61/61/61 5/5/5 8/8/8
f 75/75/75 76/76/76 77/77/77
f 77/77/77 78/78/78 75/75/75
f 79/79/79 80/80/80 81/81/81
f 82/82/82 83/83/83 84/84/84
