# e_tristan_l_exact
# Parts: 1
v -1.177180 0.152611 -3.741296
v -1.677042 0.125550 -21.650326
v -2.047831 -4.853246 -15.297091
v -0.838066 -5.562376 -9.855107
v -1.763009 4.265134 17.107294
v -1.763009 -0.641223 18.212585
v -0.019535 2.326729 25.119701
v -2.150679 4.359844 -2.733938
v -3.032302 5.633424 -14.421444
v -1.671813 0.004266 -21.596270
v -2.142464 0.170481 -2.420800
v -8.366876 3.826993 -16.940853
v -8.366876 -1.321404 -16.940853
v -7.544000 -1.331882 -4.355187
v -7.544000 2.275072 -4.355186
v -1.763009 4.265134 17.107294
v -1.262353 3.847905 6.392386
v -1.262354 0.112661 8.077835
v -1.763009 -0.641223 18.212585
v -1.631258 4.411592 -24.466904
v -2.150679 4.359844 -2.733938
v -2.142464 0.170481 -2.420800
v 1.154185 0.152611 -3.741295
v 0.815075 -5.562376 -9.855107
v 2.000744 -4.853246 -15.297091
v 1.636073 0.029393 -21.606153
v 1.715912 -0.641223 18.212585
v 1.715912 4.265134 17.107294
v 2.099483 4.359844 -2.733941
v 2.095374 0.170481 -2.420800
v 1.636073 0.029393 -21.606153
v 2.956089 5.633424 -14.421444
v 8.332910 3.826993 -16.940851
v 7.510028 2.275072 -4.355184
v 7.496908 -0.329677 -4.355184
v 8.319791 -1.321404 -16.940851
v 1.715912 4.265134 17.107294
v 1.715912 -0.641223 18.212585
v 1.215261 0.112661 8.077836
v 1.215261 3.847905 6.392387
v 1.534130 4.411592 -24.466904
v 2.095374 0.170481 -2.420800
v 2.099483 4.359844 -2.733941
v -8.366876 3.826993 -16.940853
v -7.544000 2.275072 -4.355186
v 7.510028 2.275072 -4.355184
v 8.332910 3.826993 -16.940851
v 2.099483 4.359844 -2.733941
v 2.956089 5.633424 -14.421444
v -3.032302 5.633424 -14.421444
v -2.150679 4.359844 -2.733938
v -2.047831 -4.853246 -15.297091
v 2.000744 -4.853246 -15.297091
v 0.766881 -5.562376 -9.855107
v -0.838066 -5.562376 -9.855107
v -1.177180 0.152611 -3.741296
v -0.838066 -5.562376 -9.855107
v 0.766881 -5.562376 -9.855107
v 1.105993 0.152611 -3.741295
v 1.636073 0.029393 -21.606153
v 2.000744 -4.853246 -15.297091
v -2.047831 -4.853246 -15.297091
v -1.677042 0.125550 -21.650326
v -0.019535 2.326729 25.119701
v -1.763009 -0.641223 18.212585
v 1.715912 -0.641223 18.212585
v 1.715912 4.265134 17.107294
v -1.763009 4.265134 17.107294
v -0.019535 2.326729 25.119701
v 1.534130 4.411592 -24.466904
v 1.636073 0.029393 -21.606153
v -1.671813 0.004266 -21.596270
v -1.631258 4.411592 -24.466904
v -2.142464 0.170481 -2.420800
v -1.671813 0.004266 -21.596270
v 1.636073 0.029393 -21.606153
v 2.095374 0.170481 -2.420800
v -8.366876 -1.321404 -16.940853
v 8.319791 -1.321404 -16.940851
v 7.496908 -0.329677 -4.355184
v -7.544000 -1.331882 -4.355187
v -7.544000 2.275072 -4.355186
v -7.544000 -1.331882 -4.355187
v 7.496908 -0.329677 -4.355184
v 7.510028 2.275072 -4.355184
v 8.332910 3.826993 -16.940851
v 8.319791 -1.321404 -16.940851
v -8.366876 -1.321404 -16.940853
v -8.366876 3.826993 -16.940853
v -1.262354 0.112661 8.077835
v 1.215261 0.112661 8.077836
v 1.215261 3.847905 6.392387
v -1.262353 3.847905 6.392386
v 1.534130 4.411592 -24.466904
v -1.631258 4.411592 -24.466904
v -3.032302 5.633424 -14.421444
v -2.150679 4.359844 -2.733938
vn -0.993169 -0.059273 0.100505
vn -0.993640 0.109179 0.027569
vn -0.997592 0.034109 0.060386
vn -0.951958 -0.248269 0.179271
vn -0.998250 0.011637 0.057979
vn -0.995366 0.021133 0.093808
vn 0.000979 0.219769 0.975551
vn -0.998833 -0.030433 0.037508
vn -0.969138 -0.246335 0.009499
vn -0.990185 -0.112403 -0.083059
vn -0.999283 0.005086 0.037513
vn -0.997869 -0.000000 0.065243
vn -0.997869 -0.000000 0.065243
vn -0.997869 -0.000000 0.065243
vn -0.997869 -0.000000 0.065243
vn -0.998250 0.011637 0.057979
vn -0.999202 0.011846 0.038144
vn -0.999999 0.001592 -0.000430
vn -0.995366 0.021133 0.093808
vn -0.988843 -0.074803 -0.128816
vn -0.998833 -0.030433 0.037508
vn -0.999283 0.005086 0.037513
vn 0.993373 -0.059291 0.098457
vn 0.953515 -0.244710 0.175859
vn 0.997716 0.034056 0.058338
vn 0.996820 -0.052886 -0.059606
vn 0.995418 0.021015 0.093284
vn 0.998274 0.011548 0.057585
vn 0.998889 -0.028640 0.037429
vn 0.999273 0.005955 0.037664
vn 0.996820 -0.052886 -0.059606
vn 0.970975 -0.239046 0.008061
vn 0.997859 -0.002879 0.065332
vn 0.997897 -0.005026 0.064625
vn 0.997887 -0.004429 0.064822
vn 0.997859 -0.002879 0.065332
vn 0.998274 0.011548 0.057585
vn 0.995418 0.021015 0.093284
vn 0.999999 0.001592 -0.000429
vn 0.999202 0.011978 0.038090
vn 0.989180 -0.063365 -0.132314
vn 0.999273 0.005955 0.037664
vn 0.998889 -0.028640 0.037429
vn -0.000000 0.992483 0.122382
vn -0.000000 0.992483 0.122382
vn -0.000000 0.992483 0.122382
vn -0.000000 0.992483 0.122382
vn 0.000000 0.996498 0.083616
vn 0.000000 0.999993 -0.003615
vn 0.000000 0.999993 -0.003615
vn 0.000000 0.996498 0.083616
vn 0.000000 -0.991617 -0.129215
vn 0.000000 -0.991617 -0.129215
vn 0.000000 -0.991617 -0.129215
vn 0.000000 -0.991617 -0.129215
vn -0.000000 -0.730533 0.682878
vn -0.000000 -0.730533 0.682878
vn -0.000000 -0.730533 0.682878
vn -0.000000 -0.730533 0.682878
vn -0.004574 -0.679636 -0.733535
vn -0.000000 -0.790833 -0.612032
vn -0.003703 -0.789780 -0.613379
vn -0.014600 -0.786604 -0.617285
vn 0.000000 -0.918771 0.394791
vn 0.000000 -0.988692 0.149963
vn 0.000000 -0.988692 0.149963
vn 0.000000 0.995819 0.091351
vn 0.000000 0.995819 0.091351
vn 0.000000 0.971961 0.235142
vn 0.000588 -0.546073 -0.837737
vn -0.004574 -0.679636 -0.733535
vn 0.000588 -0.546073 -0.837737
vn 0.000000 -0.545773 -0.837933
vn 0.000427 -0.999999 0.001133
vn 0.007622 -0.999932 0.008855
vn 0.006576 -0.999941 0.008649
vn 0.000427 -0.999999 0.001133
vn 0.036904 -0.998800 0.032187
vn -0.000000 -0.996910 0.078555
vn 0.027297 -0.998646 0.044284
vn 0.066484 -0.997774 -0.005177
vn -0.000000 -0.000000 1.000000
vn -0.000000 -0.000000 1.000000
vn -0.000000 -0.000000 1.000000
vn -0.000000 -0.000000 1.000000
vn 0.000000 -0.000000 -1.000000
vn 0.000000 -0.000000 -1.000000
vn 0.000000 -0.000000 -1.000000
vn 0.000000 -0.000000 -1.000000
vn 0.000000 -0.999219 -0.039507
vn 0.000000 -0.999219 -0.039507
vn 0.000000 0.999957 0.009278
vn 0.000000 0.999957 0.009278
vn 0.000000 0.992684 -0.120740
vn 0.000000 0.992684 -0.120740
vn 0.000000 0.999993 -0.003615
vn 0.000000 0.996498 0.083616
vt 0.378177 0.014657
vt 0.051176 0.022226
vt 0.148411 0.110441
vt 0.255638 0.122749
vt 0.899232 0.868335
vt 0.946147 0.959539
vt 0.963159 0.917411
vt 0.984016 0.642343
vt 0.766251 0.614905
vt 0.650908 0.740936
vt 0.985559 0.711350
vt 0.984708 0.535313
vt 0.984709 0.366559
vt 0.575515 0.391155
vt 0.575514 0.497999
vt 0.901550 0.869080
vt 0.637074 0.884000
vt 0.681603 0.973655
vt 0.951059 0.979563
vt 0.591758 0.645256
vt 0.613440 0.885655
vt 0.613979 0.972800
vt 0.378177 0.014657
vt 0.255638 0.122749
vt 0.148411 0.110441
vt 0.051176 0.022226
vt 0.946147 0.959539
vt 0.899232 0.868335
vt 0.984016 0.642343
vt 0.985559 0.711350
vt 0.650908 0.740936
vt 0.766251 0.614905
vt 0.984708 0.535313
vt 0.575514 0.497999
vt 0.575515 0.391155
vt 0.984709 0.366559
vt 0.901550 0.869080
vt 0.951059 0.979563
vt 0.680189 0.973653
vt 0.635641 0.884000
vt 0.591758 0.645256
vt 0.612587 0.972796
vt 0.612007 0.885655
vt 0.022874 0.357037
vt 0.038033 0.610141
vt 0.323951 0.610141
vt 0.339109 0.357041
vt 0.595303 0.225479
vt 0.789874 0.240798
vt 0.789864 0.145170
vt 0.595357 0.161406
vt 0.846905 0.126223
vt 0.846906 0.008314
vt 0.677215 0.043756
vt 0.677215 0.090778
vt 0.476033 0.100712
vt 0.677215 0.090778
vt 0.677215 0.043756
vt 0.476033 0.033819
vt 0.994097 0.018155
vt 0.846906 0.008314
vt 0.846905 0.126223
vt 0.996206 0.115361
vt 0.913584 0.306912
vt 0.827510 0.274608
vt 0.828161 0.338614
vt 0.148718 0.218647
vt 0.148462 0.154896
vt 0.005709 0.186669
vt 0.706688 0.764089
vt 0.566154 0.759969
vt 0.566154 0.855845
vt 0.706688 0.854657
vt 0.361677 0.268113
vt 0.010000 0.276771
vt 0.010000 0.337053
vt 0.361677 0.345735
vt 0.022874 0.891164
vt 0.329816 0.891164
vt 0.314658 0.638059
vt 0.038033 0.638059
vt 0.699315 0.528318
vt 0.699315 0.594406
vt 0.975940 0.594406
vt 0.975940 0.528318
vt 0.502473 0.415184
vt 0.363760 0.415183
vt 0.363758 0.823081
vt 0.502471 0.823081
vt 0.583854 0.284314
vt 0.583853 0.329510
vt 0.367934 0.209267
vt 0.367934 0.164070
vt 0.965102 0.214219
vt 0.965102 0.157275
vt 0.789863 0.131618
vt 0.595303 0.147858
g part_0_s36_desc
f 1/1/1 2/2/2 3/3/3
f 3/3/3 4/4/4 1/1/1
f 5/5/5 6/6/6 7/7/7
f 8/8/8 9/9/9 10/10/10
f 10/10/10 11/11/11 8/8/8
f 12/12/12 13/13/13 14/14/14
f 14/14/14 15/15/15 12/12/12
f 16/16/16 17/17/17 18/18/18
f 18/18/18 19/19/19 16/16/16
f 9/9/9 20/20/20 10/10/10
f 17/17/17 21/21/21 22/22/22
f 22/22/22 18/18/18 17/17/17
f 23/23/23 24/24/24 25/25/25
f 25/25/25 26/26/26 23/23/23
f 27/27/27 28/28/28 7/7/7
f 29/29/29 30/30/30 31/31/31
f 31/31/31 32/32/32 29/29/29
f 33/33/33 34/34/34 35/35/35
f 35/35/35 36/36/36 33/33/33
f 37/37/37 38/38/38 39/39/39
f 39/39/39 40/40/40 37/37/37
f 41/41/41 32/32/32 31/31/31
f 40/40/40 39/39/39 42/42/42
f 42/42/42 43/43/43 40/40/40
f 44/44/44 45/45/45 46/46/46
f 46/46/46 47/47/47 44/44/44
f 48/48/48 49/49/49 50/50/50
f 50/50/50 51/51/51 48/48/48
f 52/52/52 53/53/53 54/54/54
f 54/54/54 55/55/55 52/52/52
f 56/56/56 57/57/57 58/58/58
f 58/58/58 59/59/59 56/56/56
f 60/60/60 61/61/61 62/62/62
f 62/62/62 63/63/63 60/60/60
f 64/64/64 65/65/65 66/66/66
f 67/67/67 68/68/68 69/69/69
f 70/70/70 71/71/71 72/72/72
f 72/72/72 73/73/73 70/70/70
f 74/74/74 75/75/75 76/76/76
f 76/76/76 77/77/77 74/74/74
f 78/78/78 79/79/79 80/80/80
f 80/80/80 81/81/81 78/78/78
f 82/82/82 83/83/83 84/84/84
f 84/84/84 85/85/85 82/82/82
f 86/86/86 87/87/87 88/88/88
f 88/88/88 89/89/89 86/86/86
f 65/65/65 90/90/90 91/91/91
f 91/91/91 66/66/66 65/65/65
f 67/67/67 92/92/92 93/93/93
f 93/93/93 68/68/68 67/67/67
f 49/49/49 94/94/94 95/95/95
f 95/95/95 96/96/96 49/49/49
f 90/90/90 74/74/74 77/77/77
f 77/77/77 91/91/91 90/90/90
f 92/92/92 48/48/48 97/97/97
f 97/97/97 93/93/93 92/92/92
