# f_riogrande_l
# Parts: 1
v -0.854434 3.855475 15.403562
v -0.854434 2.266233 11.596932
v -0.854435 1.578042 16.624567
v -1.502394 2.865420 7.011009
v -1.502394 2.109966 3.598310
v -1.502394 -2.467426 3.511799
v -1.502394 3.695958 0.069711
v -1.368582 3.652899 -30.451328
v -1.368582 -3.687768 -30.451328
v -1.502394 -3.713401 0.069711
v -1.009981 -1.719597 21.245476
v -1.009983 -1.719597 30.942980
v -1.009983 1.826341 30.942980
v -1.009981 1.826341 21.245476
v -1.502396 -2.810213 15.320539
v -1.009981 -1.152003 21.288204
v -1.009981 1.001101 21.219330
v 1.079684 2.266233 11.596933
v 1.079683 3.855475 15.403562
v 1.079683 1.578042 16.624571
v 1.650790 2.109967 3.598311
v 1.650789 2.865420 7.011009
v 1.650790 -2.467426 3.511800
v 1.650791 3.695958 0.069712
v 1.650791 -3.713401 0.069712
v 1.516991 -3.687768 -30.451324
v 1.516990 3.652899 -30.451324
v 1.158372 -1.719597 21.245474
v 1.158371 1.826341 21.245474
v 1.158370 1.826341 30.942980
v 1.158370 -1.719597 30.942980
v 1.158372 -1.152003 21.288204
v 1.650788 -2.810213 15.320540
v 1.158371 1.001101 21.219328
v -0.854434 3.855475 15.403562
v 1.079683 3.855475 15.403562
v 1.079684 2.266233 11.596933
v -0.854434 2.266233 11.596932
v -0.854435 1.578042 16.624567
v 1.079683 1.578042 16.624571
v 1.079683 3.855475 15.403562
v -0.854434 3.855475 15.403562
v 1.650789 2.865420 7.011009
v 1.650790 2.109967 3.598311
v -1.502394 2.109966 3.598310
v -1.502394 2.865420 7.011009
v -1.009983 1.826341 30.942980
v -1.009983 -1.719597 30.942980
v 1.158370 -1.719597 30.942980
v 1.158370 1.826341 30.942980
v 1.516990 3.652899 -30.451324
v 1.516991 -3.687768 -30.451324
v -1.368582 -3.687768 -30.451328
v -1.368582 3.652899 -30.451328
v -1.502394 -3.713401 0.069711
v -1.368582 -3.687768 -30.451328
v 1.516991 -3.687768 -30.451324
v 1.650791 -3.713401 0.069712
v -1.502394 -2.467426 3.511799
v 1.650790 -2.467426 3.511800
v 1.158372 -1.719597 21.245474
v 1.158370 -1.719597 30.942980
v -1.009983 -1.719597 30.942980
v -1.009981 -1.719597 21.245476
v 1.650788 -2.810213 15.320540
v 1.158372 -1.152003 21.288204
v -1.009981 -1.152003 21.288204
v -1.502396 -2.810213 15.320539
v 1.650791 3.695958 0.069712
v 1.516990 3.652899 -30.451324
v -1.368582 3.652899 -30.451328
v -1.502394 3.695958 0.069711
v -1.009981 1.826341 21.245476
v -1.009983 1.826341 30.942980
v 1.158370 1.826341 30.942980
v 1.158371 1.826341 21.245474
v 1.158371 1.001101 21.219328
v -1.009981 1.001101 21.219330
v -1.009981 -1.719597 21.245476
v -1.009981 1.826341 21.245476
v 1.158371 1.826341 21.245474
v 1.158372 -1.719597 21.245474
vn -1.000000 -0.000000 -0.000000
vn -1.000000 -0.000000 -0.000000
vn -1.000000 -0.000000 -0.000000
vn -0.999619 -0.015140 0.023073
vn -1.000000 -0.000000 -0.000000
vn -0.999967 0.003076 0.007451
vn -0.999997 -0.000000 -0.002532
vn -0.999990 -0.000000 -0.004384
vn -0.999990 -0.000000 -0.004384
vn -0.999997 -0.000000 -0.002532
vn -1.000000 -0.000000 -0.000000
vn -1.000000 -0.000000 -0.000000
vn -1.000000 -0.000000 -0.000000
vn -1.000000 -0.000000 -0.000000
vn -0.993857 0.110036 0.011868
vn -0.996669 0.002608 0.081514
vn -0.998169 0.024696 0.055214
vn 1.000000 0.000000 0.000000
vn 1.000000 0.000000 0.000000
vn 1.000000 0.000000 0.000000
vn 1.000000 0.000000 0.000000
vn 0.999619 -0.015140 0.023073
vn 0.999967 0.003076 0.007452
vn 0.999997 0.000000 -0.002531
vn 0.999997 0.000000 -0.002531
vn 0.999990 0.000000 -0.004384
vn 0.999990 0.000000 -0.004384
vn 1.000000 0.000000 0.000000
vn 1.000000 0.000000 0.000000
vn 1.000000 0.000000 0.000000
vn 1.000000 0.000000 0.000000
vn 0.996669 0.002608 0.081515
vn 0.993857 0.110036 0.011868
vn 0.998169 0.024696 0.055215
vn 0.000000 0.922806 -0.385265
vn 0.000000 0.922806 -0.385265
vn 0.000000 0.922806 -0.385265
vn 0.000000 0.922806 -0.385265
vn -0.000001 0.472508 0.881326
vn -0.000001 0.472508 0.881326
vn -0.000001 0.472508 0.881326
vn -0.000001 0.472508 0.881326
vn -0.000000 0.998959 -0.045621
vn -0.000000 0.994774 0.102101
vn -0.000000 0.994774 0.102101
vn -0.000000 0.998959 -0.045621
vn 0.000000 0.000000 1.000000
vn 0.000000 0.000000 1.000000
vn 0.000000 0.000000 1.000000
vn 0.000000 0.000000 1.000000
vn 0.000001 0.000000 -1.000000
vn 0.000001 0.000000 -1.000000
vn 0.000001 0.000000 -1.000000
vn 0.000001 0.000000 -1.000000
vn -0.000000 -0.984990 0.172612
vn -0.000000 -1.000000 -0.000840
vn -0.000000 -1.000000 -0.000840
vn -0.000000 -0.984990 0.172612
vn -0.000000 -0.987363 0.158474
vn -0.000000 -0.987363 0.158474
vn -0.000000 -1.000000 -0.000000
vn -0.000000 -1.000000 -0.000000
vn -0.000000 -1.000000 -0.000000
vn -0.000000 -1.000000 -0.000000
vn -0.000000 -0.993153 0.116821
vn 0.000000 -0.963496 0.267723
vn 0.000000 -0.963496 0.267723
vn -0.000000 -0.993153 0.116821
vn -0.000000 0.977864 0.209243
vn 0.000000 0.999999 -0.001411
vn 0.000000 0.999999 -0.001411
vn -0.000000 0.977864 0.209243
vn -0.000000 1.000000 -0.000000
vn -0.000000 1.000000 -0.000000
vn -0.000000 1.000000 -0.000000
vn -0.000000 1.000000 -0.000000
vn 0.000000 0.991501 0.130098
vn 0.000000 0.991501 0.130098
vn 0.000001 0.000000 -1.000000
vn 0.000001 0.000000 -1.000000
vn 0.000001 0.000000 -1.000000
vn 0.000001 0.000000 -1.000000
vt 0.412077 0.563502
vt 0.479753 0.528554
vt 0.384980 0.527619
vt 0.721393 0.024423
vt 0.657551 0.037270
vt 0.655933 0.115115
vt 0.591541 0.010298
vt 0.012947 0.011030
vt 0.012947 0.135868
vt 0.591541 0.136304
vt 0.018261 0.761488
vt 0.392448 0.761488
vt 0.392448 0.633861
vt 0.018261 0.633861
vt 0.876744 0.120944
vt 0.988665 0.092744
vt 0.987284 0.056128
vt 0.479753 0.528554
vt 0.412077 0.563502
vt 0.384980 0.527619
vt 0.657551 0.037270
vt 0.721393 0.024423
vt 0.655933 0.115115
vt 0.591541 0.010298
vt 0.591541 0.136304
vt 0.012947 0.135868
vt 0.012947 0.011030
vt 0.018261 0.761488
vt 0.018261 0.633861
vt 0.392448 0.633861
vt 0.392448 0.761488
vt 0.988665 0.092744
vt 0.876744 0.120944
vt 0.987284 0.056128
vt 0.010175 0.521982
vt 0.010175 0.559602
vt 0.086342 0.559602
vt 0.086342 0.521982
vt 0.760012 0.839514
vt 0.760012 0.877133
vt 0.804977 0.877133
vt 0.804977 0.839514
vt 0.274939 0.423637
vt 0.340060 0.423637
vt 0.340060 0.364651
vt 0.274939 0.364651
vt 0.414632 0.913316
vt 0.287006 0.913316
vt 0.287006 0.990580
vt 0.414632 0.990580
vt 0.659557 0.573613
vt 0.936235 0.573613
vt 0.936235 0.453976
vt 0.659557 0.453976
vt 0.591386 0.238078
vt 0.012797 0.240582
vt 0.012797 0.294562
vt 0.591386 0.297065
vt 0.659175 0.238078
vt 0.659175 0.297065
vt 0.017747 0.882013
vt 0.391934 0.882013
vt 0.391934 0.804749
vt 0.017747 0.804749
vt 0.880158 0.297065
vt 0.995302 0.287853
vt 0.995302 0.247290
vt 0.880158 0.238078
vt 0.411369 0.423637
vt 0.989958 0.421134
vt 0.989958 0.367154
vt 0.411369 0.364651
vt 0.810134 0.632220
vt 0.435947 0.632220
vt 0.435947 0.709484
vt 0.810134 0.709484
vt 0.007261 0.414426
vt 0.007261 0.373862
vt 0.568823 0.527656
vt 0.501819 0.527656
vt 0.501819 0.568219
vt 0.568823 0.568219
g part_0_s36_desc
f 1/1/1 2/2/2 3/3/3
f 4/4/4 5/5/5 6/6/6
f 7/7/7 8/8/8 9/9/9
f 9/9/9 10/10/10 7/7/7
f 5/5/5 7/7/7 10/10/10
f 10/10/10 6/6/6 5/5/5
f 11/11/11 12/12/12 13/13/13
f 13/13/13 14/14/14 11/11/11
f 15/15/15 16/16/16 17/17/17
f 6/6/6 15/15/15 17/17/17
f 17/17/17 4/4/4 6/6/6
f 18/18/18 19/19/19 20/20/20
f 21/21/21 22/22/22 23/23/23
f 24/24/24 25/25/25 26/26/26
f 26/26/26 27/27/27 24/24/24
f 21/21/21 23/23/23 25/25/25
f 25/25/25 24/24/24 21/21/21
f 28/28/28 29/29/29 30/30/30
f 30/30/30 31/31/31 28/28/28
f 32/32/32 33/33/33 34/34/34
f 23/23/23 22/22/22 34/34/34
f 34/34/34 33/33/33 23/23/23
f 35/35/35 36/36/36 37/37/37
f 37/37/37 38/38/38 35/35/35
f 39/39/39 40/40/40 41/41/41
f 41/41/41 42/42/42 39/39/39
f 43/43/43 44/44/44 45/45/45
f 45/45/45 46/46/46 43/43/43
f 47/47/47 48/48/48 49/49/49
f 49/49/49 50/50/50 47/47/47
f 51/51/51 52/52/52 53/53/53
f 53/53/53 54/54/54 51/51/51
f 55/55/55 56/56/56 57/57/57
f 57/57/57 58/58/58 55/55/55
f 59/59/59 55/55/55 58/58/58
f 58/58/58 60/60/60 59/59/59
f 61/61/61 62/62/62 63/63/63
f 63/63/63 64/64/64 61/61/61
f 65/65/65 66/66/66 67/67/67
f 67/67/67 68/68/68 65/65/65
f 69/69/69 70/70/70 71/71/71
f 71/71/71 72/72/72 69/69/69
f 44/44/44 69/69/69 72/72/72
f 72/72/72 45/45/45 44/44/44
f 73/73/73 74/74/74 75/75/75
f 75/75/75 76/76/76 73/73/73
f 68/68/68 59/59/59 60/60/60
f 60/60/60 65/65/65 68/68/68
f 77/77/77 43/43/43 46/46/46
f 46/46/46 78/78/78 77/77/77
f 79/79/79 80/80/80 81/81/81
f 81/81/81 82/82/82 79/79/79
