# f_pergamon_l
# Parts: 1
v -0.902783 3.840241 17.707022
v -0.776416 2.276148 14.064978
v -0.902783 1.526734 18.934538
v -1.440015 2.812753 11.640027
v -1.440015 -2.345861 13.100155
v -1.434242 -2.449646 17.375702
v -1.267432 1.717178 18.765913
v -1.510608 3.301492 2.079281
v -1.491626 3.254225 -28.774937
v -1.491626 -3.443314 -28.774937
v -1.510608 -3.396046 2.079281
v -1.510609 2.123297 5.399747
v -1.510608 -2.308887 5.399748
v -0.828085 -0.962517 23.391104
v -0.828085 0.912291 23.391100
v -0.828085 -1.734365 23.266249
v -0.828086 -1.734365 28.666784
v -0.828086 1.872615 28.666784
v -0.828085 1.872615 23.266247
v 0.776414 2.276148 14.064979
v 0.902780 3.840242 17.707022
v 0.902779 1.526734 18.934538
v 1.440013 2.812753 11.640029
v 1.318027 1.717177 18.765915
v 1.460253 -2.449646 17.375702
v 1.440013 -2.345861 13.100156
v 1.510610 3.301492 2.079282
v 1.510610 -3.396046 2.079282
v 1.491640 -3.443314 -28.774937
v 1.491640 3.254225 -28.774937
v 1.510610 2.123297 5.399748
v 1.510610 -2.308887 5.399748
v 0.864460 -0.962517 23.391104
v 0.864460 0.912290 23.391104
v 0.864460 -1.734366 23.266249
v 0.864460 1.872615 23.266249
v 0.864459 1.872615 28.666786
v 0.864459 -1.734365 28.666784
v -0.902783 3.840241 17.707022
v 0.902780 3.840242 17.707022
v 0.776414 2.276148 14.064979
v -0.776416 2.276148 14.064978
v -0.902783 1.526734 18.934538
v 0.902779 1.526734 18.934538
v 0.902780 3.840242 17.707022
v -0.902783 3.840241 17.707022
v -1.434242 -2.449646 17.375702
v -1.440015 -2.345861 13.100155
v 1.440013 -2.345861 13.100156
v 1.460253 -2.449646 17.375702
v -1.491626 3.254225 -28.774937
v 1.491640 3.254225 -28.774937
v 1.491640 -3.443314 -28.774937
v -1.491626 -3.443314 -28.774937
v -1.491626 3.254225 -28.774937
v -1.510608 3.301492 2.079281
v 1.510610 3.301492 2.079282
v 1.491640 3.254225 -28.774937
v -1.510608 -3.396046 2.079281
v -1.491626 -3.443314 -28.774937
v 1.491640 -3.443314 -28.774937
v 1.510610 -3.396046 2.079282
v -1.440015 2.812753 11.640027
v -1.267432 1.717178 18.765913
v 1.318027 1.717177 18.765915
v 1.440013 2.812753 11.640029
v -1.510608 -2.308887 5.399748
v 1.510610 -2.308887 5.399748
v 1.510610 2.123297 5.399748
v -1.510609 2.123297 5.399747
v 0.864460 -0.962517 23.391104
v -0.828085 -0.962517 23.391104
v -0.828085 0.912291 23.391100
v 0.864460 0.912290 23.391104
v -0.828086 -1.734365 28.666784
v 0.864459 -1.734365 28.666784
v 0.864459 1.872615 28.666786
v -0.828086 1.872615 28.666784
v 0.864460 -1.734366 23.266249
v 0.864459 -1.734365 28.666784
v -0.828086 -1.734365 28.666784
v -0.828085 -1.734365 23.266249
v -0.828085 1.872615 23.266247
v -0.828086 1.872615 28.666784
v 0.864459 1.872615 28.666786
v 0.864460 1.872615 23.266249
vn -0.999489 -0.014986 -0.028243
vn -0.999489 -0.014986 -0.028243
vn -0.999489 -0.014986 -0.028243
vn -0.999885 0.008172 0.012795
vn -0.999987 0.000983 0.004985
vn -0.998814 0.014700 0.046413
vn -0.997620 0.016680 0.066907
vn -1.000000 -0.000000 -0.000345
vn -1.000000 -0.000000 -0.000345
vn -1.000000 -0.000000 -0.000345
vn -1.000000 -0.000000 -0.000345
vn -0.999987 0.000983 0.004985
vn -0.999991 -0.000000 0.004171
vn -0.995353 0.002934 0.096248
vn -0.995519 -0.000000 0.094564
vn -1.000000 -0.000000 -0.000345
vn -1.000000 -0.000000 -0.000345
vn -1.000000 -0.000000 -0.000345
vn -1.000000 -0.000000 -0.000345
vn 0.999489 -0.014985 -0.028243
vn 0.999489 -0.014985 -0.028243
vn 0.999489 -0.014985 -0.028243
vn 0.999924 0.007152 0.010060
vn 0.997888 0.012645 0.063713
vn 0.999068 0.010901 0.041752
vn 0.999999 -0.000043 0.001359
vn 1.000000 0.000000 -0.000345
vn 1.000000 0.000000 -0.000345
vn 1.000000 0.000000 -0.000345
vn 1.000000 0.000000 -0.000345
vn 0.999989 0.000550 0.004608
vn 0.999991 0.000000 0.004171
vn 0.995198 0.000498 0.097882
vn 0.995198 0.000498 0.097882
vn 1.000000 0.000000 -0.000345
vn 1.000000 0.000000 -0.000345
vn 1.000000 0.000000 -0.000345
vn 1.000000 0.000000 -0.000345
vn 0.000000 0.918851 -0.394605
vn 0.000000 0.918851 -0.394605
vn 0.000000 0.918851 -0.394605
vn 0.000000 0.918851 -0.394605
vn -0.000000 0.468698 0.883358
vn -0.000000 0.468698 0.883358
vn -0.000000 0.468698 0.883358
vn -0.000000 0.468698 0.883358
vn 0.000000 -0.994525 0.104501
vn 0.000000 -0.999895 -0.014502
vn 0.000000 -0.999895 -0.014502
vn 0.000000 -0.994525 0.104501
vn 0.000000 0.000000 -1.000000
vn 0.000000 0.000000 -1.000000
vn 0.000000 0.000000 -1.000000
vn 0.000000 0.000000 -1.000000
vn -0.000000 0.999999 -0.001532
vn -0.000000 0.985627 0.168939
vn -0.000000 0.985627 0.168939
vn -0.000000 0.999999 -0.001532
vn -0.000000 -0.987386 0.158334
vn 0.000000 -0.999999 0.001532
vn 0.000000 -0.999999 0.001532
vn -0.000000 -0.987386 0.158334
vn -0.000000 0.999804 0.019770
vn 0.000000 0.986899 0.161339
vn 0.000000 0.986899 0.161339
vn -0.000000 0.999804 0.019770
vn -0.000000 -0.987813 0.155644
vn -0.000000 -0.987813 0.155644
vn -0.000000 0.993246 0.116028
vn -0.000000 0.993246 0.116028
vn -0.000000 -0.970774 0.239995
vn -0.000000 -0.970774 0.239995
vn -0.000000 0.985193 0.171446
vn -0.000000 0.985193 0.171446
vn -0.000000 -0.000000 1.000000
vn -0.000000 -0.000000 1.000000
vn -0.000000 -0.000000 1.000000
vn -0.000000 -0.000000 1.000000
vn -0.000000 -1.000000 0.000000
vn -0.000000 -1.000000 0.000000
vn -0.000000 -1.000000 0.000000
vn -0.000000 -1.000000 0.000000
vn 0.000000 1.000000 0.000000
vn 0.000000 1.000000 0.000000
vn 0.000000 1.000000 0.000000
vn 0.000000 1.000000 0.000000
vt 0.503581 0.846698
vt 0.439561 0.884251
vt 0.531766 0.886800
vt 0.768876 0.094208
vt 0.796203 0.190754
vt 0.876180 0.192696
vt 0.902290 0.114711
vt 0.589932 0.085061
vt 0.012478 0.085945
vt 0.012478 0.211293
vt 0.589932 0.210409
vt 0.652077 0.107111
vt 0.652077 0.190062
vt 0.989287 0.164863
vt 0.989287 0.129775
vt 0.634290 0.955757
vt 0.952349 0.955757
vt 0.952349 0.743327
vt 0.634290 0.743327
vt 0.439561 0.884251
vt 0.503581 0.846698
vt 0.531766 0.886800
vt 0.768876 0.094208
vt 0.902290 0.114711
vt 0.876180 0.192696
vt 0.796203 0.190754
vt 0.589932 0.085061
vt 0.589932 0.210409
vt 0.012478 0.211293
vt 0.012478 0.085945
vt 0.652077 0.107111
vt 0.652077 0.190062
vt 0.989287 0.164863
vt 0.989287 0.129775
vt 0.634290 0.955757
vt 0.634290 0.743327
vt 0.952349 0.743327
vt 0.952349 0.955757
vt 0.558305 0.713854
vt 0.558305 0.747646
vt 0.632488 0.745281
vt 0.632488 0.716219
vt 0.131678 0.691171
vt 0.131678 0.724963
vt 0.180694 0.724963
vt 0.180694 0.691171
vt 0.893144 0.465390
vt 0.813101 0.465281
vt 0.813100 0.500626
vt 0.893142 0.501493
vt 0.415364 0.783909
vt 0.532854 0.783911
vt 0.532857 0.520142
vt 0.415367 0.520141
vt 1.002265 0.322869
vt 0.424811 0.322512
vt 0.424811 0.379056
vt 1.002265 0.378703
vt 0.503851 0.463959
vt 0.016857 0.464315
vt 0.016857 0.501592
vt 0.503851 0.501947
vt 0.241367 0.323835
vt 0.106435 0.327071
vt 0.106437 0.376406
vt 0.241369 0.377736
vt 0.668981 0.463959
vt 0.668981 0.501947
vt 0.358869 0.379056
vt 0.358869 0.322512
vt 1.009114 0.490541
vt 1.009115 0.476739
vt 0.018571 0.335297
vt 0.018573 0.367655
vt 0.696997 0.520897
vt 0.696997 0.648972
vt 0.964189 0.648972
vt 0.964189 0.520897
vt 0.165446 0.628805
vt 0.266520 0.628805
vt 0.266520 0.596447
vt 0.165446 0.596447
vt 0.378755 0.731563
vt 0.277681 0.731563
vt 0.277681 0.763921
vt 0.378755 0.763921
g part_0_s36_desc
f 1/1/1 2/2/2 3/3/3
f 4/4/4 5/5/5 6/6/6
f 6/6/6 7/7/7 4/4/4
f 8/8/8 9/9/9 10/10/10
f 10/10/10 11/11/11 8/8/8
f 12/12/12 8/8/8 11/11/11
f 11/11/11 13/13/13 12/12/12
f 12/12/12 13/13/13 5/5/5
f 5/5/5 4/4/4 12/12/12
f 14/14/14 15/15/15 7/7/7
f 7/7/7 6/6/6 14/14/14
f 16/16/16 17/17/17 18/18/18
f 18/18/18 19/19/19 16/16/16
f 20/20/20 21/21/21 22/22/22
f 23/23/23 24/24/24 25/25/25
f 25/25/25 26/26/26 23/23/23
f 27/27/27 28/28/28 29/29/29
f 29/29/29 30/30/30 27/27/27
f 31/31/31 32/32/32 28/28/28
f 28/28/28 27/27/27 31/31/31
f 31/31/31 23/23/23 26/26/26
f 26/26/26 32/32/32 31/31/31
f 33/33/33 25/25/25 24/24/24
f 24/24/24 34/34/34 33/33/33
f 35/35/35 36/36/36 37/37/37
f 37/37/37 38/38/38 35/35/35
f 39/39/39 40/40/40 41/41/41
f 41/41/41 42/42/42 39/39/39
f 43/43/43 44/44/44 45/45/45
f 45/45/45 46/46/46 43/43/43
f 47/47/47 48/48/48 49/49/49
f 49/49/49 50/50/50 47/47/47
f 51/51/51 52/52/52 53/53/53
f 53/53/53 54/54/54 51/51/51
f 55/55/55 56/56/56 57/57/57
f 57/57/57 58/58/58 55/55/55
f 59/59/59 60/60/60 61/61/61
f 61/61/61 62/62/62 59/59/59
f 63/63/63 64/64/64 65/65/65
f 65/65/65 66/66/66 63/63/63
f 67/67/67 59/59/59 62/62/62
f 62/62/62 68/68/68 67/67/67
f 69/69/69 57/57/57 56/56/56
f 56/56/56 70/70/70 69/69/69
f 48/48/48 67/67/67 68/68/68
f 68/68/68 49/49/49 48/48/48
f 50/50/50 71/71/71 72/72/72
f 72/72/72 47/47/47 50/50/50
f 64/64/64 73/73/73 74/74/74
f 74/74/74 65/65/65 64/64/64
f 66/66/66 69/69/69 70/70/70
f 70/70/70 63/63/63 66/66/66
f 75/75/75 76/76/76 77/77/77
f 77/77/77 78/78/78 75/75/75
f 79/79/79 80/80/80 81/81/81
f 81/81/81 82/82/82 79/79/79
f 83/83/83 84/84/84 85/85/85
f 85/85/85 86/86/86 83/83/83
