# e_forseti_l
# Parts: 1
v -1.667744 3.569600 18.960533
v -1.667740 3.342038 -6.143631
v -1.667740 -0.957774 -7.402304
v -1.667744 -0.983503 19.018650
v -3.743659 0.099025 -13.128694
v -1.972864 -6.185017 -9.780234
v -5.453908 1.091532 -19.633741
v -2.317559 -5.331530 -19.112986
v -5.798486 2.985294 -26.866259
v -5.798486 -0.462837 -26.921841
v -1.268977 5.724523 -16.477154
v -1.243651 5.485560 -26.558825
v 1.824722 3.569600 18.960535
v 1.824721 -0.983503 19.018650
v 1.824726 -0.957774 -7.402303
v 1.824726 3.342038 -6.143631
v 2.129852 -6.185017 -9.780233
v 3.930281 0.099025 -13.128693
v 2.474549 -5.331530 -19.112986
v 5.640532 1.091532 -19.633739
v 5.955478 -0.462837 -26.921841
v 5.955478 2.985294 -26.866257
v 1.425966 5.724523 -16.477150
v 1.400643 5.485560 -26.558825
v -1.667744 3.569600 18.960533
v -1.667744 -0.983503 19.018650
v 1.824721 -0.983503 19.018650
v 1.824722 3.569600 18.960535
v -5.798486 2.985294 -26.866259
v 5.955478 2.985294 -26.866257
v 5.955478 -0.462837 -26.921841
v -5.798486 -0.462837 -26.921841
v -1.667740 -0.957774 -7.402304
v -1.972864 -6.185017 -9.780234
v 2.129852 -6.185017 -9.780233
v 1.824726 -0.957774 -7.402303
v 1.824726 3.342038 -6.143631
v 1.425966 5.724523 -16.477150
v -1.268977 5.724523 -16.477154
v -1.667740 3.342038 -6.143631
v -1.667744 -0.983503 19.018650
v -1.667740 -0.957774 -7.402304
v 1.824726 -0.957774 -7.402303
v 1.824721 -0.983503 19.018650
v -1.972864 -6.185017 -9.780234
v -2.317559 -5.331530 -19.112986
v 2.474549 -5.331530 -19.112986
v 2.129852 -6.185017 -9.780233
v -5.798486 -0.462837 -26.921841
v 5.955478 -0.462837 -26.921841
v 1.400643 5.485560 -26.558825
v -1.243651 5.485560 -26.558825
v 1.824722 3.569600 18.960535
v -1.667744 3.569600 18.960533
v -1.243651 5.485560 -26.558825
v 1.400643 5.485560 -26.558825
vn -0.707938 0.706246 -0.006402
vn -0.705004 0.695256 0.139960
vn -0.968547 -0.069906 0.238808
vn -1.000000 -0.000000 -0.000000
vn -0.981592 0.059525 0.181479
vn -0.968557 -0.184479 0.166929
vn -0.973554 0.155140 0.167702
vn -0.921149 -0.374255 0.106853
vn -0.828075 0.531409 0.178596
vn -0.982962 -0.164702 0.081601
vn -0.442298 0.888537 0.121958
vn -0.327244 0.943082 0.059221
vn 0.707938 0.706246 -0.006402
vn 1.000000 -0.000000 0.000000
vn 0.968547 -0.069906 0.238808
vn 0.704564 0.695517 0.140873
vn 0.967626 -0.187631 0.168801
vn 0.981323 0.059413 0.182961
vn 0.919767 -0.378056 0.105369
vn 0.973841 0.154691 0.166445
vn 0.982972 -0.166393 0.077965
vn 0.828115 0.532390 0.175462
vn 0.440599 0.889395 0.121859
vn 0.326646 0.943339 0.058423
vn -0.000000 0.012763 0.999919
vn -0.000000 0.012763 0.999919
vn -0.000000 0.012763 0.999919
vn -0.000000 0.012763 0.999919
vn 0.000000 0.041937 -0.999120
vn 0.000000 0.041937 -0.999120
vn 0.000000 0.016118 -0.999870
vn 0.000000 0.016118 -0.999870
vn -0.000000 -0.414079 0.910241
vn -0.000000 -0.414079 0.910241
vn -0.000000 -0.414079 0.910241
vn -0.000000 -0.414079 0.910241
vn 0.704564 0.695517 0.140873
vn 0.440599 0.889395 0.121859
vn -0.442298 0.888537 0.121958
vn -0.705004 0.695256 0.139960
vn 0.000000 -0.999999 -0.000974
vn 0.000000 -0.999999 -0.000974
vn 0.000000 -0.999999 -0.000974
vn 0.000000 -0.999999 -0.000974
vn 0.000000 -0.995844 -0.091071
vn 0.000000 -0.938810 -0.344436
vn 0.000000 -0.938810 -0.344436
vn 0.000000 -0.995844 -0.091071
vn 0.000000 -0.848576 -0.529073
vn 0.000000 -0.848576 -0.529073
vn 0.326646 0.943339 0.058423
vn -0.327244 0.943082 0.059221
vn 0.707938 0.706246 -0.006402
vn -0.707938 0.706246 -0.006402
vn 0.000000 0.122041 -0.992525
vn 0.000000 0.122041 -0.992525
vt 0.003058 0.185001
vt 0.599513 0.185645
vt 0.622105 0.106864
vt 0.002001 0.106277
vt 0.733846 0.129811
vt 0.661398 0.017652
vt 0.855615 0.144561
vt 0.829139 0.024931
vt 0.980372 0.177041
vt 0.982845 0.119357
vt 0.781075 0.230677
vt 0.964644 0.229451
vt 0.003058 0.185001
vt 0.002001 0.106277
vt 0.622105 0.106864
vt 0.599513 0.185645
vt 0.661398 0.017652
vt 0.733846 0.129811
vt 0.829139 0.024931
vt 0.855615 0.144561
vt 0.982845 0.119357
vt 0.980372 0.177041
vt 0.781075 0.230677
vt 0.964644 0.229451
vt 0.502462 0.549208
vt 0.320737 0.549208
vt 0.320737 0.688204
vt 0.502462 0.688204
vt 0.951144 0.651965
vt 0.533643 0.651965
vt 0.533643 0.774752
vt 0.951144 0.774752
vt 0.215663 0.342376
vt 0.033347 0.346132
vt 0.033347 0.504275
vt 0.215663 0.508031
vt 0.389160 0.236356
vt 0.200803 0.250958
vt 0.200805 0.299541
vt 0.389164 0.314126
vt 0.972064 0.407639
vt 0.350755 0.407639
vt 0.350755 0.485409
vt 0.972064 0.485409
vt 0.479006 0.704628
vt 0.234551 0.695599
vt 0.234551 0.820344
vt 0.479006 0.811315
vt 0.030012 0.604422
vt 0.030012 0.911520
vt 0.017036 0.251429
vt 0.017038 0.299088
vt 0.986467 0.236327
vt 0.986471 0.314098
vt 0.788947 0.562931
vt 0.695840 0.562931
g part_0_s36_desc
f 1/1/1 2/2/2 3/3/3
f 3/3/3 4/4/4 1/1/1
f 2/2/2 5/5/5 6/6/6
f 6/6/6 3/3/3 2/2/2
f 5/5/5 7/7/7 8/8/8
f 8/8/8 6/6/6 5/5/5
f 7/7/7 9/9/9 10/10/10
f 10/10/10 8/8/8 7/7/7
f 5/5/5 11/11/11 7/7/7
f 7/7/7 11/11/11 12/12/12
f 12/12/12 9/9/9 7/7/7
f 2/2/2 11/11/11 5/5/5
f 13/13/13 14/14/14 15/15/15
f 15/15/15 16/16/16 13/13/13
f 16/16/16 15/15/15 17/17/17
f 17/17/17 18/18/18 16/16/16
f 18/18/18 17/17/17 19/19/19
f 19/19/19 20/20/20 18/18/18
f 20/20/20 19/19/19 21/21/21
f 21/21/21 22/22/22 20/20/20
f 23/23/23 18/18/18 20/20/20
f 20/20/20 22/22/22 24/24/24
f 24/24/24 23/23/23 20/20/20
f 23/23/23 16/16/16 18/18/18
f 25/25/25 26/26/26 27/27/27
f 27/27/27 28/28/28 25/25/25
f 29/29/29 30/30/30 31/31/31
f 31/31/31 32/32/32 29/29/29
f 33/33/33 34/34/34 35/35/35
f 35/35/35 36/36/36 33/33/33
f 37/37/37 38/38/38 39/39/39
f 39/39/39 40/40/40 37/37/37
f 41/41/41 42/42/42 43/43/43
f 43/43/43 44/44/44 41/41/41
f 45/45/45 46/46/46 47/47/47
f 47/47/47 48/48/48 45/45/45
f 46/46/46 49/49/49 50/50/50
f 50/50/50 47/47/47 46/46/46
f 38/38/38 51/51/51 52/52/52
f 52/52/52 39/39/39 38/38/38
f 53/53/53 37/37/37 40/40/40
f 40/40/40 54/54/54 53/53/53
f 29/29/29 55/55/55 56/56/56
f 56/56/56 30/30/30 29/29/29
