# f_ledaii_l
# Parts: 1
v -0.762089 1.004842 3.750358
v -0.719561 0.741868 -1.344759
v -0.719561 -0.806988 -1.285636
v -0.762089 -1.068669 3.750358
v -1.416550 1.353537 -4.592268
v -1.416548 1.353537 -12.042996
v -1.416548 -1.445872 -12.042996
v -1.314141 -1.445872 -3.172228
v -0.257960 -0.288036 12.126255
v -0.257960 0.372380 12.126255
v 0.746763 1.004842 3.750358
v 0.746763 -1.068670 3.750358
v 0.704237 -0.806988 -1.285636
v 0.704237 0.741868 -1.344759
v 1.401228 1.353537 -4.592268
v 1.298818 -1.445872 -3.172228
v 1.401228 -1.445872 -12.042996
v 1.401229 1.353537 -12.042996
v 0.242632 0.372380 12.126255
v 0.242632 -0.288036 12.126255
v 0.318340 2.605644 -3.742649
v 0.318339 2.842140 -3.548525
v 0.436115 0.799362 -1.523408
v 0.436115 0.799361 -1.987192
v -0.308751 2.605644 -3.742649
v -0.426417 0.799362 -1.987192
v -0.426417 0.799362 -1.523409
v -0.308751 2.842141 -3.548525
v -0.308751 2.605644 -3.742649
v 0.318340 2.605644 -3.742649
v 0.436115 0.799361 -1.987192
v -0.426417 0.799362 -1.987192
v -0.308751 2.842141 -3.548525
v 0.318339 2.842140 -3.548525
v 0.318340 2.605644 -3.742649
v -0.308751 2.605644 -3.742649
v -0.426417 0.799362 -1.523409
v 0.436115 0.799362 -1.523408
v 0.318339 2.842140 -3.548525
v -0.308751 2.842141 -3.548525
v -0.488205 2.194530 -0.145857
v 0.365734 2.194530 -0.145857
v 0.365734 0.524082 -0.668433
v -0.488205 0.524082 -0.668433
v -0.488206 1.964597 1.042282
v 0.365734 1.964597 1.042282
v 0.365734 2.194530 -0.145857
v -0.488205 2.194530 -0.145857
v -0.488205 0.524082 1.376532
v 0.365734 0.524082 1.376532
v 0.365734 1.964597 1.042282
v -0.488206 1.964597 1.042282
v -0.762089 -1.068669 3.750358
v -0.719561 -0.806988 -1.285636
v 0.704237 -0.806988 -1.285636
v 0.746763 -1.068670 3.750358
v -1.416548 1.353537 -12.042996
v 1.401229 1.353537 -12.042996
v 1.401228 -1.445872 -12.042996
v -1.416548 -1.445872 -12.042996
v -1.416550 1.353537 -4.592268
v -0.719561 0.741868 -1.344759
v 0.704237 0.741868 -1.344759
v 1.401228 1.353537 -4.592268
v -0.257960 -0.288036 12.126255
v 0.242632 -0.288036 12.126255
v 0.242632 0.372380 12.126255
v -0.257960 0.372380 12.126255
v -1.314141 -1.445872 -3.172228
v -1.416548 -1.445872 -12.042996
v 1.401228 -1.445872 -12.042996
v 1.298818 -1.445872 -3.172228
v 0.242632 -0.288036 12.126255
v -0.257960 -0.288036 12.126255
v -0.762089 1.004842 3.750358
v -0.257960 0.372380 12.126255
v 0.242632 0.372380 12.126255
v 0.746763 1.004842 3.750358
v 1.401229 1.353537 -12.042996
v -1.416548 1.353537 -12.042996
v -0.488205 2.194530 -0.145857
v -0.488205 0.524082 -0.668433
v -0.488205 0.524082 1.376532
v -0.488206 1.964597 1.042282
v 0.365734 2.194530 -0.145857
v 0.365734 1.964597 1.042282
v 0.365734 0.524082 1.376532
v 0.365734 0.524082 -0.668433
vn -0.999673 -0.000031 0.025575
vn -0.990837 0.026476 0.132445
vn -0.988006 0.005927 0.154299
vn -0.999673 -0.000031 0.025575
vn -0.997041 0.006829 0.076565
vn -1.000000 -0.000000 -0.000000
vn -0.999972 -0.007030 0.002641
vn -0.987503 0.022900 0.155929
vn -0.998194 -0.000000 0.060079
vn -0.998194 -0.000000 0.060079
vn 0.999673 -0.000031 0.025575
vn 0.999673 -0.000031 0.025575
vn 0.988006 0.005927 0.154300
vn 0.990837 0.026477 0.132446
vn 0.997041 0.006828 0.076566
vn 0.987503 0.022900 0.155929
vn 0.999972 -0.007030 0.002641
vn 1.000000 -0.000001 0.000000
vn 0.998193 0.000000 0.060080
vn 0.998193 0.000000 0.060080
vn 0.999147 0.028794 -0.029589
vn 0.999154 0.026094 -0.031787
vn 0.998200 0.059827 -0.004280
vn 0.997881 0.065066 0.000001
vn -0.999149 0.028766 -0.029563
vn -0.997885 0.065005 -0.000000
vn -0.998203 0.059770 -0.004278
vn -0.999156 0.026068 -0.031759
vn -0.000000 -0.696946 -0.717124
vn -0.000000 -0.696946 -0.717124
vn -0.000000 -0.696946 -0.717124
vn -0.000000 -0.696946 -0.717124
vn 0.000001 0.634464 -0.772952
vn 0.000001 0.634464 -0.772952
vn 0.000001 0.634464 -0.772952
vn 0.000001 0.634464 -0.772952
vn -0.000000 0.704030 0.710170
vn -0.000000 0.704030 0.710170
vn -0.000000 0.704030 0.710170
vn -0.000000 0.704030 0.710170
vn 0.000000 0.298567 -0.954389
vn 0.000000 0.298567 -0.954389
vn 0.000000 0.298567 -0.954389
vn 0.000000 0.298567 -0.954389
vn 0.000000 0.981784 0.189998
vn 0.000000 0.981784 0.189998
vn 0.000000 0.981784 0.189998
vn 0.000000 0.981784 0.189998
vn -0.000000 0.226030 0.974120
vn -0.000000 0.226030 0.974120
vn -0.000000 0.226030 0.974120
vn -0.000000 0.226030 0.974120
vn -0.000000 -0.999814 0.019293
vn -0.000000 -0.988321 0.152386
vn -0.000000 -0.988321 0.152386
vn -0.000000 -0.999814 0.019293
vn 0.000000 0.000000 -1.000000
vn 0.000000 0.000000 -1.000000
vn 0.000000 0.000000 -1.000000
vn 0.000000 0.000000 -1.000000
vn 0.000000 0.996264 0.086362
vn 0.000000 0.997234 0.074329
vn 0.000000 0.997234 0.074329
vn 0.000000 0.996264 0.086362
vn 0.000000 0.000000 1.000000
vn 0.000000 0.000000 1.000000
vn 0.000000 0.000000 1.000000
vn 0.000000 0.000000 1.000000
vn -0.000000 -0.989374 0.145391
vn 0.000000 -1.000000 -0.000000
vn 0.000000 -1.000000 -0.000000
vn -0.000000 -0.989374 0.145391
vn 0.000000 -0.995685 0.092798
vn 0.000000 -0.995685 0.092798
vn 0.000000 0.999941 0.010832
vn 0.000001 0.997161 0.075295
vn 0.000001 0.997161 0.075295
vn 0.000000 0.999941 0.010832
vn 0.000000 1.000000 0.000000
vn 0.000000 1.000000 0.000000
vn -1.000000 -0.000000 -0.000000
vn -1.000000 -0.000000 -0.000000
vn -1.000000 -0.000000 -0.000000
vn -1.000000 -0.000000 -0.000000
vn 1.000000 -0.000001 0.000000
vn 1.000000 -0.000001 0.000000
vn 1.000000 -0.000001 0.000000
vn 1.000000 -0.000001 0.000000
vt 0.657147 0.419136
vt 0.451408 0.429825
vt 0.453752 0.492251
vt 0.657147 0.502877
vt 0.317297 0.404635
vt 0.016155 0.404781
vt 0.016155 0.517840
vt 0.374168 0.517982
vt 0.996024 0.471348
vt 0.996024 0.444676
vt 0.657147 0.419136
vt 0.657147 0.502877
vt 0.453752 0.492251
vt 0.451408 0.429825
vt 0.317297 0.404635
vt 0.374168 0.517982
vt 0.016155 0.517840
vt 0.016155 0.404781
vt 0.996024 0.444676
vt 0.996024 0.471348
vt 0.741805 0.702539
vt 0.743255 0.690267
vt 0.627092 0.688409
vt 0.640063 0.701907
vt 0.672230 0.809696
vt 0.570485 0.810127
vt 0.557491 0.823617
vt 0.673655 0.821954
vt 0.146136 0.812678
vt 0.146136 0.838005
vt 0.247770 0.842761
vt 0.247770 0.807926
vt 0.620749 0.690185
vt 0.595423 0.690185
vt 0.595423 0.702542
vt 0.620749 0.702542
vt 0.284820 0.584014
vt 0.284820 0.618849
vt 0.400900 0.614092
vt 0.400900 0.588766
vt 0.283111 0.637274
vt 0.283111 0.671613
vt 0.353799 0.671613
vt 0.353799 0.637274
vt 0.145584 0.861186
vt 0.145584 0.895526
vt 0.194459 0.895526
vt 0.194459 0.861186
vt 0.418762 0.584013
vt 0.418762 0.618352
vt 0.478485 0.618352
vt 0.478485 0.584013
vt 0.651279 0.251410
vt 0.447670 0.253127
vt 0.447670 0.310648
vt 0.651280 0.312365
vt 0.982565 0.770683
vt 0.768925 0.770683
vt 0.768925 0.982897
vt 0.982565 0.982897
vt 0.688894 0.010227
vt 0.555443 0.038376
vt 0.555443 0.095896
vt 0.688894 0.124045
vt 0.284642 0.690009
vt 0.284642 0.710245
vt 0.311314 0.710245
vt 0.311314 0.690009
vt 0.367279 0.229114
vt 0.009041 0.224978
vt 0.009041 0.338797
vt 0.367279 0.334661
vt 0.990997 0.292006
vt 0.990997 0.271770
vt 0.349406 0.036658
vt 0.010174 0.057018
vt 0.010174 0.077254
vt 0.349406 0.097614
vt 0.989798 0.124045
vt 0.989798 0.010226
vt 0.167211 0.721980
vt 0.146106 0.789444
vt 0.228695 0.789444
vt 0.215195 0.731266
vt 0.167211 0.721980
vt 0.215195 0.731266
vt 0.228695 0.789444
vt 0.146106 0.789444
g part_0_s36_desc
f 1/1/1 2/2/2 3/3/3
f 3/3/3 4/4/4 1/1/1
f 5/5/5 6/6/6 7/7/7
f 7/7/7 8/8/8 5/5/5
f 2/2/2 5/5/5 8/8/8
f 8/8/8 3/3/3 2/2/2
f 4/4/4 9/9/9 10/10/10
f 10/10/10 1/1/1 4/4/4
f 11/11/11 12/12/12 13/13/13
f 13/13/13 14/14/14 11/11/11
f 15/15/15 16/16/16 17/17/17
f 17/17/17 18/18/18 15/15/15
f 14/14/14 13/13/13 16/16/16
f 16/16/16 15/15/15 14/14/14
f 12/12/12 11/11/11 19/19/19
f 19/19/19 20/20/20 12/12/12
f 21/21/21 22/22/22 23/23/23
f 23/23/23 24/24/24 21/21/21
f 25/25/25 26/26/26 27/27/27
f 27/27/27 28/28/28 25/25/25
f 29/29/29 30/30/30 31/31/31
f 31/31/31 32/32/32 29/29/29
f 33/33/33 34/34/34 35/35/35
f 35/35/35 36/36/36 33/33/33
f 37/37/37 38/38/38 39/39/39
f 39/39/39 40/40/40 37/37/37
f 41/41/41 42/42/42 43/43/43
f 43/43/43 44/44/44 41/41/41
f 45/45/45 46/46/46 47/47/47
f 47/47/47 48/48/48 45/45/45
f 49/49/49 50/50/50 51/51/51
f 51/51/51 52/52/52 49/49/49
f 53/53/53 54/54/54 55/55/55
f 55/55/55 56/56/56 53/53/53
f 57/57/57 58/58/58 59/59/59
f 59/59/59 60/60/60 57/57/57
f 61/61/61 62/62/62 63/63/63
f 63/63/63 64/64/64 61/61/61
f 65/65/65 66/66/66 67/67/67
f 67/67/67 68/68/68 65/65/65
f 69/69/69 70/70/70 71/71/71
f 71/71/71 72/72/72 69/69/69
f 54/54/54 69/69/69 72/72/72
f 72/72/72 55/55/55 54/54/54
f 56/56/56 73/73/73 74/74/74
f 74/74/74 53/53/53 56/56/56
f 75/75/75 76/76/76 77/77/77
f 77/77/77 78/78/78 75/75/75
f 62/62/62 75/75/75 78/78/78
f 78/78/78 63/63/63 62/62/62
f 64/64/64 79/79/79 80/80/80
f 80/80/80 61/61/61 64/64/64
f 81/81/81 82/82/82 83/83/83
f 83/83/83 84/84/84 81/81/81
f 85/85/85 86/86/86 87/87/87
f 87/87/87 88/88/88 85/85/85
