# e_sll_carrier_l_exact
# Parts: 1
v -3.457618 5.458312 -16.572639
v -3.457618 1.682979 -16.572639
v -3.457620 1.682980 4.670089
v -3.457620 5.458313 -0.605501
v -5.124762 3.559022 -12.250481
v -5.124764 3.559023 -21.075155
v -3.641971 0.244260 -21.075155
v -3.641969 0.244260 -12.250481
v 3.457620 5.458312 -16.572639
v 3.457618 5.458313 -0.605499
v 3.457618 1.682980 4.670090
v 3.457620 1.682979 -16.572639
v 5.154578 3.559022 -12.250481
v 3.612154 0.244259 -12.250481
v 3.612155 0.244260 -21.075155
v 5.154579 3.559023 -21.075155
v -1.478251 -1.857811 -4.607879
v -1.478255 -1.857812 20.405544
v -1.478255 2.480955 20.405544
v -1.478251 2.480955 -5.295306
v -1.478250 -1.300377 -16.597612
v -1.478250 -6.856464 -16.430624
v -1.051700 -6.072426 -22.160173
v -1.478250 -6.856464 -16.430624
v -1.478250 -1.300377 -16.597612
v -1.478250 -1.300377 -16.597612
v -1.478249 -2.266273 -22.327158
v -1.051700 -6.072426 -22.160173
v 1.478251 -1.857811 -4.607878
v 1.478251 2.480955 -5.295305
v 1.478247 2.480955 20.405550
v 1.478247 -1.857812 20.405550
v 1.478253 -6.856463 -16.430624
v 1.478252 -1.300377 -16.597612
v 1.051704 -6.072427 -22.160170
v 1.478253 -2.266273 -22.327158
v 1.478252 -1.300377 -16.597612
v 1.478252 -1.300377 -16.597612
v 1.478253 -6.856463 -16.430624
v 1.051704 -6.072427 -22.160170
v -1.235038 2.047813 -18.990192
v 1.235039 2.047813 -18.990192
v 1.235039 -2.299523 -17.251368
v -1.235039 -2.299523 -17.251368
v -1.235040 2.033000 -6.536367
v -1.235038 2.047813 -18.990192
v -1.235039 -2.299523 -17.251368
v 1.235037 2.033000 -6.536366
v 1.235039 -2.299523 -17.251368
v 1.235039 2.047813 -18.990192
v -3.457618 1.682979 -16.572639
v 3.457620 1.682979 -16.572639
v 3.457618 1.682980 4.670090
v -3.457620 1.682980 4.670089
v -3.457618 5.458312 -16.572639
v -3.457620 5.458313 -0.605501
v 3.457618 5.458313 -0.605499
v 3.457620 5.458312 -16.572639
v -3.457620 5.458313 -0.605501
v -3.457620 1.682980 4.670089
v 3.457618 1.682980 4.670090
v 3.457618 5.458313 -0.605499
v 3.457620 5.458312 -16.572639
v 3.457620 1.682979 -16.572639
v -3.457618 1.682979 -16.572639
v -3.457618 5.458312 -16.572639
v 3.612154 0.244259 -12.250481
v -3.641969 0.244260 -12.250481
v -3.641971 0.244260 -21.075155
v 3.612155 0.244260 -21.075155
v 5.154578 3.559022 -12.250481
v -5.124762 3.559022 -12.250481
v -3.641969 0.244260 -12.250481
v 3.612154 0.244259 -12.250481
v 5.154579 3.559023 -21.075155
v -5.124764 3.559023 -21.075155
v -5.124762 3.559022 -12.250481
v 5.154578 3.559022 -12.250481
v 3.612155 0.244260 -21.075155
v -3.641971 0.244260 -21.075155
v -5.124764 3.559023 -21.075155
v 5.154579 3.559023 -21.075155
v 1.478251 2.480955 -5.295305
v -1.478251 2.480955 -5.295306
v -1.478255 2.480955 20.405544
v 1.478247 2.480955 20.405550
v -1.478255 -1.857812 20.405544
v -1.478251 -1.857811 -4.607879
v 1.478251 -1.857811 -4.607878
v 1.478247 -1.857812 20.405550
v -1.478255 -1.857812 20.405544
v 1.478247 -1.857812 20.405550
v 1.478247 2.480955 20.405550
v -1.478255 2.480955 20.405544
v 1.051704 -6.072427 -22.160170
v -1.051700 -6.072426 -22.160173
v -1.478249 -2.266273 -22.327158
v 1.478253 -2.266273 -22.327158
v 1.478252 -1.300377 -16.597612
v -1.478250 -1.300377 -16.597612
v -1.478250 -6.856464 -16.430624
v 1.478253 -6.856463 -16.430624
v -1.478249 -2.266273 -22.327158
v -1.478250 -1.300377 -16.597612
v 1.478252 -1.300377 -16.597612
v 1.478253 -2.266273 -22.327158
v 1.051704 -6.072427 -22.160170
v 1.478253 -6.856463 -16.430624
v -1.478250 -6.856464 -16.430624
v -1.051700 -6.072426 -22.160173
vn -1.000000 -0.000000 -0.000000
vn -1.000000 -0.000000 -0.000000
vn -1.000000 -0.000000 -0.000000
vn -1.000000 -0.000000 -0.000000
vn -0.912831 -0.408337 0.000000
vn -0.912831 -0.408337 0.000000
vn -0.912831 -0.408337 0.000000
vn -0.912831 -0.408337 0.000000
vn 1.000000 -0.000000 0.000000
vn 1.000000 -0.000000 0.000000
vn 1.000000 -0.000000 0.000000
vn 1.000000 -0.000000 0.000000
vn 0.906651 -0.421882 0.000000
vn 0.906651 -0.421882 0.000000
vn 0.906651 -0.421882 0.000000
vn 0.906651 -0.421882 0.000000
vn -1.000000 -0.000000 -0.000000
vn -1.000000 -0.000000 -0.000000
vn -1.000000 -0.000000 -0.000000
vn -1.000000 -0.000000 -0.000000
vn -1.000000 -0.000000 -0.000000
vn -1.000000 -0.000000 -0.000000
vn -0.997215 -0.002241 -0.074547
vn -0.997215 -0.002241 -0.074547
vn -0.997215 -0.002241 -0.074547
vn -0.993696 -0.110544 0.018636
vn -0.993696 -0.110544 0.018636
vn -0.993696 -0.110544 0.018636
vn 1.000000 -0.000000 0.000000
vn 1.000000 -0.000000 0.000000
vn 1.000000 -0.000000 0.000000
vn 1.000000 -0.000000 0.000000
vn 1.000000 -0.000000 0.000000
vn 1.000000 -0.000000 0.000000
vn 0.993696 -0.110544 0.018636
vn 0.993696 -0.110544 0.018636
vn 0.993696 -0.110544 0.018636
vn 0.997215 -0.002240 -0.074546
vn 0.997215 -0.002240 -0.074546
vn 0.997215 -0.002240 -0.074546
vn 0.000000 -0.371371 -0.928485
vn 0.000000 -0.371371 -0.928485
vn 0.000000 -0.371371 -0.928485
vn 0.000000 -0.371371 -0.928485
vn -1.000000 -0.000000 -0.000000
vn -1.000000 -0.000000 -0.000000
vn -1.000000 -0.000000 -0.000000
vn 1.000000 -0.000000 0.000000
vn 1.000000 -0.000000 0.000000
vn 1.000000 -0.000000 0.000000
vn -0.000000 -1.000000 0.000000
vn -0.000000 -1.000000 0.000000
vn -0.000000 -1.000000 0.000000
vn -0.000000 -1.000000 0.000000
vn 0.000000 1.000000 -0.000000
vn 0.000000 1.000000 -0.000000
vn 0.000000 1.000000 -0.000000
vn 0.000000 1.000000 -0.000000
vn -0.000000 0.813219 0.581958
vn -0.000000 0.813219 0.581958
vn -0.000000 0.813219 0.581958
vn -0.000000 0.813219 0.581958
vn 0.000000 0.000000 -1.000000
vn 0.000000 0.000000 -1.000000
vn 0.000000 0.000000 -1.000000
vn 0.000000 0.000000 -1.000000
vn -0.000000 -1.000000 0.000000
vn -0.000000 -1.000000 0.000000
vn -0.000000 -1.000000 0.000000
vn -0.000000 -1.000000 0.000000
vn 0.000000 0.000000 1.000000
vn 0.000000 0.000000 1.000000
vn 0.000000 0.000000 1.000000
vn 0.000000 0.000000 1.000000
vn 0.000000 1.000000 -0.000000
vn 0.000000 1.000000 -0.000000
vn 0.000000 1.000000 -0.000000
vn 0.000000 1.000000 -0.000000
vn 0.000000 0.000000 -1.000000
vn 0.000000 0.000000 -1.000000
vn 0.000000 0.000000 -1.000000
vn 0.000000 0.000000 -1.000000
vn 0.000000 0.986999 -0.160728
vn 0.000000 0.986999 -0.160728
vn 0.000000 1.000000 -0.000000
vn 0.000000 1.000000 -0.000000
vn -0.000000 -1.000000 0.000000
vn -0.000000 -0.980066 0.198672
vn -0.000000 -0.980066 0.198672
vn -0.000000 -1.000000 0.000000
vn 0.000000 0.000000 1.000000
vn 0.000000 0.000000 1.000000
vn 0.000000 0.000000 1.000000
vn 0.000000 0.000000 1.000000
vn 0.000001 -0.043830 -0.999039
vn 0.000001 -0.043830 -0.999039
vn 0.000001 -0.043830 -0.999039
vn 0.000001 -0.043830 -0.999039
vn 0.000000 0.948333 -0.317277
vn 0.000000 0.948333 -0.317277
vn 0.000000 -0.921059 0.389423
vn 0.000000 -0.921059 0.389423
vn 0.000000 0.986086 -0.166236
vn 0.000000 0.986086 -0.166236
vn 0.000000 0.986086 -0.166236
vn 0.000000 0.986086 -0.166236
vn 0.000000 -0.990767 -0.135577
vn 0.000000 -0.990767 -0.135577
vn 0.000000 -0.990767 -0.135577
vn 0.000000 -0.990767 -0.135577
vt 0.466490 0.465345
vt 0.466490 0.547980
vt 0.881070 0.547980
vt 0.781677 0.465345
vt 0.043374 0.901269
vt 0.220277 0.901270
vt 0.220277 0.991560
vt 0.043374 0.991560
vt 0.466490 0.465345
vt 0.781677 0.465345
vt 0.881070 0.547980
vt 0.466490 0.547980
vt 0.043374 0.901269
vt 0.043374 0.991560
vt 0.220277 0.991560
vt 0.220277 0.901270
vt 0.582321 0.133905
vt 0.049862 0.146496
vt 0.052099 0.241130
vt 0.599445 0.228191
vt 0.842681 0.137993
vt 0.836272 0.017546
vt 0.961309 0.031657
vt 0.836272 0.017546
vt 0.842681 0.137993
vt 0.842681 0.137993
vt 0.966151 0.114178
vt 0.961309 0.031657
vt 0.582321 0.133905
vt 0.599445 0.228191
vt 0.052099 0.241130
vt 0.049862 0.146496
vt 0.836272 0.017546
vt 0.842681 0.137993
vt 0.961309 0.031657
vt 0.966151 0.114178
vt 0.842681 0.137993
vt 0.842681 0.137993
vt 0.836272 0.017546
vt 0.961309 0.031657
vt 0.623199 0.805489
vt 0.623199 0.859167
vt 0.724948 0.859167
vt 0.724948 0.805490
vt 0.676212 0.892381
vt 0.450240 0.889048
vt 0.495143 0.980353
vt 0.824069 0.637150
vt 0.622766 0.638602
vt 0.623012 0.740350
vt 0.038764 0.465659
vt 0.038764 0.604607
vt 0.430930 0.604607
vt 0.430930 0.465659
vt 0.038392 0.776483
vt 0.363541 0.776483
vt 0.363541 0.637535
vt 0.038392 0.637535
vt 0.849872 0.625342
vt 0.849872 0.731737
vt 0.988820 0.731737
vt 0.988820 0.625342
vt 0.172001 0.887617
vt 0.172001 0.804981
vt 0.033053 0.804981
vt 0.033053 0.887617
vt 0.589570 0.780869
vt 0.589570 0.637560
vt 0.397800 0.637560
vt 0.397800 0.780869
vt 0.561758 0.021405
vt 0.357329 0.021405
vt 0.386707 0.090200
vt 0.530017 0.090200
vt 0.759863 0.966034
vt 0.964291 0.966033
vt 0.964291 0.774264
vt 0.759863 0.774264
vt 0.219894 0.017036
vt 0.076584 0.017036
vt 0.047206 0.085831
vt 0.251635 0.085831
vt 0.417626 0.272956
vt 0.417626 0.337002
vt 0.965933 0.337002
vt 0.965933 0.272956
vt 0.966549 0.369098
vt 0.433180 0.369098
vt 0.433180 0.433145
vt 0.966549 0.433145
vt 0.267350 0.808996
vt 0.267350 0.873043
vt 0.362149 0.873043
vt 0.362149 0.808996
vt 0.975617 0.520018
vt 0.975617 0.474511
vt 0.892826 0.465241
vt 0.892826 0.529288
vt 0.157824 0.272956
vt 0.157824 0.337002
vt 0.153454 0.369098
vt 0.153454 0.433145
vt 0.031557 0.337002
vt 0.157824 0.337002
vt 0.157824 0.272956
vt 0.031557 0.272956
vt 0.027783 0.423875
vt 0.153454 0.433145
vt 0.153454 0.369098
vt 0.027783 0.378368
g part_0_s36_desc
f 1/1/1 2/2/2 3/3/3
f 3/3/3 4/4/4 1/1/1
f 5/5/5 6/6/6 7/7/7
f 7/7/7 8/8/8 5/5/5
f 9/9/9 10/10/10 11/11/11
f 11/11/11 12/12/12 9/9/9
f 13/13/13 14/14/14 15/15/15
f 15/15/15 16/16/16 13/13/13
f 17/17/17 18/18/18 19/19/19
f 19/19/19 20/20/20 17/17/17
f 20/20/20 21/21/21 22/22/22
f 22/22/22 17/17/17 20/20/20
f 23/23/23 24/24/24 25/25/25
f 26/26/26 27/27/27 28/28/28
f 29/29/29 30/30/30 31/31/31
f 31/31/31 32/32/32 29/29/29
f 30/30/30 29/29/29 33/33/33
f 33/33/33 34/34/34 30/30/30
f 35/35/35 36/36/36 37/37/37
f 38/38/38 39/39/39 40/40/40
f 41/41/41 42/42/42 43/43/43
f 43/43/43 44/44/44 41/41/41
f 45/45/45 46/46/46 47/47/47
f 48/48/48 49/49/49 50/50/50
f 51/51/51 52/52/52 53/53/53
f 53/53/53 54/54/54 51/51/51
f 55/55/55 56/56/56 57/57/57
f 57/57/57 58/58/58 55/55/55
f 59/59/59 60/60/60 61/61/61
f 61/61/61 62/62/62 59/59/59
f 63/63/63 64/64/64 65/65/65
f 65/65/65 66/66/66 63/63/63
f 67/67/67 68/68/68 69/69/69
f 69/69/69 70/70/70 67/67/67
f 71/71/71 72/72/72 73/73/73
f 73/73/73 74/74/74 71/71/71
f 75/75/75 76/76/76 77/77/77
f 77/77/77 78/78/78 75/75/75
f 79/79/79 80/80/80 81/81/81
f 81/81/81 82/82/82 79/79/79
f 83/83/83 84/84/84 85/85/85
f 85/85/85 86/86/86 83/83/83
f 87/87/87 88/88/88 89/89/89
f 89/89/89 90/90/90 87/87/87
f 91/91/91 92/92/92 93/93/93
f 93/93/93 94/94/94 91/91/91
f 95/95/95 96/96/96 97/97/97
f 97/97/97 98/98/98 95/95/95
f 83/83/83 99/99/99 100/100/100
f 100/100/100 84/84/84 83/83/83
f 88/88/88 101/101/101 102/102/102
f 102/102/102 89/89/89 88/88/88
f 103/103/103 104/104/104 105/105/105
f 105/105/105 106/106/106 103/103/103
f 107/107/107 108/108/108 109/109/109
f 109/109/109 110/110/110 107/107/107
