# f_battleship_l
# Parts: 1
v 0.749998 1.400000 16.275000
v 0.749998 -1.250000 16.275000
v 0.749998 -1.238038 10.404595
v 0.749998 1.368258 11.151936
v 0.749998 -1.238038 10.404595
v 0.749998 -1.250000 16.275000
v -0.750002 -1.250000 16.275000
v -0.750002 -1.238038 10.404595
v 0.749998 1.368258 11.151936
v -0.750002 1.368258 11.151935
v -0.750002 1.400000 16.275000
v 0.749998 1.400000 16.275000
v -0.750002 -1.250000 16.275000
v 0.749998 -1.250000 16.275000
v 0.749998 1.400000 16.275000
v -0.750002 1.400000 16.275000
v -0.750002 1.400000 16.275000
v -0.750002 1.368258 11.151935
v -0.750002 -1.238038 10.404595
v -0.750002 -1.250000 16.275000
v -0.750002 1.368258 11.151935
v -0.575547 1.118258 9.260500
v -0.575547 -0.988038 9.251031
v -0.750002 1.368258 11.151935
v 0.749998 1.368258 11.151936
v 0.575545 1.118258 9.260500
v -0.575547 1.118258 9.260500
v 0.575545 -0.988038 9.251031
v -0.575547 -0.988038 9.251031
v 0.575545 1.118258 9.260500
v 0.575545 -0.988038 9.251031
v 1.339909 -1.238038 3.737096
v 1.339909 2.318258 3.749435
v -1.339910 2.318258 3.749435
v -1.339910 -1.238038 3.737095
v 0.801556 -1.438038 -4.347904
v 0.801556 1.718258 -4.335565
v 1.339909 2.318258 3.749435
v 1.339909 -1.238038 3.737096
v -1.339910 2.318258 3.749435
v -0.801555 1.718258 -4.335565
v -0.801555 -1.438038 -4.347905
v -1.339910 -1.238038 3.737095
v -0.801555 2.518258 -7.380564
v -0.801555 1.718258 -4.335565
v 0.801556 1.718258 -4.335565
v 0.801557 2.518258 -7.380564
v -0.801555 -2.238038 -7.287904
v -0.801555 2.518258 -7.380564
v 0.801557 2.518258 -7.380564
v 0.801557 -2.238038 -7.287904
v 0.801557 -2.238038 -7.287904
v 0.801556 -1.438038 -4.347904
v -0.801555 -1.438038 -4.347905
v -0.801555 -2.238038 -7.287904
v 1.248252 -2.238038 -16.475403
v -1.248247 -2.238038 -16.475405
v 1.248252 2.518258 -16.568064
v 1.248252 -2.238038 -16.475403
v -1.248247 -2.238038 -16.475405
v -1.248247 2.518258 -16.568066
v -1.248247 2.518258 -16.568066
v 1.248252 2.518258 -16.568064
v 0.663010 -2.720864 7.717500
v 0.663010 -2.720864 7.927500
v 0.288769 -0.960198 7.927500
v 0.288769 -0.960198 7.717500
v -0.001884 -2.790000 7.717500
v -0.001884 -2.790000 7.927500
v -0.001884 -0.990000 7.927500
v -0.001884 -0.990000 7.717500
v -0.288771 -0.960198 7.927500
v -0.663012 -2.720864 7.927500
v -0.663012 -2.720864 7.717500
v -0.288771 -0.960198 7.717500
v 1.339909 -1.238038 3.737096
v -1.339910 -1.238038 3.737095
v -1.339910 -1.238038 3.737095
v 1.339909 -1.238038 3.737096
v -1.339910 2.318258 3.749435
v 1.339909 2.318258 3.749435
v 1.339909 2.318258 3.749435
v -1.339910 2.318258 3.749435
v -1.248247 -2.238038 -16.475405
v -1.248247 2.518258 -16.568066
v 1.248252 2.518258 -16.568064
v 1.248252 -2.238038 -16.475403
vn 0.705708 -0.000000 0.708503
vn 0.706648 0.000000 0.707566
vn 0.997516 0.007071 -0.070080
vn 0.999268 0.010543 -0.036768
vn 0.000000 -0.994748 -0.102351
vn -0.000000 -0.999998 -0.002038
vn -0.000000 -0.999998 -0.002038
vn 0.000000 -0.994748 -0.102351
vn 0.000000 0.997761 -0.066880
vn 0.000000 0.999981 -0.006196
vn 0.000000 0.999981 -0.006196
vn 0.000000 0.999981 -0.006196
vn -0.706648 0.000000 0.707565
vn 0.706648 0.000000 0.707566
vn 0.705708 -0.000000 0.708503
vn -0.705708 0.000000 0.708503
vn -0.705708 0.000000 0.708503
vn -1.000000 0.000000 -0.000000
vn -0.997516 0.007071 -0.070081
vn -0.706648 0.000000 0.707565
vn -0.995064 0.027354 -0.095394
vn -0.999820 0.009652 0.016349
vn -0.999918 0.000058 -0.012795
vn 0.000000 0.991378 -0.131035
vn 0.000000 0.997761 -0.066880
vn 0.000000 0.999043 0.043735
vn 0.000000 0.999043 0.043735
vn -0.000000 -0.996440 -0.084302
vn -0.000000 -0.996440 -0.084302
vn 0.999820 0.009652 0.016349
vn 0.999918 0.000058 -0.012794
vn 0.999452 -0.000131 0.033101
vn 0.999523 -0.000103 0.030881
vn -0.999523 -0.000103 0.030880
vn -0.999452 -0.000131 0.033101
vn 0.999540 0.000115 -0.030315
vn 0.999502 0.000123 -0.031570
vn 0.999523 -0.000103 0.030881
vn 0.999452 -0.000131 0.033101
vn -0.999523 -0.000103 0.030880
vn -0.999501 0.000123 -0.031570
vn -0.999540 0.000115 -0.030315
vn -0.999452 -0.000131 0.033101
vn -0.000000 0.992010 0.126156
vn -0.000000 0.996133 0.087856
vn -0.000000 0.996133 0.087856
vn -0.000000 0.992010 0.126156
vn -0.999656 0.000510 0.026203
vn -0.999641 0.000522 0.026779
vn 0.999641 0.000522 0.026779
vn 0.999656 0.000510 0.026203
vn -0.000000 -0.991457 0.130431
vn -0.000000 -0.989836 0.142212
vn -0.000000 -0.989836 0.142212
vn -0.000000 -0.991457 0.130431
vn 0.000000 -1.000000 0.000000
vn 0.000000 -1.000000 0.000000
vn 0.998820 0.000946 0.048562
vn 0.998820 0.000946 0.048562
vn -0.998820 0.000946 0.048562
vn -0.998820 0.000946 0.048562
vn 0.000000 1.000000 0.000000
vn 0.000000 1.000000 0.000000
vn -0.978147 -0.207912 -0.000000
vn -0.978147 -0.207912 -0.000000
vn -0.978147 -0.207912 -0.000000
vn -0.978147 -0.207912 -0.000000
vn -1.000000 0.000000 -0.000000
vn -1.000000 0.000000 -0.000000
vn -1.000000 0.000000 -0.000000
vn -1.000000 0.000000 -0.000000
vn 0.978147 -0.207912 0.000000
vn 0.978147 -0.207912 0.000000
vn 0.978147 -0.207912 0.000000
vn 0.978147 -0.207912 0.000000
vn -0.000000 -0.999395 0.034764
vn -0.000000 -0.999395 0.034764
vn -0.000000 -0.999395 0.034764
vn -0.000000 -0.999395 0.034764
vn -0.000000 0.997771 0.066733
vn -0.000000 0.997771 0.066733
vn -0.000000 0.997771 0.066733
vn -0.000000 0.997771 0.066733
vn 0.000000 -0.019478 -0.999810
vn 0.000000 -0.019478 -0.999810
vn 0.000000 -0.019478 -0.999810
vn 0.000000 -0.019478 -0.999810
vt 0.105486 0.937770
vt 0.105486 0.804082
vt 0.387425 0.804686
vt 0.351740 0.936171
vt 0.288944 0.509776
vt 0.009247 0.509776
vt 0.009247 0.434735
vt 0.288944 0.434735
vt 0.005155 0.192685
vt 0.005155 0.268307
vt 0.251141 0.268307
vt 0.251141 0.192685
vt 0.090734 0.794684
vt 0.013713 0.794684
vt 0.013713 0.928353
vt 0.090734 0.928353
vt 0.101974 0.937717
vt 0.348116 0.936116
vt 0.384025 0.804632
vt 0.101974 0.804028
vt 0.348116 0.936116
vt 0.439701 0.923504
vt 0.440151 0.817245
vt 0.250779 0.191737
vt 0.250779 0.267360
vt 0.341595 0.258565
vt 0.341595 0.200532
vt 0.343906 0.501049
vt 0.343906 0.443462
vt 0.442986 0.923559
vt 0.443436 0.817300
vt 0.711156 0.804692
vt 0.710567 0.984102
vt 0.707283 0.984043
vt 0.707873 0.804633
vt 0.404938 0.591490
vt 0.404345 0.750719
vt 0.014942 0.780984
vt 0.015531 0.601574
vt 0.011659 0.780925
vt 0.401063 0.750656
vt 0.401655 0.591426
vt 0.012248 0.601515
vt 0.537085 0.067783
vt 0.392725 0.067783
vt 0.392725 0.147586
vt 0.537085 0.147586
vt 0.542915 0.551067
vt 0.547364 0.791015
vt 0.550647 0.791081
vt 0.546198 0.551134
vt 0.530378 0.390076
vt 0.390301 0.390076
vt 0.390301 0.309876
vt 0.530378 0.309876
vt 0.968118 0.412422
vt 0.968118 0.287529
vt 0.992643 0.791082
vt 0.988197 0.551135
vt 0.984915 0.551068
vt 0.989361 0.791015
vt 0.972655 0.045547
vt 0.972655 0.169822
vt 0.024337 0.950219
vt 0.024337 0.961777
vt 0.128364 0.961777
vt 0.128364 0.950219
vt 0.023747 0.950585
vt 0.023747 0.962144
vt 0.127773 0.962144
vt 0.127773 0.950585
vt 0.127272 0.950361
vt 0.025519 0.950361
vt 0.025519 0.961920
vt 0.127272 0.961920
vt 0.005089 0.417008
vt 0.005089 0.282943
vt 0.606619 0.405223
vt 0.606619 0.539288
vt 0.009423 0.040985
vt 0.009423 0.174384
vt 0.606205 0.297100
vt 0.606205 0.161997
vt 0.934294 0.826409
vt 0.934293 0.975428
vt 0.981289 0.975428
vt 0.981290 0.826409
g part_0_s36_desc
f 1/1/1 2/2/2 3/3/3
f 3/3/3 4/4/4 1/1/1
f 5/5/5 6/6/6 7/7/7
f 7/7/7 8/8/8 5/5/5
f 9/9/9 10/10/10 11/11/11
f 12/12/12 9/9/9 11/11/11
f 13/13/13 14/14/14 15/15/15
f 15/15/15 16/16/16 13/13/13
f 17/17/17 18/18/18 19/19/19
f 20/20/20 17/17/17 19/19/19
f 19/19/19 21/21/21 22/22/22
f 22/22/22 23/23/23 19/19/19
f 24/24/24 25/25/25 26/26/26
f 26/26/26 27/27/27 24/24/24
f 28/28/28 5/5/5 8/8/8
f 8/8/8 29/29/29 28/28/28
f 30/30/30 4/4/4 3/3/3
f 3/3/3 31/31/31 30/30/30
f 32/32/32 33/33/33 30/30/30
f 30/30/30 31/31/31 32/32/32
f 22/22/22 34/34/34 35/35/35
f 35/35/35 23/23/23 22/22/22
f 36/36/36 37/37/37 38/38/38
f 38/38/38 39/39/39 36/36/36
f 40/40/40 41/41/41 42/42/42
f 42/42/42 43/43/43 40/40/40
f 44/44/44 45/45/45 46/46/46
f 46/46/46 47/47/47 44/44/44
f 48/48/48 42/42/42 41/41/41
f 41/41/41 49/49/49 48/48/48
f 50/50/50 37/37/37 36/36/36
f 36/36/36 51/51/51 50/50/50
f 52/52/52 53/53/53 54/54/54
f 54/54/54 55/55/55 52/52/52
f 56/56/56 52/52/52 55/55/55
f 55/55/55 57/57/57 56/56/56
f 58/58/58 50/50/50 51/51/51
f 51/51/51 59/59/59 58/58/58
f 60/60/60 48/48/48 49/49/49
f 49/49/49 61/61/61 60/60/60
f 62/62/62 44/44/44 47/47/47
f 47/47/47 63/63/63 62/62/62
f 64/64/64 65/65/65 66/66/66
f 66/66/66 67/67/67 64/64/64
f 68/68/68 69/69/69 70/70/70
f 70/70/70 71/71/71 68/68/68
f 72/72/72 73/73/73 74/74/74
f 74/74/74 75/75/75 72/72/72
f 54/54/54 53/53/53 76/76/76
f 76/76/76 77/77/77 54/54/54
f 78/78/78 79/79/79 28/28/28
f 28/28/28 29/29/29 78/78/78
f 46/46/46 45/45/45 80/80/80
f 80/80/80 81/81/81 46/46/46
f 82/82/82 83/83/83 27/27/27
f 27/27/27 26/26/26 82/82/82
f 84/84/84 85/85/85 86/86/86
f 86/86/86 87/87/87 84/84/84
