# f_bangoo_h_gap
# Parts: 1
v 0.909113 -2.553236 -16.346033
v 0.909111 -2.675586 -16.346029
v 1.000259 -2.675586 -16.346033
v 0.909113 -2.680981 -16.346033
v 0.809111 -3.056316 -16.346029
v 0.900259 -3.056316 -16.346033
v 1.000257 -2.680982 -16.346037
v -0.909108 -2.553236 -16.346033
v -1.000252 -2.553237 -16.346037
v -1.000254 -2.675586 -16.346033
v -0.909106 -2.675586 -16.346029
v -0.909108 -2.680981 -16.346033
v -1.000252 -2.680982 -16.346037
v -0.900254 -3.056316 -16.346033
v -0.809106 -3.056316 -16.346029
v -0.000178 -1.395589 -23.525192
v -0.000179 -1.395589 -16.647425
v 0.262944 -1.395589 -16.647425
v 0.262945 -1.395589 -23.525192
v 0.770043 -1.395589 -16.647425
v 0.710254 -1.395589 -23.525192
v 1.279854 -1.477242 -24.011963
v 0.289257 -1.477242 -24.011963
v 0.308971 -1.477241 -14.603386
v 1.395798 -1.477241 -14.602244
v 0.262945 2.123228 -23.082554
v 1.151136 2.123228 -23.082554
v 1.151135 2.123227 -14.419597
v 0.262943 2.123226 -14.419595
v 1.151136 2.123228 -23.082554
v 1.296347 2.123228 -23.082554
v 1.296345 2.123227 -14.417259
v 1.151135 2.123227 -14.419597
v -0.000178 1.995111 -21.762869
v 0.262945 1.995111 -21.762869
v 0.262944 1.995110 -14.419595
v -0.000179 1.995110 -14.419596
v 0.710253 1.995111 -21.762869
v 0.770043 1.995110 -14.419597
v 1.005453 -2.187263 -23.620375
v 0.888372 -2.187263 -23.620375
v 0.888373 -2.085055 -23.620375
v 1.005453 -2.085055 -23.620375
v 0.888371 -2.085054 -16.346031
v 0.888371 -2.187263 -16.346027
v 1.005452 -2.187263 -16.346029
v 1.005451 -2.085054 -16.346029
v 1.341869 2.002089 -14.582905
v 1.582534 0.473230 -14.582905
v -0.000180 0.502879 -14.582904
v -0.000180 1.998332 -14.582904
v 1.553773 -0.126527 -14.582905
v -0.000180 -0.086961 -14.582903
v -0.000180 -0.086961 -14.582903
v 1.553773 -0.126527 -14.582905
v -0.000180 -1.484344 -14.581648
v 1.237639 -1.496572 -14.581652
v 1.419407 0.474471 -27.039555
v 1.419407 -0.089434 -26.591972
v 1.419405 -0.079235 -11.999307
v 1.419405 0.456172 -13.185278
v 1.570729 -0.122167 -27.181259
v 1.221679 -1.415116 -25.837997
v 1.221677 -1.415819 -14.604835
v 1.221677 -1.415819 -14.604835
v 1.570727 -0.059606 -14.604027
v 1.570729 -0.122167 -27.181259
v 1.281407 2.072834 -28.969870
v 1.599817 0.464264 -28.971737
v 1.599815 0.474470 -14.604028
v 1.599815 0.474470 -14.604028
v 1.289336 2.082326 -14.604028
v 1.281407 2.072834 -28.969870
v 1.000257 -2.553237 -16.346037
v 0.000185 -1.395589 -23.525192
v -0.262938 -1.395589 -23.525192
v -0.262939 -1.395589 -16.647425
v 0.000184 -1.395589 -16.647425
v -0.710246 -1.395589 -23.525192
v -0.770038 -1.395589 -16.647425
v -1.279846 -1.477242 -24.011963
v -1.395794 -1.477241 -14.602245
v -0.308966 -1.477241 -14.603385
v -0.289250 -1.477242 -24.011963
v -0.262938 2.123228 -23.082554
v -0.262939 2.123226 -14.419596
v -1.151130 2.123227 -14.419597
v -1.151129 2.123228 -23.082554
v -1.151129 2.123228 -23.082554
v -1.151130 2.123227 -14.419597
v -1.296341 2.123227 -14.417259
v -1.296340 2.123228 -23.082554
v 0.000184 1.995111 -21.762869
v 0.000183 1.995110 -14.419595
v -0.262939 1.995110 -14.419596
v -0.262938 1.995111 -21.762869
v -0.770038 1.995110 -14.419597
v -0.710247 1.995111 -21.762869
v -1.005445 -2.187263 -23.620375
v -1.005445 -2.085055 -23.620375
v -0.888366 -2.085055 -23.620375
v -0.888365 -2.187263 -23.620375
v -0.888367 -2.085054 -16.346031
v -1.005446 -2.085054 -16.346029
v -1.005447 -2.187263 -16.346029
v -0.888365 -2.187263 -16.346027
v -1.341864 2.002089 -14.582905
v 0.000185 1.998332 -14.582904
v 0.000185 0.502879 -14.582904
v -1.582530 0.473230 -14.582905
v 0.000185 -0.086961 -14.582903
v -1.553768 -0.126527 -14.582905
v -1.553768 -0.126527 -14.582905
v 0.000185 -0.086961 -14.582903
v 0.000185 -1.484344 -14.581648
v -1.237634 -1.496572 -14.581652
v -1.419399 0.474471 -27.039558
v -1.419401 0.456172 -13.185278
v -1.419402 -0.079235 -11.999308
v -1.419399 -0.089434 -26.591974
v -1.570721 -0.122167 -27.181259
v -1.570723 -0.059606 -14.604027
v -1.221673 -1.415819 -14.604835
v -1.221673 -1.415819 -14.604835
v -1.221671 -1.415116 -25.837997
v -1.570721 -0.122167 -27.181259
v -1.281398 2.072834 -28.969870
v -1.289332 2.082326 -14.604028
v -1.599810 0.474470 -14.604028
v -1.599810 0.474470 -14.604028
v -1.599808 0.464264 -28.971737
v -1.281398 2.072834 -28.969870
vn -0.000021 0.000036 1.000000
vn -0.000021 0.000036 1.000000
vn -0.000021 0.000036 1.000000
vn -0.000021 0.000036 1.000000
vn -0.000021 0.000036 1.000000
vn -0.000021 0.000036 1.000000
vn -0.000021 0.000036 1.000000
vn -0.000021 0.000036 1.000000
vn -0.000021 0.000036 1.000000
vn -0.000021 0.000036 1.000000
vn -0.000021 0.000036 1.000000
vn -0.000021 0.000036 1.000000
vn -0.000021 0.000036 1.000000
vn -0.000021 0.000036 1.000000
vn -0.000021 0.000036 1.000000
vn -0.000160 1.000000 0.000297
vn -0.000160 1.000000 0.000297
vn -0.000160 1.000000 0.000297
vn -0.000160 1.000000 0.000297
vn -0.000160 1.000000 0.000297
vn -0.000160 1.000000 0.000297
vn -0.000160 1.000000 0.000297
vn -0.000160 1.000000 0.000297
vn -0.000160 1.000000 0.000297
vn -0.000160 1.000000 0.000297
vn 0.000000 -1.000000 0.000000
vn 0.000000 -1.000000 0.000000
vn 0.000000 -1.000000 0.000000
vn 0.000000 -1.000000 0.000000
vn 0.000000 -1.000000 0.000000
vn 0.000000 -1.000000 0.000000
vn 0.000000 -1.000000 0.000000
vn 0.000000 -1.000000 0.000000
vn 0.000000 -1.000000 0.000000
vn 0.000000 -1.000000 0.000000
vn 0.000000 -1.000000 0.000000
vn 0.000000 -1.000000 0.000000
vn 0.000000 -1.000000 0.000000
vn 0.000000 -1.000000 0.000000
vn 0.000000 0.000000 -1.000000
vn 0.000000 0.000000 -1.000000
vn 0.000000 0.000000 -1.000000
vn 0.000000 0.000000 -1.000000
vn -0.000021 0.000036 1.000000
vn -0.000021 0.000036 1.000000
vn -0.000021 0.000036 1.000000
vn -0.000021 0.000036 1.000000
vn 0.000000 0.000000 -1.000000
vn 0.000000 0.000000 -1.000000
vn 0.000000 0.000000 -1.000000
vn 0.000000 0.000000 -1.000000
vn 0.000000 0.000000 -1.000000
vn 0.000000 0.000000 -1.000000
vn 0.000000 -0.000864 -1.000000
vn 0.000000 -0.000864 -1.000000
vn 0.000000 -0.000864 -1.000000
vn 0.000000 -0.000864 -1.000000
vn -1.000000 0.000009 -0.000000
vn -1.000000 0.000009 -0.000000
vn -1.000000 0.000009 -0.000000
vn -1.000000 0.000009 -0.000000
vn -0.965433 0.260649 0.000016
vn -0.965433 0.260649 0.000016
vn -0.965433 0.260649 0.000016
vn -0.968439 0.249249 -0.001240
vn -0.968439 0.249249 -0.001240
vn -0.968439 0.249249 -0.001240
vn -0.980966 -0.194178 0.000138
vn -0.980966 -0.194178 0.000138
vn -0.980966 -0.194178 0.000138
vn -0.981861 -0.189598 0.000667
vn -0.981861 -0.189598 0.000667
vn -0.981861 -0.189598 0.000667
vn -0.000021 0.000036 1.000000
vn -0.000160 1.000000 0.000297
vn -0.000160 1.000000 0.000297
vn -0.000160 1.000000 0.000297
vn -0.000160 1.000000 0.000297
vn -0.000160 1.000000 0.000297
vn -0.000160 1.000000 0.000297
vn -0.000160 1.000000 0.000297
vn -0.000160 1.000000 0.000297
vn -0.000160 1.000000 0.000297
vn -0.000160 1.000000 0.000297
vn 0.000000 -1.000000 0.000000
vn 0.000000 -1.000000 0.000000
vn 0.000000 -1.000000 0.000000
vn 0.000000 -1.000000 0.000000
vn 0.000000 -1.000000 0.000000
vn 0.000000 -1.000000 0.000000
vn 0.000000 -1.000000 0.000000
vn 0.000000 -1.000000 0.000000
vn 0.000000 -1.000000 0.000000
vn 0.000000 -1.000000 0.000000
vn 0.000000 -1.000000 0.000000
vn 0.000000 -1.000000 0.000000
vn 0.000000 -1.000000 0.000000
vn 0.000000 -1.000000 0.000000
vn 0.000000 0.000000 -1.000000
vn 0.000000 0.000000 -1.000000
vn 0.000000 0.000000 -1.000000
vn 0.000000 0.000000 -1.000000
vn -0.000021 0.000036 1.000000
vn -0.000021 0.000036 1.000000
vn -0.000021 0.000036 1.000000
vn -0.000021 0.000036 1.000000
vn 0.000000 0.000000 -1.000000
vn 0.000000 0.000000 -1.000000
vn 0.000000 0.000000 -1.000000
vn 0.000000 0.000000 -1.000000
vn 0.000000 0.000000 -1.000000
vn 0.000000 0.000000 -1.000000
vn 0.000000 -0.000864 -1.000000
vn 0.000000 -0.000864 -1.000000
vn 0.000000 -0.000864 -1.000000
vn 0.000000 -0.000864 -1.000000
vn 1.000000 0.000000 0.000000
vn 1.000000 0.000000 0.000000
vn 1.000000 0.000000 0.000000
vn 1.000000 0.000000 0.000000
vn 0.968439 0.249249 -0.001240
vn 0.968439 0.249249 -0.001240
vn 0.968439 0.249249 -0.001240
vn 0.965433 0.260649 0.000016
vn 0.965433 0.260649 0.000016
vn 0.965433 0.260649 0.000016
vn 0.981861 -0.189598 0.000668
vn 0.981861 -0.189598 0.000668
vn 0.981861 -0.189598 0.000668
vn 0.980966 -0.194178 0.000138
vn 0.980966 -0.194178 0.000138
vn 0.980966 -0.194178 0.000138
vt 0.003297 0.609534
vt 0.003297 0.609534
vt 0.007003 0.609534
vt 0.003297 0.609534
vt 0.003297 0.609534
vt 0.007003 0.609534
vt 0.007003 0.609534
vt 0.003297 0.609534
vt 0.007003 0.609534
vt 0.007003 0.609534
vt 0.003297 0.609534
vt 0.003297 0.609534
vt 0.007003 0.609534
vt 0.007003 0.609534
vt 0.003297 0.609534
vt 0.984375 0.433594
vt 0.726562 0.433594
vt 0.726562 0.429688
vt 0.984375 0.429688
vt 0.726562 0.425781
vt 0.984375 0.425781
vt 0.984375 0.421875
vt 0.984375 0.437500
vt 0.726562 0.437500
vt 0.726562 0.421875
vt 0.984375 0.437500
vt 0.984375 0.425781
vt 0.726562 0.425781
vt 0.726562 0.437500
vt 0.988281 0.437500
vt 0.988281 0.433594
vt 0.730469 0.433594
vt 0.730469 0.437500
vt 0.984375 0.433594
vt 0.984375 0.429688
vt 0.726562 0.429688
vt 0.726562 0.433594
vt 0.984375 0.425781
vt 0.726562 0.425781
vt 0.007003 0.732981
vt 0.003297 0.732981
vt 0.003297 0.732981
vt 0.007003 0.732981
vt 0.003297 0.613055
vt 0.003297 0.613055
vt 0.007003 0.613055
vt 0.007003 0.613055
vt 0.727667 0.448475
vt 0.725608 0.435951
vt 0.739151 0.436193
vt 0.739151 0.448444
vt 0.725854 0.431037
vt 0.739151 0.431361
vt 0.739151 0.431361
vt 0.725854 0.431037
vt 0.739151 0.419914
vt 0.728559 0.419814
vt 0.726562 0.421875
vt 0.984375 0.425781
vt 0.984375 0.449219
vt 0.726562 0.445312
vt 0.984375 0.437500
vt 0.984375 0.421875
vt 0.726562 0.421875
vt 0.726562 0.421875
vt 0.726562 0.437500
vt 0.984375 0.437500
vt 0.984375 0.445312
vt 0.984375 0.425781
vt 0.726562 0.425781
vt 0.726562 0.425781
vt 0.726562 0.445312
vt 0.984375 0.445312
vt 0.007003 0.609534
vt 0.984375 0.433594
vt 0.984375 0.429688
vt 0.726562 0.429688
vt 0.726562 0.433594
vt 0.984375 0.425781
vt 0.726562 0.425781
vt 0.984375 0.421875
vt 0.726562 0.421875
vt 0.726562 0.437500
vt 0.984375 0.437500
vt 0.984375 0.437500
vt 0.726562 0.437500
vt 0.726562 0.425781
vt 0.984375 0.425781
vt 0.988281 0.437500
vt 0.730469 0.437500
vt 0.730469 0.433594
vt 0.988281 0.433594
vt 0.984375 0.433594
vt 0.726562 0.433594
vt 0.726562 0.429688
vt 0.984375 0.429688
vt 0.726562 0.425781
vt 0.984375 0.425781
vt 0.007003 0.732981
vt 0.007003 0.732981
vt 0.003297 0.732981
vt 0.003297 0.732981
vt 0.003297 0.613055
vt 0.007003 0.613055
vt 0.007003 0.613055
vt 0.003297 0.613055
vt 0.727667 0.448475
vt 0.739151 0.448444
vt 0.739151 0.436193
vt 0.725608 0.435951
vt 0.739151 0.431361
vt 0.725854 0.431037
vt 0.725854 0.431037
vt 0.739151 0.431361
vt 0.739151 0.419914
vt 0.728559 0.419814
vt 0.726562 0.421875
vt 0.726562 0.445312
vt 0.984375 0.449219
vt 0.984375 0.425781
vt 0.984375 0.437500
vt 0.726562 0.437500
vt 0.726562 0.421875
vt 0.726562 0.421875
vt 0.984375 0.421875
vt 0.984375 0.437500
vt 0.984375 0.445312
vt 0.726562 0.445312
vt 0.726562 0.425781
vt 0.726562 0.425781
vt 0.984375 0.425781
vt 0.984375 0.445312
g part_0_s36_idesc
f 100/100/100 103/103/103 102/102/102
f 102/102/102 103/103/103 101/101/101
f 103/103/103 89/89/89 101/101/101
f 101/101/101 89/89/89 75/75/75
f 89/89/89 92/92/92 75/75/75
f 92/92/92 89/89/89 91/91/91
f 91/91/91 89/89/89 69/69/69
f 89/89/89 69/69/69 87/87/87
f 69/69/69 64/64/64 87/87/87
f 64/64/64 66/66/66 69/69/69
