# f_bangoo_l
# Parts: 1
v -1.938747 5.023067 17.088789
v -1.938747 -5.467401 14.676973
v -1.938747 -3.757662 17.233526
v -1.742226 3.942663 -2.517957
v -1.718861 3.864403 -29.038382
v -1.718861 -3.620654 -28.985853
v -1.742226 -3.629661 -2.647393
v -1.742227 5.870681 0.489378
v -1.742226 -5.455774 -0.487137
v -1.193150 -1.498904 21.343706
v -1.193150 0.981038 21.294933
v -1.130940 -2.736193 23.111792
v -1.091306 -2.736193 28.990055
v -1.091306 2.476782 28.937529
v -1.130940 2.476782 23.061710
v 1.917281 -5.467401 14.676971
v 1.917280 5.023067 17.088793
v 1.917280 -3.757662 17.233524
v 1.720766 3.942663 -2.517955
v 1.720766 -3.629661 -2.647395
v 1.697409 -3.620654 -28.985853
v 1.697409 3.864403 -29.038382
v 1.720765 5.870681 0.489380
v 1.720765 -5.455774 -0.487140
v 1.171682 0.981038 21.294933
v 1.171682 -1.498904 21.343702
v 1.109472 -2.736193 23.111790
v 1.109472 2.476782 23.061714
v 1.069836 2.476782 28.937531
v 1.069836 -2.736193 28.990053
v -1.938747 -3.757662 17.233526
v -1.938747 -5.467401 14.676973
v 1.917281 -5.467401 14.676971
v 1.917280 -3.757662 17.233524
v -1.091306 2.476782 28.937529
v -1.091306 -2.736193 28.990055
v 1.069836 -2.736193 28.990053
v 1.069836 2.476782 28.937531
v 1.697409 3.864403 -29.038382
v 1.697409 -3.620654 -28.985853
v -1.718861 -3.620654 -28.985853
v -1.718861 3.864403 -29.038382
v -1.742226 -3.629661 -2.647393
v -1.718861 -3.620654 -28.985853
v 1.697409 -3.620654 -28.985853
v 1.720766 -3.629661 -2.647395
v -1.742226 -5.455774 -0.487137
v 1.720765 -5.455774 -0.487140
v 1.171682 -1.498904 21.343702
v -1.193150 -1.498904 21.343706
v 1.720766 3.942663 -2.517955
v 1.697409 3.864403 -29.038382
v -1.718861 3.864403 -29.038382
v -1.742226 3.942663 -2.517957
v 1.720765 5.870681 0.489380
v -1.742227 5.870681 0.489378
v -1.938747 5.023067 17.088789
v -1.193150 0.981038 21.294933
v 1.171682 0.981038 21.294933
v 1.917280 5.023067 17.088793
v 1.109472 -2.736193 23.111790
v 1.069836 -2.736193 28.990053
v -1.091306 -2.736193 28.990055
v -1.130940 -2.736193 23.111792
v -1.130940 2.476782 23.061710
v -1.091306 2.476782 28.937529
v 1.069836 2.476782 28.937531
v 1.109472 2.476782 23.061714
vn -0.998670 0.002508 0.051496
vn -0.999962 0.001478 -0.008569
vn -0.998201 0.001051 0.059941
vn -1.000000 0.000005 -0.000371
vn -1.000000 -0.000006 -0.000881
vn -1.000000 -0.000006 -0.000881
vn -1.000000 0.000005 -0.000371
vn -0.999968 0.001101 -0.007945
vn -0.999968 0.001101 -0.007945
vn -0.994612 0.001889 0.103650
vn -0.994194 0.001918 0.107581
vn -0.999847 0.000169 0.017511
vn -0.999977 0.000068 0.006742
vn -0.999977 0.000068 0.006742
vn -0.999857 0.000228 0.016914
vn 0.999962 0.001479 -0.008568
vn 0.998670 0.002508 0.051497
vn 0.998201 0.001051 0.059941
vn 1.000000 0.000005 -0.000370
vn 1.000000 0.000005 -0.000370
vn 1.000000 -0.000002 -0.000882
vn 1.000000 -0.000002 -0.000882
vn 0.999968 0.001101 -0.007944
vn 0.999968 0.001101 -0.007944
vn 0.994194 0.001918 0.107581
vn 0.994612 0.001889 0.103650
vn 0.999847 0.000169 0.017511
vn 0.999857 0.000228 0.016914
vn 0.999977 0.000066 0.006744
vn 0.999977 0.000066 0.006744
vn 0.000000 -0.853424 0.521217
vn 0.000000 -0.956626 0.291317
vn 0.000000 -0.956626 0.291317
vn 0.000000 -0.853424 0.521217
vn -0.000001 0.010075 0.999949
vn -0.000001 0.010075 0.999949
vn -0.000001 0.010075 0.999949
vn -0.000001 0.010075 0.999949
vn 0.000000 -0.007017 -0.999975
vn 0.000000 -0.007017 -0.999975
vn 0.000000 -0.007017 -0.999975
vn 0.000000 -0.007017 -0.999975
vn -0.000000 -0.938974 -0.343988
vn 0.000000 -1.000000 -0.000342
vn 0.000000 -1.000000 -0.000342
vn -0.000000 -0.938974 -0.343988
vn -0.000000 -0.939452 -0.342679
vn -0.000000 -0.939452 -0.342679
vn -0.000000 -0.999827 -0.018582
vn -0.000000 -0.999827 -0.018582
vn 0.000000 0.959209 -0.282698
vn 0.000000 0.999996 -0.002951
vn 0.000000 0.999996 -0.002951
vn 0.000000 0.959209 -0.282698
vn 0.000000 0.966816 -0.255472
vn 0.000000 0.966816 -0.255472
vn -0.000000 0.923408 0.383819
vn 0.000000 0.997239 0.074254
vn 0.000000 0.997239 0.074254
vn -0.000000 0.923408 0.383819
vn -0.000000 -0.952688 -0.303949
vn 0.000000 -1.000000 -0.000342
vn 0.000000 -1.000000 -0.000342
vn -0.000000 -0.952688 -0.303949
vn 0.000000 0.937593 -0.347734
vn 0.000000 1.000000 0.000000
vn 0.000000 1.000000 0.000000
vn 0.000000 0.937593 -0.347734
vt 0.802648 0.026397
vt 0.763375 0.200014
vt 0.804409 0.171403
vt 0.481713 0.045209
vt 0.043684 0.046640
vt 0.044552 0.170396
vt 0.479573 0.170409
vt 0.530192 0.012963
vt 0.514047 0.200233
vt 0.872117 0.133694
vt 0.871317 0.092691
vt 0.900202 0.153843
vt 0.996974 0.153734
vt 0.996105 0.067544
vt 0.899374 0.067653
vt 0.763375 0.200014
vt 0.802648 0.026397
vt 0.804409 0.171403
vt 0.481713 0.045209
vt 0.479573 0.170409
vt 0.044552 0.170396
vt 0.043684 0.046640
vt 0.530192 0.012963
vt 0.514047 0.200233
vt 0.871317 0.092691
vt 0.872117 0.133694
vt 0.900202 0.153843
vt 0.899374 0.067653
vt 0.996105 0.067544
vt 0.996974 0.153734
vt 0.809191 0.228454
vt 0.762127 0.228463
vt 0.762131 0.291847
vt 0.809204 0.291838
vt 0.759097 0.834596
vt 0.654935 0.834596
vt 0.654935 0.877328
vt 0.759097 0.877328
vt 0.297472 0.817344
vt 0.147915 0.817344
vt 0.147915 0.885154
vt 0.297472 0.885154
vt 0.470456 0.231703
vt 0.035835 0.232089
vt 0.035834 0.288202
vt 0.470455 0.288589
vt 0.514839 0.231705
vt 0.514837 0.288590
vt 0.883354 0.279489
vt 0.883351 0.240760
vt 0.558803 0.443451
vt 0.996337 0.443074
vt 0.996338 0.386961
vt 0.558805 0.386565
vt 0.502351 0.443445
vt 0.502352 0.386560
vt 0.231121 0.383322
vt 0.138294 0.395709
vt 0.138297 0.434438
vt 0.231141 0.446706
vt 0.916694 0.278464
vt 1.013050 0.277856
vt 1.013068 0.242495
vt 0.916705 0.241792
vt 0.102701 0.396725
vt 0.006538 0.397231
vt 0.006484 0.432592
vt 0.102665 0.433396
g part_0_s36_desc
f 1/1/1 2/2/2 3/3/3
f 4/4/4 5/5/5 6/6/6
f 6/6/6 7/7/7 4/4/4
f 8/8/8 4/4/4 7/7/7
f 7/7/7 9/9/9 8/8/8
f 3/3/3 10/10/10 11/11/11
f 11/11/11 1/1/1 3/3/3
f 8/8/8 9/9/9 2/2/2
f 2/2/2 1/1/1 8/8/8
f 12/12/12 13/13/13 14/14/14
f 14/14/14 15/15/15 12/12/12
f 10/10/10 12/12/12 15/15/15
f 15/15/15 11/11/11 10/10/10
f 16/16/16 17/17/17 18/18/18
f 19/19/19 20/20/20 21/21/21
f 21/21/21 22/22/22 19/19/19
f 23/23/23 24/24/24 20/20/20
f 20/20/20 19/19/19 23/23/23
f 18/18/18 17/17/17 25/25/25
f 25/25/25 26/26/26 18/18/18
f 23/23/23 17/17/17 16/16/16
f 16/16/16 24/24/24 23/23/23
f 27/27/27 28/28/28 29/29/29
f 29/29/29 30/30/30 27/27/27
f 26/26/26 25/25/25 28/28/28
f 28/28/28 27/27/27 26/26/26
f 31/31/31 32/32/32 33/33/33
f 33/33/33 34/34/34 31/31/31
f 35/35/35 36/36/36 37/37/37
f 37/37/37 38/38/38 35/35/35
f 39/39/39 40/40/40 41/41/41
f 41/41/41 42/42/42 39/39/39
f 43/43/43 44/44/44 45/45/45
f 45/45/45 46/46/46 43/43/43
f 47/47/47 43/43/43 46/46/46
f 46/46/46 48/48/48 47/47/47
f 34/34/34 49/49/49 50/50/50
f 50/50/50 31/31/31 34/34/34
f 51/51/51 52/52/52 53/53/53
f 53/53/53 54/54/54 51/51/51
f 55/55/55 51/51/51 54/54/54
f 54/54/54 56/56/56 55/55/55
f 57/57/57 58/58/58 59/59/59
f 59/59/59 60/60/60 57/57/57
f 32/32/32 47/47/47 48/48/48
f 48/48/48 33/33/33 32/32/32
f 60/60/60 55/55/55 56/56/56
f 56/56/56 57/57/57 60/60/60
f 61/61/61 62/62/62 63/63/63
f 63/63/63 64/64/64 61/61/61
f 65/65/65 66/66/66 67/67/67
f 67/67/67 68/68/68 65/65/65
f 49/49/49 61/61/61 64/64/64
f 64/64/64 50/50/50 49/49/49
f 58/58/58 65/65/65 68/68/68
f 68/68/68 59/59/59 58/58/58
