# e_jotunheim_l_exact
# Parts: 1
v -7.022531 -0.011014 -19.309456
v -6.203335 -5.435868 -19.309456
v -6.203336 -4.025506 -11.523111
v -7.717240 -0.011015 -11.523111
v -3.885857 2.471968 -26.457565
v -3.885857 -2.943907 -26.457565
v -4.257693 -2.943907 0.670372
v -4.257693 3.545195 0.670376
v -2.572741 3.507735 0.174094
v -2.572741 -2.968707 0.174091
v -1.478666 -2.968709 29.704782
v -1.478666 1.878645 29.704782
v -6.203333 -2.853553 -29.711561
v -6.203336 4.003478 -11.523110
v -6.203335 5.413840 -19.309456
v -6.203333 2.869529 -29.711561
v 7.123679 -0.011014 -19.309452
v 7.896288 -0.011015 -11.523108
v 6.304482 -4.025506 -11.523108
v 6.251862 -5.435866 -19.309452
v 4.118211 2.471968 -26.457563
v 4.304120 3.545195 0.670375
v 4.304120 -2.943906 0.670377
v 4.118211 -2.943906 -26.457560
v 2.639301 3.507735 0.174095
v 1.579799 1.878645 29.704782
v 1.545217 -2.968707 29.704782
v 2.639301 -2.968707 0.174095
v 6.304485 -2.853553 -29.711559
v 6.251861 4.003478 -11.523108
v 6.251862 5.413839 -19.309452
v 6.251863 2.869529 -29.711559
v -6.203336 -4.025506 -11.523111
v -6.203335 -5.435868 -19.309456
v 6.251862 -5.435866 -19.309452
v 6.199239 -4.025506 -11.523108
v 6.251862 5.413839 -19.309452
v -6.203335 5.413840 -19.309456
v -6.203336 4.003478 -11.523110
v 6.251861 4.003478 -11.523108
v 7.896288 -0.011015 -11.523108
v 6.251861 4.003478 -11.523108
v -6.203336 4.003478 -11.523110
v -7.717240 -0.011015 -11.523111
v -6.203336 -4.025506 -11.523111
v 6.199239 -4.025506 -11.523108
v -3.885857 -2.943907 -26.457565
v 4.118211 -2.943906 -26.457560
v 4.304120 -2.943906 0.670377
v -4.257693 -2.943907 0.670372
v -3.885857 2.471968 -26.457565
v -4.257693 3.545195 0.670376
v 4.304120 3.545195 0.670375
v 4.118211 2.471968 -26.457563
v -4.257693 3.545195 0.670376
v -4.257693 -2.943907 0.670372
v 4.304120 -2.943906 0.670377
v 4.304120 3.545195 0.670375
v -2.572741 -2.968707 0.174091
v 2.639301 -2.968707 0.174095
v 1.545217 -2.968707 29.704782
v -1.478666 -2.968709 29.704782
v -2.572741 3.507735 0.174094
v -1.478666 1.878645 29.704782
v 1.510638 1.878645 29.704782
v 2.639301 3.507735 0.174095
v -1.478666 1.878645 29.704782
v -1.478666 -2.968709 29.704782
v 1.545217 -2.968707 29.704782
v 1.510638 1.878645 29.704782
v -6.203333 -2.853553 -29.711561
v 6.199242 -2.853553 -29.711559
v 6.251863 2.869529 -29.711559
v -6.203333 2.869529 -29.711561
v -6.203333 -2.853553 -29.711561
v -6.203333 2.869529 -29.711561
v 6.251863 2.869529 -29.711559
v 6.199242 -2.853553 -29.711559
vn -0.999653 -0.000080 -0.026347
vn -0.988781 -0.149314 -0.004260
vn -0.959892 -0.277216 -0.041938
vn -0.996043 -0.000000 -0.088868
vn -0.999906 0.000000 -0.013705
vn -0.999906 0.000000 -0.013705
vn -0.999906 0.000000 -0.013705
vn -0.999906 0.000000 -0.013705
vn -0.999314 -0.000000 0.037023
vn -0.999314 -0.000000 0.037023
vn -0.999314 -0.000000 0.037023
vn -0.999314 -0.000000 0.037023
vn -0.996858 -0.042341 -0.066935
vn -0.959892 0.277216 -0.041938
vn -0.988782 0.149314 -0.004034
vn -0.996867 0.042418 -0.066760
vn 0.999589 0.001660 -0.028624
vn 0.995098 0.005483 -0.098740
vn 0.955586 -0.290563 -0.049272
vn 0.987316 -0.158670 -0.005505
vn 0.999976 -0.000000 -0.006853
vn 0.999976 -0.000000 -0.006853
vn 0.999976 -0.000000 -0.006853
vn 0.999976 -0.000000 -0.006853
vn 0.999320 -0.000756 0.036858
vn 0.999346 -0.007130 0.035461
vn 0.999344 -0.006150 0.035676
vn 0.999314 0.000000 0.037024
vn 0.996943 -0.038470 -0.067999
vn 0.953653 0.297294 -0.046501
vn 0.987322 0.158671 -0.004287
vn 0.996263 0.051709 -0.069179
vn 0.000000 -0.983988 0.178232
vn 0.000000 -0.999486 -0.032065
vn 0.000000 -0.999486 -0.032065
vn 0.000000 -0.983988 0.178232
vn 0.000000 0.999539 -0.030343
vn 0.000000 0.999539 -0.030343
vn 0.000000 0.983988 0.178232
vn 0.000000 0.983988 0.178232
vn -0.000000 -0.000000 1.000000
vn -0.000000 -0.000000 1.000000
vn -0.000000 -0.000000 1.000000
vn -0.000000 -0.000000 1.000000
vn -0.000000 -0.000000 1.000000
vn -0.000000 -0.000000 1.000000
vn 0.000000 -1.000000 -0.000000
vn 0.000000 -1.000000 -0.000000
vn 0.000000 -1.000000 -0.000000
vn 0.000000 -1.000000 -0.000000
vn 0.000000 0.999218 -0.039531
vn 0.000000 0.999218 -0.039531
vn 0.000000 0.999218 -0.039531
vn 0.000000 0.999218 -0.039531
vn -0.000000 -0.000000 1.000000
vn -0.000000 -0.000000 1.000000
vn -0.000000 -0.000000 1.000000
vn -0.000000 -0.000000 1.000000
vn 0.000000 -1.000000 -0.000000
vn 0.000000 -1.000000 -0.000000
vn 0.000000 -1.000000 -0.000000
vn 0.000000 -1.000000 -0.000000
vn -0.000000 0.998482 0.055082
vn -0.000000 0.998482 0.055082
vn -0.000000 0.998482 0.055082
vn -0.000000 0.998482 0.055082
vn -0.000000 -0.000000 1.000000
vn -0.000000 -0.000000 1.000000
vn -0.000000 -0.000000 1.000000
vn -0.000000 -0.000000 1.000000
vn 0.000000 -0.970541 -0.240936
vn 0.000000 -0.970541 -0.240936
vn 0.000000 0.971365 -0.237592
vn 0.000000 0.971365 -0.237592
vn 0.000000 -0.000000 -1.000000
vn 0.000000 -0.000000 -1.000000
vn 0.000000 -0.000000 -1.000000
vn 0.000000 -0.000000 -1.000000
vt 0.781988 0.795790
vt 0.781971 0.892560
vt 0.929585 0.867606
vt 0.929074 0.793725
vt 0.956607 0.453359
vt 0.956607 0.358047
vt 0.443340 0.358047
vt 0.443340 0.472246
vt 0.947516 0.630824
vt 0.947516 0.516847
vt 0.388458 0.516847
vt 0.388458 0.602154
vt 0.584788 0.845995
vt 0.927893 0.719854
vt 0.780683 0.699659
vt 0.584622 0.744941
vt 0.781988 0.795790
vt 0.929074 0.793725
vt 0.929585 0.867606
vt 0.781971 0.892560
vt 0.956607 0.453359
vt 0.443340 0.472246
vt 0.443340 0.358047
vt 0.956607 0.358047
vt 0.947516 0.630824
vt 0.388458 0.602154
vt 0.388458 0.516847
vt 0.947516 0.516847
vt 0.584788 0.845995
vt 0.927893 0.719854
vt 0.780683 0.699659
vt 0.584622 0.744941
vt 0.365158 0.256204
vt 0.215776 0.256194
vt 0.215760 0.490831
vt 0.365142 0.490841
vt 0.154143 0.234425
vt 0.154143 -0.000213
vt 0.004761 -0.000213
vt 0.004761 0.234425
vt 0.328407 0.578861
vt 0.294828 0.508212
vt 0.060191 0.508212
vt 0.031550 0.578861
vt 0.060191 0.649510
vt 0.294828 0.649510
vt 0.010320 0.847222
vt 0.009356 1.001125
vt 0.522564 1.004338
vt 0.523572 0.843401
vt 0.898019 0.017382
vt 0.384420 0.013562
vt 0.385427 0.174500
vt 0.898982 0.171286
vt 0.661676 0.212423
vt 0.661676 0.326622
vt 0.822617 0.326622
vt 0.822617 0.212423
vt 0.007556 0.741835
vt 0.007556 0.839784
vt 0.566230 0.819086
vt 0.566230 0.762533
vt 0.566598 0.651385
vt 0.007188 0.672082
vt 0.007188 0.728636
vt 0.566598 0.749333
vt 0.930311 0.016612
vt 0.930311 0.101918
vt 0.986865 0.101918
vt 0.986865 0.016612
vt 0.013807 0.256178
vt 0.013940 0.490817
vt 0.355963 0.234425
vt 0.355963 -0.000213
vt 0.634337 0.321650
vt 0.634480 0.220932
vt 0.399843 0.220600
vt 0.399700 0.321321
g part_0_s36_desc
f 1/1/1 2/2/2 3/3/3
f 3/3/3 4/4/4 1/1/1
f 5/5/5 6/6/6 7/7/7
f 7/7/7 8/8/8 5/5/5
f 9/9/9 10/10/10 11/11/11
f 11/11/11 12/12/12 9/9/9
f 1/1/1 13/13/13 2/2/2
f 14/14/14 15/15/15 1/1/1
f 1/1/1 4/4/4 14/14/14
f 1/1/1 15/15/15 16/16/16
f 16/16/16 13/13/13 1/1/1
f 17/17/17 18/18/18 19/19/19
f 19/19/19 20/20/20 17/17/17
f 21/21/21 22/22/22 23/23/23
f 23/23/23 24/24/24 21/21/21
f 25/25/25 26/26/26 27/27/27
f 27/27/27 28/28/28 25/25/25
f 29/29/29 17/17/17 20/20/20
f 30/30/30 18/18/18 17/17/17
f 17/17/17 31/31/31 30/30/30
f 17/17/17 29/29/29 32/32/32
f 32/32/32 31/31/31 17/17/17
f 33/33/33 34/34/34 35/35/35
f 35/35/35 36/36/36 33/33/33
f 37/37/37 38/38/38 39/39/39
f 39/39/39 40/40/40 37/37/37
f 41/41/41 42/42/42 43/43/43
f 41/41/41 43/43/43 44/44/44
f 41/41/41 44/44/44 45/45/45
f 41/41/41 45/45/45 46/46/46
f 47/47/47 48/48/48 49/49/49
f 49/49/49 50/50/50 47/47/47
f 51/51/51 52/52/52 53/53/53
f 53/53/53 54/54/54 51/51/51
f 55/55/55 56/56/56 57/57/57
f 57/57/57 58/58/58 55/55/55
f 59/59/59 60/60/60 61/61/61
f 61/61/61 62/62/62 59/59/59
f 63/63/63 64/64/64 65/65/65
f 65/65/65 66/66/66 63/63/63
f 67/67/67 68/68/68 69/69/69
f 69/69/69 70/70/70 67/67/67
f 34/34/34 71/71/71 72/72/72
f 72/72/72 35/35/35 34/34/34
f 37/37/37 73/73/73 74/74/74
f 74/74/74 38/38/38 37/37/37
f 75/75/75 76/76/76 77/77/77
f 77/77/77 78/78/78 75/75/75
