# e_vissarr_l_replace
# Parts: 1
v -2.108221 -4.607982 -10.571182
v -2.193057 4.669990 -10.687784
v -2.193877 6.202045 -19.649532
v -2.212419 -6.280355 -19.649532
v -1.810064 -1.882004 1.574740
v -2.168064 1.771872 8.560197
v -1.979736 2.667794 -0.398553
v -0.517548 0.738876 24.083326
v -0.517548 -0.172833 24.910446
v -1.810063 -3.682397 -8.229073
v -1.810064 -1.882004 1.574740
v -1.979736 2.667794 -0.398553
v -1.979735 4.174194 -2.526514
v -1.979734 4.272673 -8.405079
v -1.810063 -3.682397 -8.229073
v -1.979735 4.174194 -2.526514
v -1.810063 -3.682397 -8.229073
v -1.979736 2.667794 -0.398553
v -5.829981 1.607131 -20.385160
v -5.829981 -1.684084 -20.385159
v -5.829983 -1.689052 -4.914591
v -5.829983 1.607130 -4.914592
v -5.829981 1.607131 -20.385160
v -0.073436 2.313102 -20.385159
v -0.073436 -2.388991 -20.385155
v -5.829981 -1.684084 -20.385159
v -0.073438 -2.396088 -4.914590
v -5.829983 -1.689052 -4.914591
v -5.829981 -1.684084 -20.385159
v -0.073436 -2.388991 -20.385155
v -0.073436 2.313102 -20.385159
v -5.829981 1.607131 -20.385160
v -5.829983 1.607130 -4.914592
v -0.073438 2.313102 -4.914589
v -0.073438 2.313102 -4.914589
v -5.829983 1.607130 -4.914592
v -5.829983 -1.689052 -4.914591
v -0.073438 -2.396088 -4.914590
v -2.193877 6.202045 -19.649532
v -2.193057 4.669990 -10.687784
v 2.097814 4.684768 -10.681475
v 2.101851 6.202045 -19.649530
v 2.009297 -4.600593 -10.574338
v 2.107424 -6.280581 -19.649532
v 2.101851 6.202045 -19.649530
v 2.097814 4.684768 -10.681475
v 2.422934 1.771871 8.560198
v 1.937499 -1.882004 1.574741
v 2.097812 2.682572 -0.392242
v -2.193877 6.202045 -19.649532
v 2.101851 6.202045 -19.649530
v 2.107424 -6.280581 -19.649532
v -2.212419 -6.280355 -19.649532
v 0.644977 -0.172834 24.910440
v -0.517548 -0.172833 24.910446
v -1.810064 -1.882004 1.574740
v 1.937499 -1.882004 1.574741
v -2.422936 1.771871 8.560197
v -0.517548 0.738876 24.083326
v 0.644977 0.738875 24.083324
v 2.422934 1.771871 8.560198
v 0.644977 0.738875 24.083324
v -0.517548 0.738876 24.083326
v -0.517548 -0.172833 24.910446
v 0.644977 -0.172834 24.910440
v 0.644977 0.738875 24.083324
v 0.644977 -0.172834 24.910440
v 5.683110 1.607131 -20.385157
v 5.683108 1.607129 -4.914589
v 5.683109 -1.689052 -4.914589
v 5.683110 -1.684084 -20.385157
v 5.683110 1.607131 -20.385157
v 5.683110 -1.684084 -20.385157
v 5.683110 -1.684084 -20.385157
v 5.683109 -1.689052 -4.914589
v 5.683108 1.607129 -4.914589
v 5.683110 1.607131 -20.385157
v 5.683109 -1.689052 -4.914589
v 5.683108 1.607129 -4.914589
v 2.097812 2.682572 -0.392242
v -1.979736 2.667794 -0.398553
v -1.810063 -3.682397 -8.229073
v 1.937501 -3.682397 -8.229074
v 1.937499 -1.882004 1.574741
v -1.810064 -1.882004 1.574740
v -1.979734 4.272673 -8.405079
v -1.979735 4.174194 -2.526514
v 2.097813 4.196836 -2.568962
v 2.097813 4.196836 -2.568962
v 2.097814 4.287451 -8.398767
v -1.979734 4.272673 -8.405079
v 1.937501 -3.682397 -8.229074
v 2.097814 4.287451 -8.398767
v 2.097813 4.196836 -2.568962
v 1.937501 -3.682397 -8.229074
v 2.097813 4.196836 -2.568962
v 2.097812 2.682572 -0.392242
v 1.937499 -1.882004 1.574741
v 1.937501 -3.682397 -8.229074
v 2.097812 2.682572 -0.392242
v 1.937501 -3.682397 -8.229074
v -1.810063 -3.682397 -8.229073
v -1.979734 4.272673 -8.405079
v -1.979734 4.272673 -8.405079
v 2.097814 4.287451 -8.398767
v 1.937501 -3.682397 -8.229074
v -2.108221 -4.607982 -10.571182
v 2.009297 -4.600593 -10.574338
v 2.097814 4.684768 -10.681475
v 2.097814 4.684768 -10.681475
v -2.193057 4.669990 -10.687784
v -2.108221 -4.607982 -10.571182
v 2.097812 2.682572 -0.392242
v 2.097813 4.196836 -2.568962
v -1.979735 4.174194 -2.526514
v -1.979735 4.174194 -2.526514
v -1.979736 2.667794 -0.398553
v 2.097812 2.682572 -0.392242
v 2.107424 -6.280581 -19.649532
v 2.009297 -4.600593 -10.574338
v -2.108221 -4.607982 -10.571182
v -2.212419 -6.280355 -19.649532
vn -0.999977 -0.002711 0.006206
vn -0.999957 -0.009162 -0.001475
vn -0.999981 -0.003855 0.004845
vn -0.999936 0.001485 0.011203
vn -0.996112 -0.088064 -0.002131
vn -0.973398 -0.219698 0.065031
vn -0.998492 -0.048440 -0.025834
vn -0.998241 0.023016 0.054642
vn -0.997550 0.047003 0.051810
vn -0.999384 -0.034520 0.006339
vn -0.999384 -0.034520 0.006339
vn -0.999384 -0.034520 0.006339
vn -0.999772 -0.021332 -0.000358
vn -0.999772 -0.021332 -0.000358
vn -0.999772 -0.021332 -0.000358
vn -0.999847 -0.014264 -0.010098
vn -0.999847 -0.014264 -0.010098
vn -0.999847 -0.014264 -0.010098
vn -0.748908 0.662674 -0.000000
vn -0.748942 -0.662635 -0.000283
vn -0.607939 -0.537948 0.583971
vn -0.607907 0.537909 0.584040
vn 0.000001 -0.000001 -1.000000
vn 0.000001 -0.000001 -1.000000
vn 0.000001 -0.000001 -1.000000
vn 0.000001 -0.000001 -1.000000
vn -0.000000 -0.732710 0.680541
vn -0.607939 -0.537948 0.583971
vn -0.748942 -0.662635 -0.000283
vn -0.000000 -1.000000 -0.000459
vn -0.000000 1.000000 0.000000
vn -0.748908 0.662674 -0.000000
vn -0.607907 0.537909 0.584040
vn -0.000000 0.732555 0.680708
vn -0.000000 0.732555 0.680708
vn -0.607907 0.537909 0.584040
vn -0.607939 -0.537948 0.583971
vn -0.000000 -0.732710 0.680541
vn -0.001022 0.985907 0.167292
vn -0.003643 0.985693 0.168510
vn -0.002619 0.985778 0.168034
vn -0.000000 0.985988 0.166816
vn 0.999976 -0.003495 0.006038
vn 0.999942 0.000446 0.010729
vn 0.999978 -0.004570 0.004758
vn 0.999954 -0.009546 -0.001165
vn 0.965223 -0.253132 0.065330
vn 0.994876 -0.100200 -0.013459
vn 0.997728 -0.052978 -0.041623
vn 0.000001 -0.000001 -1.000000
vn 0.000001 -0.000001 -1.000000
vn 0.000001 -0.000001 -1.000000
vn 0.000001 -0.000001 -1.000000
vn -0.000000 -0.997328 0.073047
vn -0.000000 -0.997328 0.073047
vn -0.000000 -0.997328 0.073047
vn -0.000000 -0.997328 0.073047
vn 0.000000 0.996519 0.083370
vn 0.000001 0.997793 0.066399
vn 0.000001 0.997793 0.066399
vn -0.000527 0.996495 0.083652
vn 0.000003 0.671913 0.740630
vn 0.000003 0.671913 0.740630
vn 0.000003 0.671913 0.740630
vn 0.000003 0.671913 0.740630
vn 0.998291 0.019607 0.055042
vn 0.997550 0.047003 0.051810
vn 0.748908 0.662674 0.000000
vn 0.607907 0.537909 0.584040
vn 0.607939 -0.537948 0.583971
vn 0.748942 -0.662635 -0.000283
vn 0.000001 -0.000001 -1.000000
vn 0.000001 -0.000001 -1.000000
vn 0.748942 -0.662635 -0.000283
vn 0.607939 -0.537948 0.583971
vn 0.607907 0.537909 0.584040
vn 0.748908 0.662674 0.000000
vn 0.607939 -0.537948 0.583971
vn 0.607907 0.537909 0.584040
vn -0.003763 0.994845 0.101339
vn -0.002591 0.994906 0.100769
vn 0.000000 -0.983553 0.180622
vn 0.000000 -0.983553 0.180622
vn 0.000000 -0.983553 0.180622
vn 0.000000 -0.983553 0.180622
vn -0.005378 0.999845 0.016750
vn -0.005378 0.999845 0.016750
vn -0.005378 0.999845 0.016750
vn -0.003648 0.999873 0.015542
vn -0.003648 0.999873 0.015542
vn -0.003648 0.999873 0.015542
vn 0.999798 -0.020117 -0.000313
vn 0.999798 -0.020117 -0.000313
vn 0.999798 -0.020117 -0.000313
vn 0.999863 -0.013565 -0.009436
vn 0.999863 -0.013565 -0.009436
vn 0.999863 -0.013565 -0.009436
vn 0.999453 -0.032528 0.005974
vn 0.999453 -0.032528 0.005974
vn 0.999453 -0.032528 0.005974
vn -0.000000 -0.022120 -0.999755
vn -0.000000 -0.022120 -0.999755
vn -0.000000 -0.022120 -0.999755
vn 0.001625 -0.021320 -0.999771
vn 0.001625 -0.021320 -0.999771
vn 0.001625 -0.021320 -0.999771
vn 0.000746 0.011530 0.999933
vn 0.000746 0.011530 0.999933
vn 0.000746 0.011530 0.999933
vn -0.001514 0.012553 0.999920
vn -0.001514 0.012553 0.999920
vn -0.001514 0.012553 0.999920
vn 0.001387 0.820900 0.571070
vn 0.001387 0.820900 0.571070
vn 0.001387 0.820900 0.571070
vn -0.003852 0.816182 0.577782
vn -0.003852 0.816182 0.577782
vn -0.003852 0.816182 0.577782
vn 0.000472 -0.983409 0.181403
vn 0.001904 -0.983288 0.182046
vn 0.001360 -0.983334 0.181802
vn -0.000052 -0.983452 0.181168
vt 0.311334 0.488792
vt 0.051064 0.492178
vt 0.008309 0.744727
vt 0.359916 0.744755
vt 0.681219 0.047708
vt 0.481728 0.146423
vt 0.732826 0.178099
vt 0.043755 0.097240
vt 0.021473 0.072088
vt 0.959193 0.006440
vt 0.681219 0.047708
vt 0.732826 0.178099
vt 0.792334 0.222866
vt 0.956350 0.230976
vt 0.959193 0.006440
vt 0.792334 0.222866
vt 0.959193 0.006440
vt 0.732826 0.178099
vt 0.801423 0.977615
vt 0.801423 0.884915
vt 0.365684 0.884775
vt 0.365684 0.977615
vt 0.829839 0.889257
vt 0.991692 0.909141
vt 0.991692 0.776703
vt 0.829839 0.796557
vt 0.386796 0.706896
vt 0.386803 0.869969
vt 0.822541 0.869968
vt 0.822535 0.706902
vt 0.395011 0.502379
vt 0.395011 0.665448
vt 0.830750 0.665448
vt 0.830750 0.502379
vt 0.033365 0.247495
vt 0.195218 0.227610
vt 0.195218 0.134771
vt 0.033365 0.114857
vt 0.977960 0.509476
vt 0.976930 0.765445
vt 0.858230 0.765668
vt 0.858091 0.509488
vt 0.311334 0.488792
vt 0.359916 0.744755
vt 0.008309 0.744727
vt 0.051064 0.492178
vt 0.481728 0.146423
vt 0.681219 0.047708
vt 0.732826 0.178099
vt 0.365701 0.743629
vt 0.365701 0.863498
vt 0.014095 0.863498
vt 0.014095 0.743629
vt 0.965977 0.407462
vt 0.965977 0.443795
vt 0.306952 0.480200
vt 0.306952 0.371058
vt 0.463119 0.368538
vt 0.025055 0.318435
vt 0.025057 0.282102
vt 0.463161 0.232051
vt 0.252227 0.145095
vt 0.252227 0.181427
vt 0.217555 0.181427
vt 0.217555 0.145095
vt 0.043755 0.097240
vt 0.021473 0.072088
vt 0.801423 0.977615
vt 0.365684 0.977615
vt 0.365684 0.884775
vt 0.801423 0.884915
vt 0.829839 0.889257
vt 0.829839 0.796557
vt 0.822541 0.869968
vt 0.386803 0.869969
vt 0.830750 0.665448
vt 0.395011 0.665448
vt 0.195218 0.134771
vt 0.195218 0.227610
vt 0.716401 0.241346
vt 0.716563 0.360048
vt 0.026205 0.480200
vt 0.026205 0.371058
vt 0.306952 0.371058
vt 0.306952 0.480200
vt 0.955324 0.359889
vt 0.788467 0.359862
vt 0.790867 0.241159
vt 0.790867 0.241159
vt 0.955000 0.241187
vt 0.955324 0.359889
vt 0.959193 0.006440
vt 0.956350 0.230976
vt 0.792334 0.222866
vt 0.959193 0.006440
vt 0.792334 0.222866
vt 0.732826 0.178099
vt 0.681219 0.047708
vt 0.959193 0.006440
vt 0.732826 0.178099
vt 0.292253 0.875562
vt 0.292253 0.984704
vt 0.068551 0.989746
vt 0.068551 0.989746
vt 0.067726 0.871046
vt 0.292253 0.875562
vt 0.037632 0.984027
vt 0.037632 0.874885
vt 0.297923 0.870370
vt 0.297923 0.870370
vt 0.297095 0.989070
vt 0.037632 0.984027
vt 0.716401 0.241346
vt 0.790867 0.241159
vt 0.788467 0.359862
vt 0.788467 0.359862
vt 0.716563 0.360048
vt 0.716401 0.241346
vt 0.977960 0.509476
vt 0.976930 0.765445
vt 0.858230 0.765668
vt 0.858091 0.509488
g part_0_s36_desc
f 1/1/1 3/3/3 4/4/4
f 4/4/4 2/2/2 3/3/3
f 3/3/3 2/2/2 6/6/6
f 2/2/2 7/7/7 6/6/6
f 6/6/6 7/7/7 5/5/5
f 7/7/7 5/5/5 9/9/9
f 5/5/5 9/9/9 8/8/8
f 9/9/9 8/8/8 12/12/12
f 8/8/8 12/12/12 6/6/6
f 12/12/12 5/5/5 6/6/6
f 6/6/6 10/10/10 5/5/5
f 10/10/10 11/11/11 12/12/12
f 11/11/11 12/12/12 10/10/10
f 10/10/10 5/5/5 12/12/12
f 12/12/12 15/15/15 5/5/5
f 5/5/5 14/14/14 15/15/15
f 15/15/15 13/13/13 14/14/14
f 16/16/16 15/15/15 18/18/18
f 18/18/18 14/14/14 17/17/17
f 17/17/17 14/14/14 19/19/19
f 14/14/14 19/19/19 13/13/13
f 19/19/19 13/13/13 14/14/14
f 13/13/13 14/14/14 17/17/17
f 14/14/14 17/17/17 18/18/18
f 18/18/18 16/16/16 15/15/15
f 15/15/15 16/16/16 20/20/20
f 13/13/13 3/3/3 19/19/19
f 19/19/19 4/4/4 3/3/3
f 3/3/3 4/4/4 23/23/23
f 4/4/4 21/21/21 23/23/23
f 23/23/23 21/21/21 22/22/22
f 21/21/21 22/22/22 24/24/24
f 22/22/22 24/24/24 21/21/21
f 24/24/24 21/21/21 23/23/23
f 21/21/21 23/23/23 29/29/29
f 23/23/23 29/29/29 28/28/28
f 29/29/29 28/28/28 35/35/35
f 28/28/28 35/35/35 3/3/3
f 35/35/35 3/3/3 25/25/25
f 3/3/3 24/24/24 25/25/25
f 25/25/25 2/2/2 24/24/24
f 24/24/24 26/26/26 2/2/2
f 2/2/2 26/26/26 8/8/8
f 26/26/26 8/8/8 6/6/6
f 8/8/8 6/6/6 28/28/28
f 6/6/6 28/28/28 30/30/30
f 28/28/28 30/30/30 9/9/9
f 30/30/30 27/27/27 9/9/9
f 9/9/9 29/29/29 27/27/27
f 29/29/29 27/27/27 9/9/9
f 27/27/27 9/9/9 8/8/8
f 9/9/9 8/8/8 26/26/26
f 8/8/8 26/26/26 27/27/27
f 27/27/27 34/34/34 26/26/26
f 26/26/26 33/33/33 34/34/34
f 34/34/34 32/32/32 33/33/33
f 33/33/33 31/31/31 32/32/32
f 32/32/32 34/34/34 31/31/31
f 31/31/31 32/32/32 33/33/33
f 32/32/32 33/33/33 34/34/34
f 33/33/33 34/34/34 32/32/32
f 34/34/34 32/32/32 33/33/33
f 32/32/32 33/33/33 35/35/35
f 33/33/33 5/5/5 35/35/35
f 35/35/35 5/5/5 12/12/12
f 5/5/5 12/12/12 36/36/36
f 12/12/12 36/36/36 28/28/28
f 36/36/36 28/28/28 6/6/6
f 28/28/28 11/11/11 6/6/6
f 6/6/6 10/10/10 11/11/11
f 11/11/11 10/10/10 38/38/38
f 38/38/38 11/11/11 37/37/37
f 37/37/37 11/11/11 36/36/36
f 11/11/11 36/36/36 37/37/37
f 36/36/36 37/37/37 38/38/38
f 37/37/37 38/38/38 36/36/36
f 36/36/36 38/38/38 35/35/35
f 38/38/38 35/35/35 28/28/28
f 35/35/35 36/36/36 28/28/28
f 28/28/28 35/35/35 36/36/36
f 35/35/35 36/36/36 12/12/12
f 36/36/36 11/11/11 12/12/12
f 11/11/11 36/36/36 37/37/37
f 37/37/37 36/36/36 1/1/1
f 1/1/1 22/22/22 23/23/23
f 23/23/23 4/4/4 1/1/1
f 4/4/4 1/1/1 35/35/35
f 1/1/1 38/38/38 35/35/35
f 35/35/35 10/10/10 38/38/38
f 10/10/10 5/5/5 35/35/35
f 5/5/5 35/35/35 24/24/24
f 35/35/35 24/24/24 22/22/22
f 24/24/24 1/1/1 22/22/22
f 22/22/22 2/2/2 1/1/1
