# e_skirnir_l
# Parts: 1
v -1.471475 -2.002611 22.669651
v 1.538664 -2.002611 22.669651
v 1.538664 3.331754 22.669653
v -1.471475 3.331754 22.669653
v -2.397428 -2.002611 -9.084165
v -1.471475 -2.002611 22.669651
v -1.471475 3.331754 22.669653
v -1.905405 2.834716 -7.639571
v -4.434803 2.713645 -14.788814
v -4.434803 -2.093115 -14.788814
v -4.964099 2.244848 -22.451677
v -4.964099 -0.908037 -22.451677
v -2.129127 -5.387912 -14.788812
v -2.306003 -4.014560 -10.113082
v -1.416320 -5.844515 -22.451674
v 2.466198 -2.002611 -9.084164
v 1.974173 2.834716 -7.639572
v 1.538664 3.331754 22.669653
v 1.538664 -2.002611 22.669651
v 4.503574 2.470515 -14.788811
v 4.434807 -2.093115 -14.788811
v 5.032872 2.218504 -22.451674
v 5.032872 -0.879139 -22.451674
v 2.197897 -5.387912 -14.788812
v 2.381733 -4.023872 -10.134162
v 1.515201 -5.844515 -22.451674
v 1.974173 2.834716 -7.639572
v -1.905405 2.834716 -7.639571
v -1.471475 3.331754 22.669653
v 1.538664 3.331754 22.669653
v -1.471475 -2.002611 22.669651
v -2.397428 -2.002611 -9.084165
v 2.466198 -2.002611 -9.084164
v 1.538664 -2.002611 22.669651
v 5.032872 2.218504 -22.451674
v -4.964099 2.244848 -22.451677
v -1.793173 4.415652 -22.451674
v 1.841355 4.415652 -22.451674
v 1.312058 4.821829 -14.788815
v -1.263879 4.821829 -14.788812
v -2.306003 -4.014560 -10.113082
v -2.129127 -5.387912 -14.788812
v 2.197897 -5.387912 -14.788812
v 2.381733 -4.023872 -10.134162
v -1.905405 2.834716 -7.639571
v -1.263879 4.821829 -14.788812
v -4.434803 2.713645 -14.788814
v 1.841355 4.415652 -22.451674
v -1.793173 4.415652 -22.451674
v -1.416320 -5.844515 -22.451674
v 1.515201 -5.844515 -22.451674
v -1.793173 4.415652 -22.451674
v -4.964099 2.244848 -22.451677
v 2.466198 -2.002611 -9.084164
v -2.397428 -2.002611 -9.084165
v -2.306003 -4.014560 -10.113082
v 2.381733 -4.023872 -10.134162
v 4.503574 2.470515 -14.788811
v 1.312058 4.821829 -14.788815
v 1.974173 2.834716 -7.639572
v 5.032872 2.218504 -22.451674
v 1.841355 4.415652 -22.451674
v 5.032872 -0.879139 -22.451674
v -4.964099 -0.908037 -22.451677
v 1.515201 -5.844515 -22.451674
v -1.416320 -5.844515 -22.451674
vn 0.000000 -0.000000 1.000000
vn 0.000000 -0.000000 1.000000
vn 0.000000 -0.000000 1.000000
vn 0.000000 -0.000000 1.000000
vn -0.978832 -0.062643 0.194842
vn -0.999575 -0.000000 0.029148
vn -0.999575 0.009447 0.027561
vn -0.972240 0.174769 0.155581
vn -0.873912 0.458616 0.161086
vn -0.937240 -0.305508 0.168066
vn -0.895489 0.443727 0.034708
vn -0.961525 -0.273841 0.021926
vn -0.840273 -0.535285 0.086089
vn -0.999115 -0.030681 -0.028784
vn -0.811366 -0.583118 -0.040728
vn 0.979474 -0.061898 0.191833
vn 0.988293 0.058436 0.140933
vn 0.999574 0.009445 0.027611
vn 0.999574 -0.000000 0.029198
vn 0.978822 -0.012466 0.204334
vn 0.937614 -0.305451 0.166068
vn 0.997174 -0.005100 0.074957
vn 0.962740 -0.268848 0.029196
vn 0.846587 -0.525223 0.086203
vn 0.999170 -0.025071 -0.032115
vn 0.815387 -0.577653 -0.038224
vn 0.000000 0.992347 0.123482
vn 0.000000 0.992347 0.123482
vn -0.000000 0.999866 -0.016397
vn -0.000000 0.999866 -0.016397
vn 0.000000 -1.000000 -0.000000
vn -0.000000 -0.854200 0.519945
vn 0.001277 -0.855040 0.518560
vn 0.000000 -1.000000 -0.000000
vn 0.000000 0.000000 -1.000000
vn 0.000000 0.000000 -1.000000
vn 0.000000 0.000000 -1.000000
vn 0.000000 0.000000 -1.000000
vn 0.000000 0.993948 0.109849
vn 0.000000 0.993948 0.109849
vn 0.000292 -0.763244 0.646111
vn 0.000000 -0.984316 0.176416
vn 0.000000 -0.984316 0.176416
vn 0.001365 -0.766561 0.642170
vn -0.972240 0.174769 0.155581
vn -0.551767 0.829914 0.082442
vn -0.873912 0.458616 0.161086
vn 0.000000 0.998598 -0.052932
vn 0.000000 0.998598 -0.052932
vn 0.000000 -0.998229 0.059481
vn 0.000000 -0.998229 0.059481
vn -0.561655 0.827313 -0.009865
vn -0.895489 0.443727 0.034708
vn 0.001277 -0.855040 0.518560
vn -0.000000 -0.854200 0.519945
vn 0.000292 -0.763244 0.646111
vn 0.001365 -0.766561 0.642170
vn 0.591200 0.802456 0.080914
vn 0.586942 0.805277 0.083833
vn 0.584867 0.793860 0.166485
vn 0.575135 0.818057 0.001344
vn 0.567045 0.823674 -0.004492
vn 0.000000 0.000000 -1.000000
vn 0.000000 0.000000 -1.000000
vn 0.000000 0.000000 -1.000000
vn 0.000000 0.000000 -1.000000
vt 0.192316 0.918420
vt 0.192316 0.978982
vt 0.309737 0.978982
vt 0.309737 0.918420
vt 0.302424 0.414630
vt 0.983006 0.414549
vt 0.983006 0.300432
vt 0.335602 0.310982
vt 0.175050 0.313392
vt 0.176176 0.416088
vt 0.011421 0.323322
vt 0.011369 0.394637
vt 0.180707 0.494853
vt 0.279243 0.458705
vt 0.018720 0.526377
vt 0.302424 0.414630
vt 0.335602 0.310982
vt 0.983006 0.300432
vt 0.983006 0.414549
vt 0.175050 0.313392
vt 0.176176 0.416088
vt 0.011421 0.323322
vt 0.011369 0.394637
vt 0.180707 0.494853
vt 0.279243 0.458705
vt 0.018720 0.526377
vt 0.670620 0.182477
vt 0.670436 0.093786
vt 0.003196 0.105563
vt 0.003332 0.173371
vt 0.709191 0.568406
vt 0.010218 0.548024
vt 0.010218 0.656597
vt 0.709191 0.636214
vt 0.907420 0.740249
vt 0.908580 0.961819
vt 0.956364 0.892020
vt 0.956364 0.812015
vt 0.832302 0.163457
vt 0.832408 0.109717
vt 0.956765 0.438295
vt 0.849492 0.442178
vt 0.849482 0.538939
vt 0.955748 0.543150
vt 0.670436 0.093786
vt 0.832408 0.109717
vt 0.827775 0.027582
vt 0.999622 0.178946
vt 1.000068 0.096578
vt 0.680514 0.457850
vt 0.680507 0.524556
vt 1.000068 0.096578
vt 0.998792 0.010836
vt 0.099493 0.799204
vt 0.208066 0.799031
vt 0.205974 0.749290
vt 0.101118 0.748670
vt 0.826360 0.253384
vt 0.832302 0.163457
vt 0.670620 0.182477
vt 0.997162 0.266770
vt 0.999622 0.178946
vt 0.840448 0.740249
vt 0.839176 0.961819
vt 0.730512 0.817018
vt 0.730512 0.883724
g part_0_s36_desc
f 1/1/1 2/2/2 3/3/3
f 3/3/3 4/4/4 1/1/1
f 5/5/5 6/6/6 7/7/7
f 7/7/7 8/8/8 5/5/5
f 9/9/9 10/10/10 5/5/5
f 5/5/5 8/8/8 9/9/9
f 11/11/11 12/12/12 10/10/10
f 10/10/10 9/9/9 11/11/11
f 13/13/13 14/14/14 5/5/5
f 5/5/5 10/10/10 13/13/13
f 12/12/12 15/15/15 13/13/13
f 13/13/13 10/10/10 12/12/12
f 16/16/16 17/17/17 18/18/18
f 18/18/18 19/19/19 16/16/16
f 20/20/20 17/17/17 16/16/16
f 16/16/16 21/21/21 20/20/20
f 22/22/22 20/20/20 21/21/21
f 21/21/21 23/23/23 22/22/22
f 24/24/24 21/21/21 16/16/16
f 16/16/16 25/25/25 24/24/24
f 23/23/23 21/21/21 24/24/24
f 24/24/24 26/26/26 23/23/23
f 27/27/27 28/28/28 29/29/29
f 29/29/29 30/30/30 27/27/27
f 31/31/31 32/32/32 33/33/33
f 33/33/33 34/34/34 31/31/31
f 35/35/35 36/36/36 37/37/37
f 37/37/37 38/38/38 35/35/35
f 27/27/27 39/39/39 40/40/40
f 40/40/40 28/28/28 27/27/27
f 41/41/41 42/42/42 43/43/43
f 43/43/43 44/44/44 41/41/41
f 45/45/45 46/46/46 47/47/47
f 39/39/39 48/48/48 49/49/49
f 49/49/49 40/40/40 39/39/39
f 42/42/42 50/50/50 51/51/51
f 51/51/51 43/43/43 42/42/42
f 47/47/47 46/46/46 52/52/52
f 52/52/52 53/53/53 47/47/47
f 54/54/54 55/55/55 56/56/56
f 56/56/56 57/57/57 54/54/54
f 58/58/58 59/59/59 60/60/60
f 61/61/61 62/62/62 59/59/59
f 59/59/59 58/58/58 61/61/61
f 35/35/35 63/63/63 64/64/64
f 64/64/64 36/36/36 35/35/35
f 63/63/63 65/65/65 66/66/66
f 66/66/66 64/64/64 63/63/63
