# f_supplyship_l
# Parts: 1
v -9.000006 8.500000 34.446247
v 8.999994 8.500000 34.446251
v 9.000007 8.500000 -42.553749
v -8.999993 8.500000 -42.553749
v -9.000006 -8.500000 34.446247
v -9.000006 8.500000 34.446247
v -8.999993 8.500000 -42.553749
v -8.999993 -8.500000 -42.553749
v 9.000007 -8.500000 -42.553749
v 8.999994 -8.500000 34.446251
v -9.000006 -8.500000 34.446247
v -8.999993 -8.500000 -42.553749
v 1.520657 3.400000 61.653748
v -1.372676 3.400000 61.653748
v 1.520657 -0.600000 61.653748
v -1.372676 -0.600000 61.653748
v -1.372676 -0.600000 61.653748
v -1.372676 3.400000 61.653748
v 1.520657 3.400000 61.653748
v -1.372676 3.400000 61.653748
v -1.372676 -0.600000 61.653748
v 1.520657 -0.600000 61.653748
v 1.520657 -0.600000 61.653748
v 8.999994 -8.500000 34.446251
v 8.999994 8.500000 34.446251
v 1.520657 3.400000 61.653748
v 9.000007 -8.500000 -42.553749
v 9.000007 8.500000 -42.553749
v -8.999990 -8.500000 -61.653748
v -4.305291 -8.500000 -61.653748
v -4.305294 -8.500000 -42.553749
v -8.999993 -8.500000 -42.553749
v -4.305294 8.500000 -42.553749
v -4.305291 8.500000 -61.653748
v -8.999990 8.500000 -61.653748
v -8.999993 8.500000 -42.553749
v -4.305294 -8.500000 -42.553749
v -4.305291 -8.500000 -61.653748
v -4.305291 8.500000 -61.653748
v -4.305294 8.500000 -42.553749
v -8.999990 -8.500000 -61.653748
v -8.999993 -8.500000 -42.553749
v -8.999993 8.500000 -42.553749
v -8.999990 8.500000 -61.653748
v -8.999990 8.500000 -61.653748
v -4.305291 8.500000 -61.653748
v -4.305291 -8.500000 -61.653748
v -8.999990 -8.500000 -61.653748
v 4.229106 -8.500000 -42.553749
v 4.305309 -8.500000 -61.653748
v 9.000009 -8.500000 -61.653748
v 9.000007 -8.500000 -42.553749
v 9.000009 8.500000 -61.653748
v 4.305309 8.500000 -61.653748
v 4.229106 8.500000 -42.553749
v 9.000007 8.500000 -42.553749
v 4.305309 8.500000 -61.653748
v 4.305309 -8.500000 -61.653748
v 4.229106 -8.500000 -42.553749
v 4.229106 8.500000 -42.553749
v 9.000007 8.500000 -42.553749
v 9.000007 -8.500000 -42.553749
v 9.000009 -8.500000 -61.653748
v 9.000009 8.500000 -61.653748
v 4.305309 -8.500000 -61.653748
v 4.305309 8.500000 -61.653748
v 9.000009 8.500000 -61.653748
v 9.000009 -8.500000 -61.653748
v -8.999993 -8.500000 -42.553749
v -8.999993 8.500000 -42.553749
v 9.000007 8.500000 -42.553749
v 9.000007 -8.500000 -42.553749
v 0.924992 5.450000 55.711250
v 1.074992 4.162494 55.671249
v -1.075008 4.162494 55.671249
v -0.925008 5.450000 55.711250
v -1.000008 4.054578 56.596249
v -0.824009 5.850000 56.746250
v -0.925008 5.450000 55.711250
v -0.925008 5.450000 55.711250
v -1.075008 4.162494 55.671249
v -1.000008 4.054578 56.596249
v 0.924992 5.450000 55.711250
v 0.823991 5.850000 56.746250
v 0.999991 4.054578 56.596249
v 0.999991 4.054578 56.596249
v 1.074992 4.162494 55.671249
v 0.924992 5.450000 55.711250
v 0.823991 5.850000 56.746250
v 0.924992 5.450000 55.711250
v -0.925008 5.450000 55.711250
v -0.824009 5.850000 56.746250
v 0.999991 4.054578 56.596249
v 0.823991 5.850000 56.746250
v -0.824009 5.850000 56.746250
v -1.000008 4.054578 56.596249
vn -0.000000 0.996478 0.083854
vn -0.000000 0.996478 0.083854
vn 0.000000 1.000000 0.000000
vn 0.000000 1.000000 0.000000
vn -0.992372 0.000000 0.123280
vn -0.991771 0.000000 0.128022
vn -1.000000 0.000000 -0.000000
vn -1.000000 0.000000 -0.000000
vn 0.000000 -1.000000 0.000000
vn -0.000000 -0.991747 0.128210
vn -0.000000 -0.991747 0.128210
vn 0.000000 -1.000000 0.000000
vn -0.000000 0.982881 0.184239
vn -0.000000 0.982881 0.184239
vn -0.000000 -0.960336 0.278844
vn -0.000000 -0.960336 0.278844
vn -0.651231 0.000000 0.758880
vn -0.636146 0.000000 0.771569
vn 0.638298 0.000000 0.769789
vn -0.636146 0.000000 0.771569
vn -0.651231 0.000000 0.758880
vn 0.653441 0.000000 0.756977
vn 0.653441 0.000000 0.756977
vn 0.992653 0.000000 0.120998
vn 0.992073 0.000000 0.125659
vn 0.638298 0.000000 0.769789
vn 1.000000 0.000000 0.000000
vn 1.000000 0.000000 0.000000
vn 0.000000 -1.000000 0.000000
vn 0.000000 -1.000000 0.000000
vn 0.000000 -1.000000 0.000000
vn 0.000000 -1.000000 0.000000
vn 0.000000 1.000000 0.000000
vn 0.000000 1.000000 0.000000
vn 0.000000 1.000000 0.000000
vn 0.000000 1.000000 0.000000
vn 1.000000 0.000000 0.000000
vn 1.000000 0.000000 0.000000
vn 1.000000 0.000000 0.000000
vn 1.000000 0.000000 0.000000
vn -1.000000 0.000000 -0.000000
vn -1.000000 0.000000 -0.000000
vn -1.000000 0.000000 -0.000000
vn -1.000000 0.000000 -0.000000
vn -0.000000 -0.000000 -1.000000
vn -0.000000 -0.000000 -1.000000
vn -0.000000 -0.000000 -1.000000
vn -0.000000 -0.000000 -1.000000
vn 0.000000 -1.000000 0.000000
vn 0.000000 -1.000000 0.000000
vn 0.000000 -1.000000 0.000000
vn 0.000000 -1.000000 0.000000
vn 0.000000 1.000000 0.000000
vn 0.000000 1.000000 0.000000
vn 0.000000 1.000000 0.000000
vn 0.000000 1.000000 0.000000
vn -0.999992 0.000000 -0.003990
vn -0.999992 0.000000 -0.003990
vn -0.999992 0.000000 -0.003990
vn -0.999992 0.000000 -0.003990
vn 1.000000 0.000000 0.000000
vn 1.000000 0.000000 0.000000
vn 1.000000 0.000000 0.000000
vn 1.000000 0.000000 0.000000
vn -0.000000 -0.000000 -1.000000
vn -0.000000 -0.000000 -1.000000
vn -0.000000 -0.000000 -1.000000
vn -0.000000 -0.000000 -1.000000
vn -0.000000 -0.000000 -1.000000
vn -0.000000 -0.000000 -1.000000
vn -0.000000 -0.000000 -1.000000
vn -0.000000 -0.000000 -1.000000
vn 0.000000 0.031053 -0.999518
vn 0.000000 0.031053 -0.999518
vn 0.000000 0.031053 -0.999518
vn 0.000000 0.031053 -0.999518
vn -0.993842 0.092301 0.061312
vn -0.993842 0.092301 0.061312
vn -0.993842 0.092301 0.061312
vn -0.989276 0.112356 0.093319
vn -0.989276 0.112356 0.093319
vn -0.989276 0.112356 0.093319
vn 0.993842 0.092301 0.061312
vn 0.993842 0.092301 0.061312
vn 0.993842 0.092301 0.061312
vn 0.989276 0.112356 0.093320
vn 0.989276 0.112356 0.093320
vn 0.989276 0.112356 0.093320
vn 0.000000 0.932764 -0.360488
vn 0.000000 0.932764 -0.360488
vn 0.000000 0.932764 -0.360488
vn 0.000000 0.932764 -0.360488
vn 0.000000 -0.083256 0.996528
vn 0.000000 -0.083256 0.996528
vn 0.000000 -0.083256 0.996528
vn 0.000000 -0.083256 0.996528
vt 0.227852 0.584078
vt 0.227852 0.721750
vt 0.816789 0.721751
vt 0.816789 0.584077
vt 0.227852 0.454052
vt 0.227852 0.584078
vt 0.816789 0.584077
vt 0.816789 0.454052
vt 0.816788 0.851778
vt 0.227851 0.851774
vt 0.227851 0.989448
vt 0.816788 0.989451
vt 0.016130 0.664547
vt 0.016130 0.642417
vt 0.011159 0.908980
vt 0.011159 0.931110
vt 0.011732 0.514476
vt 0.011732 0.545070
vt 0.841601 0.828298
vt 0.864571 0.828298
vt 0.864571 0.796543
vt 0.841601 0.796543
vt 0.012035 0.791349
vt 0.227851 0.851774
vt 0.227852 0.721750
vt 0.012035 0.760755
vt 0.816788 0.851778
vt 0.816789 0.721751
vt 0.983948 0.762184
vt 0.983949 0.723639
vt 0.827766 0.723639
vt 0.827766 0.762184
vt 0.983949 0.723639
vt 0.827766 0.723639
vt 0.827766 0.762184
vt 0.983948 0.762184
vt 0.981431 0.577863
vt 0.825248 0.577863
vt 0.825248 0.716873
vt 0.981431 0.716873
vt 0.981431 0.577863
vt 0.825248 0.577863
vt 0.825248 0.716873
vt 0.981431 0.716873
vt 0.955817 0.567157
vt 0.994205 0.567157
vt 0.994205 0.428146
vt 0.955817 0.428146
vt 0.827766 0.762184
vt 0.983948 0.762184
vt 0.983949 0.723639
vt 0.827766 0.723639
vt 0.827766 0.723639
vt 0.827766 0.762184
vt 0.983948 0.762184
vt 0.983949 0.723639
vt 0.981431 0.716873
vt 0.981431 0.577863
vt 0.825248 0.577863
vt 0.825248 0.716873
vt 0.981431 0.716873
vt 0.981431 0.577863
vt 0.825248 0.577863
vt 0.825248 0.716873
vt 0.955817 0.428146
vt 0.955817 0.567157
vt 0.994205 0.567157
vt 0.994205 0.428146
vt 0.974380 0.986899
vt 0.974380 0.847675
vt 0.826967 0.847675
vt 0.826967 0.986899
vt 0.913628 0.473267
vt 0.918311 0.433053
vt 0.851191 0.433053
vt 0.855874 0.473267
vt 0.822050 0.434241
vt 0.825736 0.490637
vt 0.855874 0.473267
vt 0.855874 0.473267
vt 0.851191 0.433053
vt 0.822050 0.434241
vt 0.913628 0.473267
vt 0.943766 0.490636
vt 0.947452 0.434241
vt 0.947452 0.434241
vt 0.918311 0.433053
vt 0.913628 0.473267
vt 0.910475 0.507907
vt 0.913628 0.473267
vt 0.855874 0.473267
vt 0.859027 0.507907
vt 0.915969 0.564153
vt 0.910475 0.507907
vt 0.859027 0.507907
vt 0.853532 0.564151
g part_0_s36_desc
f 1/1/1 2/2/2 3/3/3
f 3/3/3 4/4/4 1/1/1
f 5/5/5 6/6/6 7/7/7
f 7/7/7 8/8/8 5/5/5
f 9/9/9 10/10/10 11/11/11
f 11/11/11 12/12/12 9/9/9
f 13/13/13 2/2/2 1/1/1
f 1/1/1 14/14/14 13/13/13
f 11/11/11 10/10/10 15/15/15
f 15/15/15 16/16/16 11/11/11
f 6/6/6 5/5/5 17/17/17
f 17/17/17 18/18/18 6/6/6
f 19/19/19 20/20/20 21/21/21
f 21/21/21 22/22/22 19/19/19
f 23/23/23 24/24/24 25/25/25
f 25/25/25 26/26/26 23/23/23
f 25/25/25 24/24/24 27/27/27
f 27/27/27 28/28/28 25/25/25
f 29/29/29 30/30/30 31/31/31
f 31/31/31 32/32/32 29/29/29
f 33/33/33 34/34/34 35/35/35
f 35/35/35 36/36/36 33/33/33
f 37/37/37 38/38/38 39/39/39
f 39/39/39 40/40/40 37/37/37
f 41/41/41 42/42/42 43/43/43
f 43/43/43 44/44/44 41/41/41
f 45/45/45 46/46/46 47/47/47
f 47/47/47 48/48/48 45/45/45
f 49/49/49 50/50/50 51/51/51
f 51/51/51 52/52/52 49/49/49
f 53/53/53 54/54/54 55/55/55
f 55/55/55 56/56/56 53/53/53
f 57/57/57 58/58/58 59/59/59
f 59/59/59 60/60/60 57/57/57
f 61/61/61 62/62/62 63/63/63
f 63/63/63 64/64/64 61/61/61
f 65/65/65 66/66/66 67/67/67
f 67/67/67 68/68/68 65/65/65
f 69/69/69 70/70/70 71/71/71
f 71/71/71 72/72/72 69/69/69
f 73/73/73 74/74/74 75/75/75
f 75/75/75 76/76/76 73/73/73
f 77/77/77 78/78/78 79/79/79
f 80/80/80 81/81/81 82/82/82
f 83/83/83 84/84/84 85/85/85
f 86/86/86 87/87/87 88/88/88
f 89/89/89 90/90/90 91/91/91
f 91/91/91 92/92/92 89/89/89
f 93/93/93 94/94/94 95/95/95
f 95/95/95 96/96/96 93/93/93
