# e_destroyer_l_exact
# Parts: 1
v -0.672895 3.489447 2.696209
v -0.672895 2.450512 2.326224
v -0.672895 -0.430370 7.778542
v -0.672896 1.630419 8.525909
v 0.672903 3.489447 2.696209
v 0.672902 1.630418 8.525910
v 0.672903 -0.430370 7.778541
v 0.672903 2.450512 2.326225
v -2.043783 1.939111 6.448986
v -2.043783 1.939110 2.858955
v -2.043783 -2.037604 2.858955
v -2.043783 -2.037604 6.448986
v -1.495705 1.000211 1.322935
v -1.495705 -1.098704 1.322935
v -1.495704 1.005621 -6.635871
v -1.495704 -1.104115 -6.635871
v -1.495704 -0.049145 -8.462681
v 2.043791 1.939111 6.448987
v 2.043791 -2.037604 6.448987
v 2.043791 -2.037604 2.858956
v 2.043791 1.939110 2.858956
v 1.495715 -1.098704 1.322935
v 1.495715 1.000211 1.322935
v 1.495717 -1.104115 -6.635870
v 1.495716 1.005622 -6.635870
v 1.495717 -0.049093 -8.481829
v -0.658442 -0.987027 1.626761
v -0.658442 -3.400696 1.626761
v -0.658442 -3.374608 2.681069
v -0.658443 -1.943563 5.982761
v -0.658442 -3.400696 1.626761
v 0.658452 -3.400696 1.626762
v 0.658452 -3.374608 2.681069
v -0.658442 -3.374608 2.681069
v -0.658442 -0.987027 1.626761
v 0.658452 -0.987027 1.626762
v 0.658452 -3.400696 1.626762
v -0.658442 -3.400696 1.626761
v -0.658442 -3.374608 2.681069
v 0.658452 -3.374608 2.681069
v 0.658451 -1.943563 5.982762
v -0.658443 -1.943563 5.982761
v -2.043783 -2.037604 6.448986
v -2.043783 -2.037604 2.858955
v 2.043791 -2.037604 2.858956
v 2.043791 -2.037604 6.448987
v 2.043791 1.939110 2.858956
v -2.043783 1.939110 2.858955
v -2.043783 1.939111 6.448986
v 2.043791 1.939111 6.448987
v -2.043783 1.939111 6.448986
v -2.043783 -2.037604 6.448986
v 2.043791 -2.037604 6.448987
v 2.043791 1.939111 6.448987
v -1.495705 -1.098704 1.322935
v 1.495715 -1.098704 1.322935
v 1.495715 1.000211 1.322935
v -1.495705 1.000211 1.322935
v -1.495704 -1.104115 -6.635871
v 1.495717 -1.104115 -6.635870
v 1.495716 1.005622 -6.635870
v -1.495704 1.005621 -6.635871
v -0.672895 2.450512 2.326224
v 0.672903 2.450512 2.326225
v 0.672903 -0.430370 7.778541
v -0.672895 -0.430370 7.778542
v -0.672895 3.489447 2.696209
v 0.672903 3.489447 2.696209
v 0.672903 2.450512 2.326225
v -0.672895 2.450512 2.326224
v -0.672896 1.630419 8.525909
v 0.672902 1.630418 8.525910
v 0.672903 3.489447 2.696209
v -0.672895 3.489447 2.696209
v -0.672895 -0.430370 7.778542
v 0.672903 -0.430370 7.778541
v 0.672902 1.630418 8.525910
v -0.672896 1.630419 8.525909
v -1.495704 -0.026751 -6.635871
v -1.495704 1.005621 -6.635871
v 1.495716 1.005622 -6.635870
v 1.495716 -0.049042 -6.635870
v -1.495704 -0.049145 -8.462681
v -1.495704 -0.026751 -6.635871
v 1.495716 -0.049042 -6.635870
v 1.495716 -0.049042 -6.635870
v 1.495717 -0.049093 -8.481829
v -1.495704 -0.049145 -8.462681
v 1.495716 -0.049042 -6.635870
v 1.495717 -1.104115 -6.635870
v -1.495704 -1.104115 -6.635871
v -1.495704 -0.071334 -6.635871
v 1.495717 -0.049093 -8.481829
v 1.495716 -0.049042 -6.635870
v -1.495704 -0.071334 -6.635871
v -1.495704 -0.071334 -6.635871
v -1.495704 -0.049145 -8.462681
v 1.495717 -0.049093 -8.481829
vn -1.000000 -0.000000 -0.000000
vn -1.000000 -0.000000 -0.000000
vn -1.000000 -0.000000 -0.000000
vn -1.000000 -0.000000 -0.000000
vn 1.000000 0.000000 0.000000
vn 1.000000 0.000000 0.000000
vn 1.000000 0.000000 0.000000
vn 1.000000 0.000000 0.000000
vn -1.000000 -0.000000 -0.000000
vn -0.990648 0.000000 -0.136439
vn -0.990648 0.000000 -0.136439
vn -1.000000 -0.000000 -0.000000
vn -0.980854 0.000000 -0.194747
vn -0.980854 0.000000 -0.194747
vn -1.000000 -0.000000 -0.000000
vn -1.000000 -0.000000 -0.000000
vn -1.000000 -0.000000 -0.000000
vn 1.000000 0.000000 0.000000
vn 1.000000 0.000000 0.000000
vn 0.990648 0.000000 -0.136439
vn 0.990648 0.000000 -0.136439
vn 0.980854 0.000000 -0.194746
vn 0.980854 0.000000 -0.194746
vn 1.000000 0.000000 0.000000
vn 1.000000 0.000000 0.000000
vn 1.000000 0.000000 0.000000
vn -1.000000 -0.000000 -0.000000
vn -1.000000 -0.000000 -0.000000
vn -1.000000 -0.000000 -0.000000
vn -1.000000 -0.000000 -0.000000
vn -0.000000 -0.999694 0.024737
vn -0.000000 -0.999694 0.024737
vn -0.000000 -0.999694 0.024737
vn -0.000000 -0.999694 0.024737
vn 0.000000 0.000000 -1.000000
vn 0.000000 0.000000 -1.000000
vn 0.000000 0.000000 -1.000000
vn 0.000000 0.000000 -1.000000
vn -0.000000 -0.917524 0.397680
vn -0.000000 -0.917524 0.397680
vn -0.000000 -0.917524 0.397680
vn -0.000000 -0.917524 0.397680
vn -0.000000 -1.000000 0.000000
vn 0.000000 -0.970110 -0.242666
vn 0.000000 -0.970110 -0.242666
vn -0.000000 -1.000000 0.000000
vn 0.000000 0.970110 -0.242666
vn 0.000000 0.970110 -0.242666
vn 0.000000 1.000000 -0.000000
vn 0.000000 1.000000 -0.000000
vn -0.000000 0.000000 1.000000
vn -0.000000 0.000000 1.000000
vn -0.000000 0.000000 1.000000
vn -0.000000 0.000000 1.000000
vn 0.000000 -0.955864 -0.293811
vn 0.000000 -0.955864 -0.293811
vn -0.000000 0.955864 -0.293811
vn -0.000000 0.955864 -0.293811
vn 0.000000 -1.000000 0.000680
vn 0.000000 -1.000000 0.000680
vn -0.000000 1.000000 0.000680
vn -0.000000 1.000000 0.000680
vn 0.000000 -0.884166 -0.467173
vn 0.000000 -0.884166 -0.467173
vn 0.000000 -0.884166 -0.467173
vn 0.000000 -0.884166 -0.467173
vn 0.000000 0.335481 -0.942047
vn 0.000000 0.335481 -0.942047
vn 0.000000 0.335481 -0.942047
vn 0.000000 0.335481 -0.942047
vn 0.000000 0.952731 0.303816
vn 0.000000 0.952731 0.303816
vn 0.000000 0.952731 0.303816
vn 0.000000 0.952731 0.303816
vn 0.000000 -0.340934 0.940087
vn 0.000000 -0.340934 0.940087
vn 0.000000 -0.340934 0.940087
vn 0.000000 -0.340934 0.940087
vn 0.000000 0.000000 -1.000000
vn 0.000000 0.000000 -1.000000
vn 0.000000 0.000000 -1.000000
vn 0.000000 0.000000 -1.000000
vn 0.007451 0.999897 -0.012257
vn 0.007451 0.999897 -0.012257
vn 0.007451 0.999897 -0.012257
vn 0.000000 1.000000 -0.000000
vn 0.000000 1.000000 -0.000000
vn 0.000000 1.000000 -0.000000
vn 0.000000 0.000000 -1.000000
vn 0.000000 0.000000 -1.000000
vn 0.000000 0.000000 -1.000000
vn 0.000000 0.000000 -1.000000
vn 0.007452 -0.999972 0.000028
vn 0.007452 -0.999972 0.000028
vn 0.007452 -0.999972 0.000028
vn -0.000061 -0.999926 -0.012146
vn -0.000061 -0.999926 -0.012146
vn -0.000061 -0.999926 -0.012146
vt 0.125008 0.488363
vt 0.045481 0.487045
vt 0.004635 0.823859
vt 0.124882 0.826554
vt 0.125008 0.488363
vt 0.124882 0.826554
vt 0.004635 0.823859
vt 0.045481 0.487045
vt 0.993697 0.024015
vt 0.758142 0.024029
vt 0.758142 0.282347
vt 0.993697 0.282332
vt 0.653083 0.085052
vt 0.653083 0.221392
vt 0.130877 0.084731
vt 0.130877 0.221775
vt 0.013526 0.153265
vt 0.993697 0.024015
vt 0.993697 0.282332
vt 0.758142 0.282347
vt 0.758142 0.024029
vt 0.653083 0.221392
vt 0.653083 0.085052
vt 0.130877 0.221775
vt 0.130877 0.084731
vt 0.013526 0.153265
vt 0.010898 0.853356
vt 0.010898 0.985632
vt 0.069261 0.984203
vt 0.252031 0.905777
vt 0.630135 0.872061
vt 0.630135 0.932203
vt 0.688515 0.932203
vt 0.688515 0.872061
vt 0.409926 0.886224
vt 0.409926 0.984301
vt 0.625636 0.984301
vt 0.625636 0.886224
vt 0.688515 0.872061
vt 0.688515 0.932203
vt 0.887401 0.932203
vt 0.887401 0.872061
vt 0.018083 0.460169
vt 0.216814 0.460169
vt 0.216814 0.273493
vt 0.018083 0.273493
vt 0.791300 0.452700
vt 0.791300 0.639376
vt 0.990031 0.639376
vt 0.990031 0.452700
vt 0.431405 0.638715
vt 0.165208 0.638715
vt 0.165208 0.866731
vt 0.431405 0.866731
vt 0.316198 0.435139
vt 0.316198 0.298523
vt 0.691915 0.477730
vt 0.691915 0.614346
vt 0.756768 0.435139
vt 0.756768 0.298523
vt 0.251345 0.477731
vt 0.251345 0.614346
vt 0.628331 0.662768
vt 0.628331 0.724230
vt 0.967614 0.724230
vt 0.967614 0.662768
vt 0.493823 0.658423
vt 0.493823 0.719885
vt 0.573361 0.719885
vt 0.573361 0.658423
vt 0.448134 0.746870
vt 0.448134 0.846267
vt 0.995062 0.846267
vt 0.995062 0.746870
vt 0.244535 0.924444
vt 0.244535 0.985906
vt 0.364812 0.985906
vt 0.364812 0.924444
vt 0.900241 0.428682
vt 0.900241 0.384689
vt 0.794012 0.384689
vt 0.794012 0.428682
vt 0.536357 0.581154
vt 0.536357 0.502522
vt 0.430129 0.502522
vt 0.430129 0.502522
vt 0.430129 0.582802
vt 0.536357 0.581154
vt 0.871140 0.305309
vt 0.871140 0.349319
vt 0.977368 0.349319
vt 0.977368 0.305309
vt 0.543934 0.500787
vt 0.543934 0.581068
vt 0.650162 0.581068
vt 0.650162 0.581068
vt 0.650162 0.502436
vt 0.543934 0.500787
g part_0_s36_desc
f 1/1/1 2/2/2 3/3/3
f 3/3/3 4/4/4 1/1/1
f 5/5/5 6/6/6 7/7/7
f 7/7/7 8/8/8 5/5/5
f 9/9/9 10/10/10 11/11/11
f 11/11/11 12/12/12 9/9/9
f 10/10/10 13/13/13 14/14/14
f 14/14/14 11/11/11 10/10/10
f 13/13/13 15/15/15 16/16/16
f 16/16/16 14/14/14 13/13/13
f 15/15/15 17/17/17 16/16/16
f 18/18/18 19/19/19 20/20/20
f 20/20/20 21/21/21 18/18/18
f 21/21/21 20/20/20 22/22/22
f 22/22/22 23/23/23 21/21/21
f 23/23/23 22/22/22 24/24/24
f 24/24/24 25/25/25 23/23/23
f 26/26/26 25/25/25 24/24/24
f 27/27/27 28/28/28 29/29/29
f 29/29/29 30/30/30 27/27/27
f 31/31/31 32/32/32 33/33/33
f 33/33/33 34/34/34 31/31/31
f 35/35/35 36/36/36 37/37/37
f 37/37/37 38/38/38 35/35/35
f 39/39/39 40/40/40 41/41/41
f 41/41/41 42/42/42 39/39/39
f 43/43/43 44/44/44 45/45/45
f 45/45/45 46/46/46 43/43/43
f 47/47/47 48/48/48 49/49/49
f 49/49/49 50/50/50 47/47/47
f 51/51/51 52/52/52 53/53/53
f 53/53/53 54/54/54 51/51/51
f 44/44/44 55/55/55 56/56/56
f 56/56/56 45/45/45 44/44/44
f 47/47/47 57/57/57 58/58/58
f 58/58/58 48/48/48 47/47/47
f 55/55/55 59/59/59 60/60/60
f 60/60/60 56/56/56 55/55/55
f 57/57/57 61/61/61 62/62/62
f 62/62/62 58/58/58 57/57/57
f 63/63/63 64/64/64 65/65/65
f 65/65/65 66/66/66 63/63/63
f 67/67/67 68/68/68 69/69/69
f 69/69/69 70/70/70 67/67/67
f 71/71/71 72/72/72 73/73/73
f 73/73/73 74/74/74 71/71/71
f 75/75/75 76/76/76 77/77/77
f 77/77/77 78/78/78 75/75/75
f 79/79/79 80/80/80 81/81/81
f 81/81/81 82/82/82 79/79/79
f 83/83/83 84/84/84 85/85/85
f 86/86/86 87/87/87 88/88/88
f 89/89/89 90/90/90 91/91/91
f 91/91/91 92/92/92 89/89/89
f 93/93/93 94/94/94 95/95/95
f 96/96/96 97/97/97 98/98/98
