# f_constructionship_l
# Parts: 1
v 3.615702 -7.567765 16.620413
v 8.015702 -7.567765 16.620413
v 8.015702 4.932234 16.620413
v 3.615702 4.932234 16.620413
v 8.015702 4.932234 16.620413
v 8.015702 -7.567765 16.620413
v 8.015703 -7.567765 8.624908
v 8.015703 4.932234 8.624908
v 3.615702 4.932234 16.620413
v 8.015702 4.932234 16.620413
v 8.015703 4.932234 8.624908
v 3.615704 4.932234 8.624908
v 3.615704 -7.567765 8.624908
v 3.615702 -7.567765 16.620413
v 3.615702 4.932234 16.620413
v 3.615704 4.932234 8.624908
v 8.015703 -7.567765 8.624908
v 8.015702 -7.567765 16.620413
v 3.615702 -7.567765 16.620413
v 3.615704 -7.567765 8.624908
v 3.615704 -7.567765 8.624908
v 3.615704 4.932234 8.624908
v -4.634297 8.182235 11.437406
v 4.715703 8.182235 11.437408
v 4.715703 8.182235 7.877795
v -4.634296 8.182235 7.877794
v 4.715705 4.932234 -1.809705
v 4.715703 4.932234 14.874908
v -4.634297 4.932234 14.874906
v -4.634295 4.932234 -1.809706
v 4.715703 8.182235 11.437408
v 4.715703 4.932234 14.874908
v 4.715705 4.932234 -1.809705
v 4.715703 8.182235 7.877795
v 4.715705 4.932234 -1.809705
v -4.634295 4.932234 -1.809706
v -4.634296 8.182235 7.877794
v -4.634295 4.932234 -1.809706
v -4.634297 4.932234 14.874906
v -4.634297 8.182235 11.437406
v -4.634297 8.182235 11.437406
v -4.634297 4.932234 14.874906
v 4.715703 4.932234 14.874908
v 4.715703 8.182235 11.437408
v -7.934297 4.932234 16.620411
v -7.934297 -7.567765 16.620411
v -3.534298 -7.567765 16.620411
v -3.534298 4.932234 16.620411
v -7.934296 -7.567765 8.624907
v -7.934297 -7.567765 16.620411
v -7.934297 4.932234 16.620411
v -7.934296 4.932234 8.624907
v -7.934296 4.932234 8.624907
v -7.934297 4.932234 16.620411
v -3.534298 4.932234 16.620411
v -3.534297 4.932234 8.624907
v -3.534298 4.932234 16.620411
v -3.534298 -7.567765 16.620411
v -3.534297 -7.567765 8.624907
v -3.534297 4.932234 8.624907
v -3.534298 -7.567765 16.620411
v -7.934297 -7.567765 16.620411
v -7.934296 -7.567765 8.624907
v -3.534297 -7.567765 8.624907
v -3.534297 -7.567765 8.624907
v -3.534297 4.932234 8.624907
v -3.534297 4.932234 8.624907
v -3.534297 -7.567765 8.624907
v -3.534293 -7.567765 -16.687592
v -3.534293 4.932234 -16.687592
v -3.534293 -7.567765 -16.687592
v -3.534297 -7.567765 8.624907
v -4.634296 -7.567765 8.624907
v -4.634293 -7.567765 -16.687593
v -3.534293 4.932234 -16.687592
v -3.534293 -7.567765 -16.687592
v -4.634293 -7.567765 -16.687593
v -4.634293 4.932234 -16.687593
v -4.634296 4.932234 8.624907
v -3.534297 4.932234 8.624907
v -3.534293 4.932234 -16.687592
v -4.634293 4.932234 -16.687593
v -4.634293 -7.567765 -16.687593
v -4.634296 -7.567765 8.624907
v -4.634296 4.932234 8.624907
v -4.634293 4.932234 -16.687593
v 3.615707 -7.567765 -16.687592
v 3.615704 -7.567765 8.624908
v 3.615704 4.932234 8.624908
v 3.615707 4.932234 -16.687592
v 4.715703 -7.567765 8.624908
v 3.615704 -7.567765 8.624908
v 3.615707 -7.567765 -16.687592
v 4.715707 -7.567765 -16.687592
v 4.715707 -7.567765 -16.687592
v 3.615707 -7.567765 -16.687592
v 3.615707 4.932234 -16.687592
v 4.715707 4.932234 -16.687592
v 3.615707 4.932234 -16.687592
v 3.615704 4.932234 8.624908
v 4.715703 4.932234 8.624908
v 4.715707 4.932234 -16.687592
v 4.715703 4.932234 8.624908
v 4.715703 -7.567765 8.624908
v 4.715707 -7.567765 -16.687592
v 4.715707 4.932234 -16.687592
vn 0.000000 0.000000 1.000000
vn 0.000000 0.000000 1.000000
vn 0.000000 0.000000 1.000000
vn 0.000000 0.000000 1.000000
vn 1.000000 0.000000 0.000000
vn 1.000000 0.000000 0.000000
vn 0.707107 0.000000 -0.707107
vn 0.707107 0.000000 -0.707107
vn 0.000000 1.000000 0.000000
vn 0.000000 1.000000 0.000000
vn 0.000000 1.000000 0.000000
vn 0.000000 1.000000 0.000000
vn -1.000000 0.000000 -0.000000
vn -1.000000 0.000000 -0.000000
vn -1.000000 0.000000 -0.000000
vn -1.000000 0.000000 -0.000000
vn -0.000000 -1.000000 -0.000000
vn -0.000000 -1.000000 -0.000000
vn -0.000000 -1.000000 -0.000000
vn -0.000000 -1.000000 -0.000000
vn 0.000000 0.000000 -1.000000
vn 0.000000 0.000000 -1.000000
vn 0.000000 1.000000 0.000000
vn 0.000000 1.000000 0.000000
vn 0.000000 0.986932 -0.161137
vn 0.000000 0.986932 -0.161137
vn -0.000000 -1.000000 -0.000000
vn -0.000000 -1.000000 -0.000000
vn -0.000000 -1.000000 -0.000000
vn -0.000000 -1.000000 -0.000000
vn 1.000000 0.000000 0.000000
vn 1.000000 0.000000 0.000000
vn 1.000000 0.000000 0.000000
vn 1.000000 0.000000 0.000000
vn 0.000000 0.948070 -0.318062
vn 0.000000 0.948070 -0.318062
vn -1.000000 0.000000 -0.000000
vn -1.000000 0.000000 -0.000000
vn -1.000000 0.000000 -0.000000
vn -1.000000 0.000000 -0.000000
vn -0.000000 0.726647 0.687011
vn -0.000000 0.726647 0.687011
vn -0.000000 0.726647 0.687011
vn -0.000000 0.726647 0.687011
vn 0.000000 0.000000 1.000000
vn 0.000000 0.000000 1.000000
vn 0.000000 0.000000 1.000000
vn 0.000000 0.000000 1.000000
vn -0.707107 0.000000 -0.707107
vn -1.000000 0.000000 -0.000000
vn -1.000000 0.000000 -0.000000
vn -0.707107 0.000000 -0.707107
vn 0.000000 1.000000 0.000000
vn 0.000000 1.000000 0.000000
vn 0.000000 1.000000 0.000000
vn 0.000000 1.000000 0.000000
vn 1.000000 0.000000 0.000000
vn 1.000000 0.000000 0.000000
vn 1.000000 0.000000 0.000000
vn 1.000000 0.000000 0.000000
vn -0.000000 -1.000000 -0.000000
vn -0.000000 -1.000000 -0.000000
vn -0.000000 -1.000000 -0.000000
vn -0.000000 -1.000000 -0.000000
vn 0.000000 0.000000 -1.000000
vn 0.000000 0.000000 -1.000000
vn 1.000000 0.000000 0.000000
vn 1.000000 0.000000 0.000000
vn 1.000000 0.000000 0.000000
vn 1.000000 0.000000 0.000000
vn -0.000000 -1.000000 -0.000000
vn -0.000000 -1.000000 -0.000000
vn -0.000000 -1.000000 -0.000000
vn -0.000000 -1.000000 -0.000000
vn 0.000000 0.000000 -1.000000
vn 0.000000 0.000000 -1.000000
vn 0.000000 0.000000 -1.000000
vn 0.000000 0.000000 -1.000000
vn 0.000000 1.000000 0.000000
vn 0.000000 1.000000 0.000000
vn 0.000000 1.000000 0.000000
vn 0.000000 1.000000 0.000000
vn -1.000000 0.000000 -0.000000
vn -1.000000 0.000000 -0.000000
vn -1.000000 0.000000 -0.000000
vn -1.000000 0.000000 -0.000000
vn -1.000000 0.000000 -0.000000
vn -1.000000 0.000000 -0.000000
vn -1.000000 0.000000 -0.000000
vn -1.000000 0.000000 -0.000000
vn -0.000000 -1.000000 -0.000000
vn -0.000000 -1.000000 -0.000000
vn -0.000000 -1.000000 -0.000000
vn -0.000000 -1.000000 -0.000000
vn 0.000000 0.000000 -1.000000
vn 0.000000 0.000000 -1.000000
vn 0.000000 0.000000 -1.000000
vn 0.000000 0.000000 -1.000000
vn 0.000000 1.000000 0.000000
vn 0.000000 1.000000 0.000000
vn 0.000000 1.000000 0.000000
vn 0.000000 1.000000 0.000000
vn 1.000000 0.000000 0.000000
vn 1.000000 0.000000 0.000000
vn 1.000000 0.000000 0.000000
vn 1.000000 0.000000 0.000000
vt 0.331846 0.142470
vt 0.237087 0.142470
vt 0.237087 0.437791
vt 0.331846 0.437791
vt 0.237087 0.437791
vt 0.237087 0.142470
vt 0.106792 0.144358
vt 0.106792 0.439679
vt 0.331846 0.437791
vt 0.237087 0.437791
vt 0.237087 0.568089
vt 0.331846 0.568089
vt 0.456834 0.142594
vt 0.331846 0.142470
vt 0.331846 0.437791
vt 0.456834 0.437915
vt 0.237087 0.014417
vt 0.237087 0.142470
vt 0.331846 0.142470
vt 0.331846 0.014417
vt 0.012033 0.144358
vt 0.012033 0.439679
vt 0.155984 0.672711
vt 0.155984 0.961047
vt 0.252540 0.961047
vt 0.252540 0.672711
vt 0.537571 0.961047
vt 0.990330 0.961047
vt 0.990330 0.672712
vt 0.537571 0.672711
vt 0.073013 0.661676
vt 0.016593 0.594998
vt 0.290440 0.594998
vt 0.131438 0.661676
vt 0.537571 0.961047
vt 0.537571 0.672711
vt 0.130505 0.661158
vt 0.289508 0.594480
vt 0.015661 0.594480
vt 0.072081 0.661158
vt 0.155984 0.672711
vt 0.011585 0.672711
vt 0.011585 0.961047
vt 0.155984 0.961047
vt 0.239093 0.440807
vt 0.239093 0.144538
vt 0.334195 0.144538
vt 0.334195 0.440807
vt 0.108275 0.144537
vt 0.239093 0.144538
vt 0.239093 0.440807
vt 0.108275 0.440808
vt 0.239128 0.569617
vt 0.239093 0.440807
vt 0.334195 0.440807
vt 0.334193 0.569617
vt 0.334195 0.440807
vt 0.334195 0.144538
vt 0.459615 0.142773
vt 0.459615 0.439043
vt 0.334195 0.144538
vt 0.239093 0.144538
vt 0.239128 0.014180
vt 0.334193 0.014180
vt 0.013166 0.144537
vt 0.013166 0.440808
vt 0.487026 0.357476
vt 0.487011 0.654280
vt 0.967977 0.654251
vt 0.967996 0.357408
vt 0.968073 0.013512
vt 0.487097 0.013509
vt 0.487086 0.037190
vt 0.968061 0.037191
vt 0.967977 0.654251
vt 0.967996 0.357408
vt 0.991719 0.357380
vt 0.991738 0.654279
vt 0.487057 0.333917
vt 0.487026 0.357476
vt 0.967996 0.357408
vt 0.968032 0.333892
vt 0.968061 0.037191
vt 0.487086 0.037190
vt 0.487057 0.333917
vt 0.968032 0.333892
vt 0.966599 0.656199
vt 0.485283 0.655886
vt 0.485344 0.359194
vt 0.966740 0.359329
vt 0.485147 0.336497
vt 0.485344 0.359194
vt 0.966740 0.359329
vt 0.966467 0.336371
vt 0.990360 0.358712
vt 0.966740 0.359329
vt 0.966599 0.656199
vt 0.990583 0.655823
vt 0.966330 0.016671
vt 0.485010 0.016681
vt 0.485048 0.040132
vt 0.966368 0.040127
vt 0.485147 0.336497
vt 0.485048 0.040132
vt 0.966368 0.040127
vt 0.966467 0.336371
g part_0_s36_desc
f 1/1/1 2/2/2 3/3/3
f 3/3/3 4/4/4 1/1/1
f 5/5/5 6/6/6 7/7/7
f 7/7/7 8/8/8 5/5/5
f 9/9/9 10/10/10 11/11/11
f 11/11/11 12/12/12 9/9/9
f 13/13/13 14/14/14 15/15/15
f 15/15/15 16/16/16 13/13/13
f 17/17/17 18/18/18 19/19/19
f 19/19/19 20/20/20 17/17/17
f 8/8/8 7/7/7 21/21/21
f 21/21/21 22/22/22 8/8/8
f 23/23/23 24/24/24 25/25/25
f 25/25/25 26/26/26 23/23/23
f 27/27/27 28/28/28 29/29/29
f 29/29/29 30/30/30 27/27/27
f 31/31/31 32/32/32 33/33/33
f 33/33/33 34/34/34 31/31/31
f 25/25/25 35/35/35 36/36/36
f 36/36/36 26/26/26 25/25/25
f 37/37/37 38/38/38 39/39/39
f 39/39/39 40/40/40 37/37/37
f 41/41/41 42/42/42 43/43/43
f 43/43/43 44/44/44 41/41/41
f 45/45/45 46/46/46 47/47/47
f 47/47/47 48/48/48 45/45/45
f 49/49/49 50/50/50 51/51/51
f 51/51/51 52/52/52 49/49/49
f 53/53/53 54/54/54 55/55/55
f 55/55/55 56/56/56 53/53/53
f 57/57/57 58/58/58 59/59/59
f 59/59/59 60/60/60 57/57/57
f 61/61/61 62/62/62 63/63/63
f 63/63/63 64/64/64 61/61/61
f 65/65/65 49/49/49 52/52/52
f 52/52/52 66/66/66 65/65/65
f 67/67/67 68/68/68 69/69/69
f 69/69/69 70/70/70 67/67/67
f 71/71/71 72/72/72 73/73/73
f 73/73/73 74/74/74 71/71/71
f 75/75/75 76/76/76 77/77/77
f 77/77/77 78/78/78 75/75/75
f 79/79/79 80/80/80 81/81/81
f 81/81/81 82/82/82 79/79/79
f 83/83/83 84/84/84 85/85/85
f 85/85/85 86/86/86 83/83/83
f 87/87/87 88/88/88 89/89/89
f 89/89/89 90/90/90 87/87/87
f 91/91/91 92/92/92 93/93/93
f 93/93/93 94/94/94 91/91/91
f 95/95/95 96/96/96 97/97/97
f 97/97/97 98/98/98 95/95/95
f 99/99/99 100/100/100 101/101/101
f 101/101/101 102/102/102 99/99/99
f 103/103/103 104/104/104 105/105/105
f 105/105/105 106/106/106 103/103/103
