# f_hyperion_h_gap
# Parts: 1
v 1.268735 1.483792 -22.837439
v 1.268735 1.108310 -22.837439
v 1.268734 1.108310 -18.535147
v 1.268732 -1.436281 -5.447277
v 1.268732 -0.220842 -5.447277
v 1.268734 -0.220841 -18.535147
v 1.268734 -1.436280 -18.535147
v 1.274539 -2.038983 -5.443854
v 1.268734 -2.038982 -18.007254
v 1.268753 0.129596 -5.447277
v 1.268733 1.024222 -5.447277
v 1.268734 1.024223 -18.535147
v 1.268755 0.129597 -18.535147
v 1.268733 1.483791 -5.447277
v 1.318479 2.212180 -5.447235
v 1.268734 2.160182 -18.535147
v 1.268734 1.483792 -18.535147
v 1.268733 1.108309 -5.447277
v 1.268732 1.003208 -4.818965
v 1.268732 1.483791 -4.818965
v 1.268733 1.483791 -5.447277
v 1.239476 2.102448 -4.818902
v 1.318479 2.212180 -5.447235
v 1.268732 1.988928 -4.818965
v 1.268753 0.129596 -4.818965
v 1.268753 0.129596 -5.447277
v 1.268732 -1.436281 -4.818966
v 1.268743 -0.204064 -4.818965
v 1.268732 -1.436281 -5.447277
v 1.283758 -2.063397 -4.818933
v 1.274539 -2.038983 -5.443854
v -1.268739 -0.204063 -4.818965
v -1.268729 -0.220842 -5.447277
v -1.268749 0.129597 -5.447277
v -1.268749 0.129596 -4.818965
v -1.268726 -1.436280 -18.535149
v -1.268726 -1.436280 -20.851414
v -1.268726 -0.220841 -21.562876
v -1.268726 -0.220841 -18.535149
v -1.268747 0.129597 -18.535149
v -1.268746 0.129598 -22.520370
v -1.268726 1.024224 -23.053198
v -1.268726 1.024223 -18.535149
v -1.268726 1.483792 -18.535149
v -1.268726 1.483792 -22.837439
v -1.268726 2.160182 -22.837437
v -1.268726 2.160182 -18.535147
v -1.268726 1.108310 -18.535149
v -1.268729 -1.436280 -5.447277
v -1.274536 -2.038983 -5.443854
v -1.268726 -2.038982 -18.007254
v -1.268749 0.129597 -5.447277
v -1.268728 1.024222 -5.447277
v -1.268728 1.483791 -5.447277
v -1.318475 2.212180 -5.447235
v -1.268728 1.108309 -5.447277
v 1.268735 2.160182 -22.837437
v 1.268735 1.024223 -23.053198
v 1.268755 0.129597 -22.520370
v 1.268734 -0.220841 -21.562876
v 1.268734 -1.436280 -20.851414
v 1.268753 0.129596 -5.447277
v 0.314776 2.159423 -20.011133
v 0.324812 2.157238 -17.483559
v 0.000004 2.157847 -17.483559
v 0.000004 2.159424 -20.011129
v 1.274539 -2.038983 -5.443854
v 1.274541 -2.063397 -18.531727
v 0.000004 -2.063190 -18.532562
v 0.000002 -2.062024 -5.444690
v 1.318481 2.156510 -17.483559
v 1.318479 2.212180 -5.447235
v 0.723044 2.156510 -17.483559
v -1.268729 1.003208 -4.818965
v -1.268728 1.483791 -5.447277
v -1.268728 1.483791 -4.818965
v -1.318475 2.212180 -5.447235
v -1.239472 2.102448 -4.818902
v -1.268728 1.988928 -4.818965
v -1.268749 0.129596 -4.818965
v -1.268749 0.129597 -5.447277
v -1.268729 -1.436280 -4.818966
v -1.268729 -1.436280 -5.447277
v -1.283754 -2.063397 -4.818933
v -1.274536 -2.038983 -5.443854
v 1.268753 0.129596 -4.818965
v 0.304304 2.156509 -5.446321
v 0.770783 2.156510 -19.165571
v 1.318482 2.156510 -19.168051
v 1.132923 -0.220066 -3.534008
v 1.132925 -0.220065 -21.861355
v 1.132925 -1.607701 -21.861355
v 1.132923 -1.607702 -3.534008
v 1.196070 0.194013 -3.534008
v 1.196072 0.194014 -20.092838
v 1.196072 -0.695828 -20.092836
v -1.196064 -0.695828 -20.092836
v -1.196064 0.194014 -20.092838
v -1.196067 0.194013 -3.534009
v -1.196067 -0.695829 -3.534009
v 1.196070 -0.695829 -3.534008
v 0.000002 2.156510 -5.445010
v -0.314768 2.159423 -20.011133
v -0.324804 2.157238 -17.483559
v -1.274536 -2.038983 -5.443854
v -1.274534 -2.063396 -18.531727
v -1.132917 -1.607701 -21.861355
v -1.132917 -0.220065 -21.861355
v -1.132920 -0.220066 -3.534009
v -1.132920 -1.607702 -3.534009
v -1.318475 2.212180 -5.447235
v -1.318474 2.156510 -17.483559
v -0.723036 2.156510 -17.483559
v -0.304300 2.156509 -5.446321
v -1.318473 2.156510 -19.168051
v -0.770774 2.156510 -19.165571
v -1.268726 1.108310 -22.837439
vn -1.000000 0.000000 -0.000002
vn -1.000000 0.000000 -0.000002
vn -1.000000 0.000000 -0.000002
vn -0.999988 -0.004826 -0.000000
vn -1.000000 0.000000 -0.000002
vn -1.000000 0.000000 -0.000002
vn -1.000000 0.000000 -0.000002
vn -0.999956 -0.009339 0.000013
vn -1.000000 0.000000 -0.000002
vn -1.000000 0.000000 -0.000002
vn -1.000000 0.000000 -0.000002
vn -1.000000 0.000000 -0.000002
vn -1.000000 0.000000 -0.000002
vn -0.999455 0.032970 0.001704
vn -0.997670 0.068138 0.003521
vn -0.999999 0.001025 -0.000016
vn -1.000000 0.000000 -0.000002
vn -1.000000 0.000000 -0.000002
vn -1.000000 0.000000 -0.000002
vn -0.999665 0.018660 -0.017924
vn -0.999419 0.034088 -0.000000
vn -0.955412 -0.246136 -0.163113
vn -0.998754 0.003904 -0.049748
vn -0.988641 -0.098695 -0.113352
vn -1.000000 0.000000 -0.000002
vn -1.000000 0.000000 -0.000002
vn -0.999928 -0.011976 0.000002
vn -1.000000 0.000000 -0.000002
vn -0.999959 -0.008371 0.003579
vn -0.999832 -0.016945 0.006996
vn -0.999851 -0.009552 0.014376
vn 1.000000 0.000000 0.000000
vn 1.000000 0.000000 0.000000
vn 1.000000 0.000000 0.000000
vn 1.000000 0.000000 0.000000
vn 1.000000 0.000000 0.000000
vn 1.000000 0.000000 0.000000
vn 1.000000 0.000000 0.000000
vn 1.000000 0.000000 0.000000
vn 1.000000 0.000000 0.000000
vn 1.000000 0.000000 0.000000
vn 1.000000 0.000000 0.000000
vn 1.000000 0.000000 0.000000
vn 1.000000 0.000000 0.000000
vn 1.000000 0.000000 0.000000
vn 1.000000 0.000000 0.000000
vn 0.999999 0.001207 0.000063
vn 1.000000 0.000000 0.000000
vn 0.999988 -0.004826 0.000000
vn 0.999956 -0.009340 0.000014
vn 1.000000 0.000000 0.000000
vn 1.000000 0.000000 0.000000
vn 1.000000 0.000000 0.000000
vn 0.999455 0.032970 0.001704
vn 0.997670 0.068138 0.003522
vn 1.000000 0.000000 0.000000
vn -1.000000 0.000000 -0.000002
vn -1.000000 0.000000 -0.000002
vn -1.000000 0.000000 -0.000002
vn -1.000000 0.000000 -0.000002
vn -1.000000 0.000000 -0.000002
vn -1.000000 0.000000 -0.000002
vn 0.000000 -1.000000 -0.000475
vn -0.000836 -0.999999 0.001169
vn 0.000000 -1.000000 -0.000475
vn 0.000000 -1.000000 -0.000475
vn -0.016947 0.999856 -0.000199
vn 0.000000 0.999998 -0.001756
vn 0.000000 0.999998 -0.001756
vn 0.000000 1.000000 -0.000089
vn -0.000001 -0.999997 0.002313
vn 0.051903 -0.998652 0.000276
vn -0.000632 -0.999995 0.003133
vn 1.000000 0.000000 0.000000
vn 0.999419 0.034088 0.000000
vn 0.999665 0.018660 -0.017924
vn 0.998754 0.003904 -0.049748
vn 0.955412 -0.246135 -0.163113
vn 0.988641 -0.098695 -0.113352
vn 1.000000 0.000000 0.000000
vn 1.000000 0.000000 0.000000
vn 0.999928 -0.011976 0.000003
vn 0.999959 -0.008371 0.003579
vn 0.999832 -0.016946 0.006997
vn 0.999851 -0.009552 0.014376
vn -1.000000 0.000000 -0.000002
vn 0.027339 -0.999626 -0.000014
vn 0.000000 -1.000000 -0.000475
vn 0.000000 -1.000000 -0.000475
vn -1.000000 0.000000 -0.000002
vn -1.000000 0.000000 -0.000002
vn -1.000000 0.000000 -0.000002
vn -1.000000 0.000000 -0.000002
vn -1.000000 0.000000 -0.000002
vn -1.000000 0.000000 -0.000002
vn -1.000000 0.000000 -0.000002
vn 1.000000 0.000000 0.000000
vn 1.000000 0.000000 0.000000
vn 1.000000 0.000000 0.000000
vn 1.000000 0.000000 0.000000
vn -1.000000 0.000000 -0.000002
vn 0.000000 -1.000000 -0.000475
vn 0.000000 -1.000000 -0.000475
vn 0.000836 -0.999999 0.001169
vn 0.016948 0.999856 -0.000199
vn 0.000000 0.999998 -0.001756
vn 1.000000 0.000000 0.000000
vn 1.000000 0.000000 0.000000
vn 1.000000 0.000000 0.000000
vn 1.000000 0.000000 0.000000
vn -0.051903 -0.998652 0.000275
vn -0.000001 -0.999997 0.002313
vn 0.000632 -0.999995 0.003133
vn -0.027339 -0.999626 -0.000014
vn 0.000000 -1.000000 -0.000475
vn 0.000000 -1.000000 -0.000475
vn 1.000000 0.000000 0.000000
vt 0.524162 0.302928
vt 0.524162 0.312345
vt 0.635149 0.312345
vt 0.972781 0.376164
vt 0.972781 0.345682
vt 0.635149 0.345680
vt 0.635149 0.376162
vt 0.972782 0.391280
vt 0.648680 0.391278
vt 0.972781 0.336893
vt 0.972781 0.314456
vt 0.635149 0.314454
vt 0.635149 0.336891
vt 0.972781 0.302930
vt 0.972782 0.284663
vt 0.635150 0.285965
vt 0.635149 0.302928
vt 0.972781 0.312347
vt 0.988990 0.314983
vt 0.988990 0.302930
vt 0.972781 0.302930
vt 0.988991 0.287415
vt 0.972782 0.284663
vt 0.988990 0.290262
vt 0.988990 0.336893
vt 0.972781 0.336893
vt 0.988989 0.376164
vt 0.988990 0.345261
vt 0.972781 0.376164
vt 0.988990 0.391892
vt 0.972782 0.391280
vt 0.988990 0.345261
vt 0.972781 0.345682
vt 0.972781 0.336893
vt 0.988990 0.336893
vt 0.635149 0.376162
vt 0.575396 0.376162
vt 0.575190 0.346468
vt 0.635149 0.345680
vt 0.635149 0.336891
vt 0.525909 0.338320
vt 0.526756 0.315134
vt 0.635149 0.314454
vt 0.635149 0.302928
vt 0.524162 0.302928
vt 0.524162 0.285964
vt 0.635150 0.285965
vt 0.635149 0.312345
vt 0.972781 0.376164
vt 0.972782 0.391280
vt 0.648680 0.391278
vt 0.972781 0.336893
vt 0.972781 0.314456
vt 0.972781 0.302930
vt 0.972782 0.284663
vt 0.972781 0.312347
vt 0.524162 0.285964
vt 0.526756 0.315134
vt 0.525909 0.338320
vt 0.575190 0.346468
vt 0.575396 0.376162
vt 0.972781 0.336893
vt 0.525328 0.303829
vt 0.594078 0.304175
vt 0.594078 0.292976
vt 0.525328 0.292976
vt 0.944802 0.333763
vt 0.529015 0.333763
vt 0.529091 0.291846
vt 0.944878 0.291848
vt 0.594078 0.338444
vt 0.982989 0.338444
vt 0.594078 0.317909
vt 0.988990 0.314983
vt 0.972781 0.302930
vt 0.988990 0.302930
vt 0.972782 0.284663
vt 0.988991 0.287415
vt 0.988990 0.290262
vt 0.988990 0.336893
vt 0.972781 0.336893
vt 0.988989 0.376164
vt 0.972781 0.376164
vt 0.988990 0.391892
vt 0.972782 0.391280
vt 0.988990 0.336893
vt 0.983018 0.303468
vt 0.539730 0.319555
vt 0.539650 0.338444
vt 0.964178 0.338175
vt 0.525909 0.338320
vt 0.525908 0.302543
vt 0.964177 0.302541
vt 0.964178 0.377720
vt 0.638235 0.377724
vt 0.638235 0.341265
vt 0.638235 0.341265
vt 0.638235 0.377724
vt 0.964178 0.377720
vt 0.964178 0.341262
vt 0.964178 0.341262
vt 0.983061 0.292976
vt 0.525328 0.303829
vt 0.594078 0.304175
vt 0.944802 0.333763
vt 0.529015 0.333763
vt 0.523970 0.303903
vt 0.523971 0.338177
vt 0.964178 0.338175
vt 0.964177 0.303901
vt 0.982989 0.338444
vt 0.594078 0.338444
vt 0.594078 0.317909
vt 0.983018 0.303468
vt 0.539650 0.338444
vt 0.539730 0.319555
vt 0.524162 0.312345
g part_0_s36_idesc
f 23/23/23 1/1/1 22/22/22
f 22/22/22 1/1/1 25/25/25
f 1/1/1 25/25/25 14/14/14
f 25/25/25 14/14/14 16/16/16
f 14/14/14 15/15/15 16/16/16
f 16/16/16 13/13/13 15/15/15
f 15/15/15 13/13/13 21/21/21
f 13/13/13 19/19/19 21/21/21
f 21/21/21 19/19/19 24/24/24
f 20/20/20 17/17/17 18/18/18
f 78/78/78 75/75/75 77/77/77
f 77/77/77 76/76/76 75/75/75
f 12/12/12 7/7/7 8/8/8
f 7/7/7 8/8/8 2/2/2
f 8/8/8 4/4/4 2/2/2
f 2/2/2 85/85/85 4/4/4
f 4/4/4 84/84/84 85/85/85
f 85/85/85 83/83/83 84/84/84
f 84/84/84 83/83/83 86/86/86
f 83/83/83 86/86/86 3/3/3
f 86/86/86 3/3/3 9/9/9
f 3/3/3 9/9/9 10/10/10
f 9/9/9 10/10/10 11/11/11
f 10/10/10 5/5/5 11/11/11
f 11/11/11 6/6/6 5/5/5
