# f_hyperion_l
# Parts: 1
v -1.405628 -2.301400 -6.441448
v -1.405628 2.161778 -6.441450
v -1.246639 2.283146 -22.677502
v -1.246639 -2.268994 -22.677502
v -0.895643 -2.333806 3.633326
v -0.768397 -2.555914 22.745649
v -0.768397 2.432028 22.745649
v -0.895644 2.040411 3.633324
v -0.886480 3.938954 -6.435427
v -1.405628 2.161778 -6.441450
v -0.895644 2.040411 3.633324
v -0.895644 2.040411 3.633324
v -0.759946 3.817587 1.883223
v -0.886480 3.938954 -6.435427
v -0.895643 -3.649959 3.631717
v -0.895643 -2.333806 3.633326
v -1.405628 -2.301400 -6.441448
v -1.405628 -2.301400 -6.441448
v -0.906269 -4.095103 -3.022645
v -0.895643 -3.649959 3.631717
v 1.594665 -2.301400 -6.441450
v 1.435683 -2.268994 -22.677502
v 1.435683 2.283146 -22.677502
v 1.594665 2.161778 -6.441450
v 1.084676 -2.333806 3.633325
v 1.084676 2.040411 3.633325
v 0.957423 2.432028 22.745649
v 0.957423 -2.555914 22.745649
v 1.075517 3.938954 -6.435426
v 0.948979 3.817587 1.883224
v 1.084676 2.040411 3.633325
v 1.084676 2.040411 3.633325
v 1.594665 2.161778 -6.441450
v 1.075517 3.938954 -6.435426
v 1.084677 -3.649959 3.631717
v 1.095305 -4.095103 -3.022646
v 1.594665 -2.301400 -6.441450
v 1.594665 -2.301400 -6.441450
v 1.084676 -2.333806 3.633325
v 1.084677 -3.649959 3.631717
v 1.594665 -2.301400 -6.441450
v -1.405628 -2.301400 -6.441448
v -1.246639 -2.268994 -22.677502
v 1.435683 -2.268994 -22.677502
v 1.075517 3.938954 -6.435426
v -0.886480 3.938954 -6.435427
v -0.759946 3.817587 1.883223
v 0.948979 3.817587 1.883224
v -0.768397 -2.555914 22.745649
v 0.957423 -2.555914 22.745649
v 0.957423 2.432028 22.745649
v -0.768397 2.432028 22.745649
v 1.084676 -2.333806 3.633325
v 0.957423 -2.555914 22.745649
v -0.768397 -2.555914 22.745649
v -0.895643 -2.333806 3.633326
v -0.895644 2.040411 3.633324
v -0.768397 2.432028 22.745649
v 0.957423 2.432028 22.745649
v 1.084676 2.040411 3.633325
v 1.095305 -4.095103 -3.022646
v 1.084677 -3.649959 3.631717
v -0.895643 -3.649959 3.631717
v -0.906269 -4.095103 -3.022645
v 1.594665 2.161778 -6.441450
v 1.435683 2.283146 -22.677502
v -1.246639 2.283146 -22.677502
v -1.405628 2.161778 -6.441450
v -0.759946 3.817587 1.883223
v -0.895644 2.040411 3.633324
v 1.084676 2.040411 3.633325
v 0.948979 3.817587 1.883224
v 1.075517 3.938954 -6.435426
v 1.594665 2.161778 -6.441450
v -1.405628 2.161778 -6.441450
v -0.886480 3.938954 -6.435427
v 1.084677 -3.649959 3.631717
v 1.084676 -2.333806 3.633325
v -0.895643 -2.333806 3.633326
v -0.895643 -3.649959 3.631717
v -0.906269 -4.095103 -3.022645
v -1.405628 -2.301400 -6.441448
v 1.594665 -2.301400 -6.441450
v 1.095305 -4.095103 -3.022646
v -1.246640 2.227089 -17.804390
v 1.447800 2.227090 -17.804390
v 1.447800 -2.268995 -17.804390
v -1.246640 -2.268995 -17.804390
vn -0.999791 -0.000000 0.020441
vn -0.999791 -0.000000 0.020441
vn -0.999952 -0.000000 -0.009792
vn -0.999952 -0.000000 -0.009792
vn -0.999593 -0.000000 0.028510
vn -0.999978 -0.000000 0.006658
vn -0.999978 -0.000000 0.006658
vn -0.999593 -0.000000 0.028510
vn -0.958637 0.279861 0.051898
vn -0.958637 0.279861 0.051898
vn -0.958637 0.279861 0.051898
vn -0.995598 0.092259 0.016490
vn -0.995598 0.092259 0.016490
vn -0.995598 0.092259 0.016490
vn -0.998721 -0.000062 0.050555
vn -0.998721 -0.000062 0.050555
vn -0.998721 -0.000062 0.050555
vn -0.971303 -0.237206 0.017419
vn -0.971303 -0.237206 0.017419
vn -0.971303 -0.237206 0.017419
vn 0.999791 0.000000 0.020441
vn 0.999952 0.000000 -0.009791
vn 0.999952 0.000000 -0.009791
vn 0.999791 0.000000 0.020441
vn 0.999593 0.000000 0.028510
vn 0.999593 0.000000 0.028510
vn 0.999978 0.000000 0.006658
vn 0.999978 0.000000 0.006658
vn 0.995598 0.092259 0.016490
vn 0.995598 0.092259 0.016490
vn 0.995598 0.092259 0.016490
vn 0.958637 0.279861 0.051898
vn 0.958637 0.279861 0.051898
vn 0.958637 0.279861 0.051898
vn 0.971303 -0.237206 0.017419
vn 0.971303 -0.237206 0.017419
vn 0.971303 -0.237206 0.017419
vn 0.998721 -0.000062 0.050555
vn 0.998721 -0.000062 0.050555
vn 0.998721 -0.000062 0.050555
vn -0.000000 -0.999998 -0.001996
vn -0.000000 -0.999998 -0.001996
vn -0.000000 -0.999998 -0.001996
vn -0.000000 -0.999998 -0.001996
vn -0.000000 0.999894 0.014588
vn -0.000000 0.999894 0.014588
vn -0.000000 0.999894 0.014588
vn -0.000000 0.999894 0.014588
vn 0.000000 0.000000 1.000000
vn 0.000000 0.000000 1.000000
vn 0.000000 0.000000 1.000000
vn 0.000000 0.000000 1.000000
vn 0.000000 -0.999932 -0.011620
vn 0.000000 -0.999932 -0.011620
vn 0.000000 -0.999932 -0.011620
vn 0.000000 -0.999932 -0.011620
vn 0.000000 0.999790 -0.020486
vn 0.000000 0.999790 -0.020486
vn 0.000000 0.999790 -0.020486
vn 0.000000 0.999790 -0.020486
vn 0.000000 -0.997770 0.066746
vn 0.000000 -0.997770 0.066746
vn 0.000000 -0.997770 0.066746
vn 0.000000 -0.997770 0.066746
vn -0.000000 0.999972 0.007475
vn -0.000000 0.999972 0.007475
vn -0.000000 0.999972 0.007475
vn -0.000000 0.999972 0.007475
vn -0.000000 0.701659 0.712513
vn -0.000000 0.701659 0.712513
vn -0.000000 0.701659 0.712513
vn -0.000000 0.701659 0.712513
vn 0.000000 0.003390 -0.999994
vn 0.000000 0.003390 -0.999994
vn 0.000000 0.003390 -0.999994
vn 0.000000 0.003390 -0.999994
vn 0.000000 -0.001222 0.999999
vn 0.000000 -0.001222 0.999999
vn 0.000000 -0.001222 0.999999
vn 0.000000 -0.001222 0.999999
vn -0.000000 -0.885522 -0.464597
vn -0.000000 -0.885522 -0.464597
vn -0.000000 -0.885522 -0.464597
vn -0.000000 -0.885522 -0.464597
vn 0.000000 0.000000 -1.000000
vn 0.000000 0.000000 -1.000000
vn 0.000000 0.000000 -1.000000
vn 0.000000 0.000000 -1.000000
vt 0.360291 0.144635
vt 0.360291 0.048342
vt 0.010000 0.045724
vt 0.010000 0.143936
vt 0.577654 0.145334
vt 0.990000 0.150126
vt 0.990000 0.042512
vt 0.577654 0.050961
vt 0.360421 0.010000
vt 0.360291 0.048342
vt 0.577654 0.050961
vt 0.577654 0.050961
vt 0.553762 0.012618
vt 0.360421 0.010000
vt 0.577619 0.173730
vt 0.577654 0.145334
vt 0.360291 0.144635
vt 0.360291 0.144635
vt 0.434052 0.183334
vt 0.577619 0.173730
vt 0.360291 0.144635
vt 0.010000 0.143936
vt 0.010000 0.045724
vt 0.360291 0.048342
vt 0.577654 0.145334
vt 0.577654 0.050961
vt 0.990000 0.042512
vt 0.990000 0.150126
vt 0.360421 0.010000
vt 0.553762 0.012618
vt 0.577654 0.050961
vt 0.577654 0.050961
vt 0.360291 0.048342
vt 0.360421 0.010000
vt 0.577619 0.173730
vt 0.434052 0.183334
vt 0.360291 0.144635
vt 0.360291 0.144635
vt 0.577654 0.145334
vt 0.577619 0.173730
vt 0.648967 0.449767
vt 0.648899 0.487001
vt 0.999189 0.487638
vt 0.999257 0.450404
vt 0.604937 0.319142
vt 0.604937 0.281907
vt 0.411578 0.281907
vt 0.411578 0.319142
vt 0.621672 0.776365
vt 0.621672 0.879069
vt 0.918505 0.879069
vt 0.918505 0.776365
vt 0.020082 0.486879
vt 0.432457 0.486879
vt 0.432457 0.449644
vt 0.020082 0.449644
vt 0.433133 0.333717
vt 0.020700 0.333717
vt 0.020700 0.370951
vt 0.433133 0.370951
vt 0.575206 0.449632
vt 0.431639 0.449371
vt 0.431572 0.486606
vt 0.575139 0.486867
vt 0.603432 0.318603
vt 0.953723 0.318603
vt 0.953723 0.281369
vt 0.603432 0.281369
vt 0.478082 0.334014
vt 0.433133 0.333717
vt 0.433133 0.370951
vt 0.478082 0.371249
vt 0.214802 0.834015
vt 0.223858 0.803014
vt 0.171522 0.803014
vt 0.180577 0.834015
vt 0.320516 0.620370
vt 0.320516 0.648766
vt 0.357750 0.648766
vt 0.357750 0.620370
vt 0.575139 0.486867
vt 0.648899 0.487001
vt 0.648967 0.449767
vt 0.575206 0.449632
vt 0.626788 0.560344
vt 0.626788 0.656890
vt 0.909528 0.656890
vt 0.909528 0.560344
g part_0_s36_desc
f 1/1/1 2/2/2 3/3/3
f 3/3/3 4/4/4 1/1/1
f 5/5/5 6/6/6 7/7/7
f 7/7/7 8/8/8 5/5/5
f 1/1/1 5/5/5 8/8/8
f 8/8/8 2/2/2 1/1/1
f 9/9/9 10/10/10 11/11/11
f 12/12/12 13/13/13 14/14/14
f 15/15/15 16/16/16 17/17/17
f 18/18/18 19/19/19 20/20/20
f 21/21/21 22/22/22 23/23/23
f 23/23/23 24/24/24 21/21/21
f 25/25/25 26/26/26 27/27/27
f 27/27/27 28/28/28 25/25/25
f 21/21/21 24/24/24 26/26/26
f 26/26/26 25/25/25 21/21/21
f 29/29/29 30/30/30 31/31/31
f 32/32/32 33/33/33 34/34/34
f 35/35/35 36/36/36 37/37/37
f 38/38/38 39/39/39 40/40/40
f 41/41/41 42/42/42 43/43/43
f 43/43/43 44/44/44 41/41/41
f 45/45/45 46/46/46 47/47/47
f 47/47/47 48/48/48 45/45/45
f 49/49/49 50/50/50 51/51/51
f 51/51/51 52/52/52 49/49/49
f 53/53/53 54/54/54 55/55/55
f 55/55/55 56/56/56 53/53/53
f 57/57/57 58/58/58 59/59/59
f 59/59/59 60/60/60 57/57/57
f 61/61/61 62/62/62 63/63/63
f 63/63/63 64/64/64 61/61/61
f 65/65/65 66/66/66 67/67/67
f 67/67/67 68/68/68 65/65/65
f 69/69/69 70/70/70 71/71/71
f 71/71/71 72/72/72 69/69/69
f 73/73/73 74/74/74 75/75/75
f 75/75/75 76/76/76 73/73/73
f 77/77/77 78/78/78 79/79/79
f 79/79/79 80/80/80 77/77/77
f 81/81/81 82/82/82 83/83/83
f 83/83/83 84/84/84 81/81/81
f 85/85/85 86/86/86 87/87/87
f 87/87/87 88/88/88 85/85/85
