# f_muffuese_l_exact
# Parts: 1
v 0.920642 -1.350553 -2.833768
v 0.904260 -1.351183 -1.654499
v -0.904263 -1.351183 -1.654498
v -0.952648 -1.350553 -2.833767
v 0.489128 -1.124776 8.592186
v 0.657291 -1.320646 14.983500
v -0.657293 -1.320646 14.983500
v -0.489128 -1.124776 8.592186
v -0.593199 -1.578152 7.729721
v 0.593199 -1.578152 7.729721
v -0.656496 1.347063 14.983619
v 0.656498 1.347063 14.983619
v 0.496724 0.906702 8.589849
v -0.496727 0.906702 8.589849
v -0.780569 2.910273 -1.654495
v 0.780567 2.910273 -1.654495
v 0.803541 1.400450 -2.834848
v -0.835547 1.400450 -2.834848
v -0.657293 -1.320646 14.983500
v 0.657291 -1.320646 14.983500
v 0.656498 1.347063 14.983619
v -0.656496 1.347063 14.983619
v 0.489128 -1.124776 8.592186
v 0.593199 -1.578152 7.729721
v 0.592101 1.076650 7.742315
v 0.496724 0.906702 8.589849
v 0.592101 1.076650 7.742315
v -0.592103 1.076650 7.742315
v -0.904263 -1.351183 -1.654498
v -0.780569 2.910273 -1.654495
v -0.835547 1.400450 -2.834848
v -0.952648 -1.350553 -2.833767
v -0.780569 2.910273 -1.654495
v -0.904263 -1.351183 -1.654498
v -0.593199 -1.578152 7.729721
v -0.592103 1.076650 7.742315
v -0.489128 -1.124776 8.592186
v -0.496727 0.906702 8.589849
v 0.904260 -1.351183 -1.654499
v 0.780567 2.910273 -1.654495
v 0.803541 1.400450 -2.834848
v 0.780567 2.910273 -1.654495
v 0.904260 -1.351183 -1.654499
v 0.920642 -1.350553 -2.833768
v 0.803541 1.400450 -2.834848
v 0.528201 2.523586 -15.706561
v -0.528205 2.523585 -15.706561
v -0.835547 1.400450 -2.834848
v -0.577494 -2.265681 -15.706561
v 0.576409 -2.264013 -15.706561
v -0.657293 -1.320646 14.983500
v -0.656496 1.347063 14.983619
v 0.656498 1.347063 14.983619
v 0.657291 -1.320646 14.983500
v -0.528205 2.523585 -15.706561
v -0.577494 -2.265681 -15.706561
v -0.577494 -2.265681 -15.706561
v -0.528205 2.523585 -15.706561
v 0.528201 2.523586 -15.706561
v 0.576409 -2.264013 -15.706561
v 0.780567 2.910273 -1.654495
v -0.780569 2.910273 -1.654495
v 0.576409 -2.264013 -15.706561
v 0.528201 2.523586 -15.706561
v -0.904263 -1.351183 -1.654498
v 0.904260 -1.351183 -1.654499
v -3.250002 0.111477 15.783857
v 3.249997 0.111477 15.783857
v 3.249997 1.361477 15.783857
v -3.250002 1.361477 15.783857
v 3.249997 1.361477 15.783857
v 3.249997 0.111477 15.783857
v 3.249998 0.111477 13.427643
v 3.249998 1.361477 13.427643
v 3.249998 1.361477 13.427643
v -3.250002 1.361477 13.427643
v -3.250002 0.111477 13.427643
v -3.250002 0.111477 15.783857
v -3.250002 1.361477 15.783857
v -3.250002 1.361477 13.427643
v 3.249998 0.111477 13.427643
v -3.250002 0.111477 13.427643
v 3.249998 1.361477 13.427643
v 3.249998 0.111477 13.427643
v -3.250002 0.111477 13.427643
v -3.250002 1.361477 13.427643
v -0.008636 -1.351181 7.479547
v -0.008636 -2.896123 7.302412
v -0.008636 -2.850445 7.485614
v 0.661555 -2.821478 7.478391
v 0.371547 -1.353157 7.480039
v 0.661555 -2.867155 7.295190
v -0.371551 -1.357479 7.463242
v -0.661559 -2.821478 7.478392
v -0.661559 -2.867155 7.295190
vn 0.000000 -0.999387 0.034999
vn -0.000000 -0.999926 -0.012180
vn -0.000000 -0.999926 -0.012180
vn 0.000000 -0.999387 0.034999
vn 0.000000 -0.972953 0.231002
vn -0.000000 -0.999531 -0.030632
vn -0.000000 -0.999531 -0.030632
vn 0.000000 -0.972953 0.231002
vn 0.000000 -0.976313 0.216364
vn 0.000000 -0.976313 0.216364
vn 0.000000 0.997637 -0.068711
vn 0.000000 0.997637 -0.068711
vn -0.000000 0.997686 0.067992
vn -0.000000 0.997686 0.067992
vn -0.000000 0.933520 -0.358524
vn -0.000000 0.934668 -0.355521
vn -0.000000 0.916426 -0.400205
vn 0.000000 0.917418 -0.397925
vn -0.709332 0.000181 0.704875
vn 0.709331 0.000180 0.704875
vn 0.699947 -0.000392 0.714195
vn -0.699947 -0.000392 0.714195
vn 0.998456 -0.001647 0.055525
vn 0.997974 0.004719 0.063439
vn 0.998124 -0.000989 0.061223
vn 0.998939 -0.003682 0.045906
vn -0.000000 0.981010 0.193956
vn -0.000000 0.981010 0.193956
vn -0.998866 0.033980 0.033339
vn -0.999383 0.025447 0.024203
vn -0.999453 0.032914 -0.003333
vn -0.999089 0.042529 0.003634
vn -0.999383 0.025447 0.024203
vn -0.998866 0.033980 0.033339
vn -0.997975 0.004718 0.063440
vn -0.998124 -0.000990 0.061223
vn -0.998456 -0.001648 0.055526
vn -0.998939 -0.003684 0.045906
vn 0.999224 0.033989 0.019895
vn 0.999557 0.025452 0.015399
vn 0.999286 0.032889 -0.018598
vn 0.999557 0.025452 0.015399
vn 0.999224 0.033989 0.019895
vn 0.999060 0.042523 -0.008380
vn -0.000000 0.916426 -0.400205
vn -0.000001 0.996215 0.086926
vn -0.000001 0.996215 0.086926
vn 0.000000 0.917418 -0.397925
vn 0.001442 -0.997479 0.070953
vn 0.001442 -0.997479 0.070953
vn -0.709332 0.000181 0.704875
vn -0.699947 -0.000392 0.714195
vn 0.699947 -0.000392 0.714195
vn 0.709331 0.000180 0.704875
vn -0.999683 0.010288 -0.022972
vn -0.999598 0.014726 -0.024234
vn 0.000000 0.000000 -1.000000
vn 0.000000 0.000000 -1.000000
vn 0.000000 0.000000 -1.000000
vn 0.000000 0.000000 -1.000000
vn -0.000000 0.934668 -0.355521
vn -0.000000 0.933520 -0.358524
vn 0.999657 0.014535 -0.021778
vn 0.999739 0.010067 -0.020507
vn -0.000000 -0.999926 -0.012180
vn -0.000000 -0.999926 -0.012180
vn 0.000000 -0.707107 0.707107
vn 0.000000 -0.707107 0.707107
vn 0.000000 0.707107 0.707107
vn 0.000000 0.707107 0.707107
vn 1.000000 0.000000 0.000000
vn 1.000000 0.000000 0.000000
vn 1.000000 0.000000 0.000000
vn 1.000000 0.000000 0.000000
vn 0.000000 1.000000 0.000000
vn 0.000000 1.000000 0.000000
vn -1.000000 0.000000 -0.000000
vn -1.000000 0.000000 -0.000000
vn -1.000000 0.000000 -0.000000
vn -1.000000 0.000000 -0.000000
vn 0.000000 -1.000000 0.000000
vn 0.000000 -1.000000 0.000000
vn 0.000000 0.000000 -1.000000
vn 0.000000 0.000000 -1.000000
vn 0.000000 0.000000 -1.000000
vn 0.000000 0.000000 -1.000000
vn -1.000000 0.000000 -0.000000
vn -1.000000 0.000000 -0.000000
vn -1.000000 0.000000 -0.000000
vn -0.979894 -0.193593 0.048268
vn -0.979894 -0.193593 0.048268
vn -0.979894 -0.193593 0.048268
vn 0.979890 -0.193610 0.048273
vn 0.979890 -0.193610 0.048273
vn 0.979890 -0.193610 0.048273
vt 0.317466 0.107085
vt 0.256425 0.106237
vt 0.256425 0.012625
vt 0.317466 0.010121
vt 0.348983 0.579798
vt 0.018158 0.588502
vt 0.018158 0.520457
vt 0.348983 0.529162
vt 0.393626 0.523775
vt 0.393626 0.585185
vt 0.012721 0.623621
vt 0.012721 0.691369
vt 0.343407 0.683125
vt 0.343407 0.631865
vt 0.369476 0.714528
vt 0.296687 0.714528
vt 0.295616 0.784925
vt 0.372039 0.784925
vt 0.209134 0.248670
vt 0.088734 0.248670
vt 0.088805 0.493001
vt 0.209061 0.493002
vt 0.357295 0.972167
vt 0.404723 0.994705
vt 0.398742 0.852496
vt 0.353362 0.863323
vt 0.388008 0.688047
vt 0.388008 0.626944
vt 0.233815 0.477597
vt 0.224860 0.249283
vt 0.291276 0.327700
vt 0.296952 0.475202
vt 0.895769 0.733672
vt 0.904725 0.961986
vt 0.402344 0.993779
vt 0.396084 0.851595
vt 0.354883 0.971339
vt 0.350742 0.862512
vt 0.907238 0.963907
vt 0.898700 0.735556
vt 0.294064 0.329656
vt 0.227790 0.251167
vt 0.236328 0.479518
vt 0.299464 0.477182
vt 0.987397 0.132070
vt 0.334773 0.145974
vt 0.334773 0.199333
vt 0.987396 0.214860
vt 0.983782 0.029539
vt 0.983782 0.089267
vt 0.012820 0.995276
vt 0.007206 0.852375
vt 0.009809 0.852540
vt 0.015156 0.995464
vt 0.978594 0.240414
vt 0.988704 0.496842
vt 0.262905 0.778734
vt 0.017882 0.781254
vt 0.017882 0.835301
vt 0.262819 0.837769
vt 0.882007 0.697771
vt 0.882007 0.617219
vt 0.991204 0.499982
vt 0.981550 0.243605
vt 0.879368 0.507674
vt 0.879368 0.601286
vt 0.008194 0.093014
vt 0.242666 0.093014
vt 0.242666 0.138105
vt 0.008194 0.138105
vt 0.542226 0.707099
vt 0.542226 0.771432
vt 0.663492 0.771432
vt 0.663492 0.707099
vt 0.242666 0.223100
vt 0.008194 0.223100
vt 0.403232 0.772694
vt 0.524497 0.772694
vt 0.524497 0.708361
vt 0.403232 0.708361
vt 0.242666 0.008019
vt 0.008194 0.008019
vt 0.272962 0.760269
vt 0.272962 0.709784
vt 0.010441 0.709784
vt 0.010441 0.760269
vt 0.478146 0.800301
vt 0.289772 0.821284
vt 0.295423 0.798957
vt 0.295423 0.798957
vt 0.478146 0.800301
vt 0.289772 0.821284
vt 0.476905 0.801903
vt 0.294878 0.798315
vt 0.289198 0.820635
g part_0_s36_desc
f 1/1/1 2/2/2 3/3/3
f 3/3/3 4/4/4 1/1/1
f 5/5/5 6/6/6 7/7/7
f 7/7/7 8/8/8 5/5/5
f 9/9/9 10/10/10 5/5/5
f 5/5/5 8/8/8 9/9/9
f 11/11/11 12/12/12 13/13/13
f 13/13/13 14/14/14 11/11/11
f 15/15/15 16/16/16 17/17/17
f 17/17/17 18/18/18 15/15/15
f 19/19/19 20/20/20 21/21/21
f 21/21/21 22/22/22 19/19/19
f 23/23/23 24/24/24 25/25/25
f 25/25/25 26/26/26 23/23/23
f 13/13/13 27/27/27 28/28/28
f 28/28/28 14/14/14 13/13/13
f 29/29/29 30/30/30 31/31/31
f 31/31/31 32/32/32 29/29/29
f 33/33/33 34/34/34 35/35/35
f 35/35/35 36/36/36 33/33/33
f 36/36/36 35/35/35 37/37/37
f 37/37/37 38/38/38 36/36/36
f 24/24/24 39/39/39 40/40/40
f 40/40/40 25/25/25 24/24/24
f 41/41/41 42/42/42 43/43/43
f 43/43/43 44/44/44 41/41/41
f 45/45/45 46/46/46 47/47/47
f 47/47/47 48/48/48 45/45/45
f 4/4/4 49/49/49 50/50/50
f 50/50/50 1/1/1 4/4/4
f 37/37/37 51/51/51 52/52/52
f 52/52/52 38/38/38 37/37/37
f 53/53/53 54/54/54 23/23/23
f 23/23/23 26/26/26 53/53/53
f 31/31/31 55/55/55 56/56/56
f 56/56/56 32/32/32 31/31/31
f 57/57/57 58/58/58 59/59/59
f 59/59/59 60/60/60 57/57/57
f 27/27/27 61/61/61 62/62/62
f 62/62/62 28/28/28 27/27/27
f 63/63/63 64/64/64 41/41/41
f 41/41/41 44/44/44 63/63/63
f 65/65/65 66/66/66 10/10/10
f 10/10/10 9/9/9 65/65/65
f 67/67/67 68/68/68 69/69/69
f 69/69/69 70/70/70 67/67/67
f 71/71/71 72/72/72 73/73/73
f 73/73/73 74/74/74 71/71/71
f 70/70/70 69/69/69 75/75/75
f 75/75/75 76/76/76 70/70/70
f 77/77/77 78/78/78 79/79/79
f 79/79/79 80/80/80 77/77/77
f 81/81/81 68/68/68 67/67/67
f 67/67/67 82/82/82 81/81/81
f 83/83/83 84/84/84 85/85/85
f 85/85/85 86/86/86 83/83/83
f 87/87/87 88/88/88 89/89/89
f 90/90/90 91/91/91 92/92/92
f 93/93/93 94/94/94 95/95/95
