# e_gargafalmul_l
# Parts: 1
v 9.169408 -6.984960 -15.031786
v -9.542454 -6.984960 -15.031786
v -9.542454 -6.984956 -31.443144
v 9.169408 -6.984956 -31.443144
v 9.169408 6.968303 -15.031786
v 9.169408 6.968303 -31.443144
v -9.542454 6.968303 -31.443144
v -9.542454 6.968303 -15.031786
v 9.169408 6.968303 -31.443144
v 9.169408 -6.984956 -31.443144
v -9.542454 -6.984956 -31.443144
v -9.542454 6.968303 -31.443144
v -9.542454 6.968303 -15.031786
v -9.542454 -6.984960 -15.031786
v 9.169408 -6.984960 -15.031786
v 9.169408 6.968303 -15.031786
v 3.383953 -4.661781 -17.341330
v 2.400675 -5.854271 -8.588306
v -2.042355 -5.854271 -8.588308
v -3.025634 -4.661781 -17.341330
v -2.405814 3.897983 -4.338321
v 2.400675 3.897983 -4.338320
v 3.383953 5.217429 -31.009533
v -3.389092 5.217429 -31.009533
v 3.383953 5.217429 -31.009533
v 3.383953 0.064888 -31.009533
v -3.025634 0.064888 -31.009533
v -3.389092 5.217429 -31.009533
v -1.086385 2.127460 31.450914
v -1.086385 -1.670259 31.450914
v 1.081246 -1.670259 31.450914
v 1.081246 2.127460 31.450914
v 7.358728 -2.290584 -7.411185
v -6.959136 -2.290584 -7.411185
v -7.950132 -2.345009 -24.986811
v 8.349723 -2.345009 -24.986813
v 7.358728 2.383551 -7.411185
v 8.349723 2.437976 -24.986813
v -7.950132 2.437976 -24.986811
v -6.959136 2.383551 -7.411185
v 8.349723 2.437976 -24.986813
v 8.349723 -2.345009 -24.986813
v -7.950132 -2.345009 -24.986811
v -7.950132 2.437976 -24.986811
v -6.959136 2.383551 -7.411185
v -6.959136 -2.290584 -7.411185
v 7.358728 -2.290584 -7.411185
v 7.358728 2.383551 -7.411185
v 2.400675 -2.284663 -8.554173
v 1.081246 -1.670259 31.450914
v -1.086385 -1.670259 31.450914
v -2.042355 -2.284663 -8.554174
v -1.086385 2.127460 31.450914
v 1.081246 2.127460 31.450914
v 2.400675 -5.854271 -8.588306
v 2.400675 -2.284663 -8.554173
v -2.042355 -2.284663 -8.554174
v -2.042355 -5.854271 -8.588308
v -3.025634 -4.661781 -17.341330
v -3.025634 0.064888 -31.009533
v 3.383953 0.064888 -31.009533
v 3.383953 -4.661781 -17.341330
v -9.542454 6.968303 -31.443144
v -9.542454 -6.984956 -31.443144
v -9.542454 -6.984960 -15.031786
v -9.542454 6.968303 -15.031786
v -1.086385 2.127460 31.450914
v -2.405814 3.897983 -4.338321
v -2.042355 -2.284663 -8.554174
v -1.086385 -1.670259 31.450914
v -7.950132 2.437976 -24.986811
v -7.950132 -2.345009 -24.986811
v -6.959136 -2.290584 -7.411185
v -6.959136 2.383551 -7.411185
v -3.389092 5.217429 -31.009533
v -3.025634 0.064888 -31.009533
v -2.042355 -5.854271 -8.588308
v -2.042355 -2.284663 -8.554174
v -3.025634 0.064888 -31.009533
v -3.025634 0.064888 -31.009533
v -3.025634 -4.661781 -17.341330
v -2.042355 -5.854271 -8.588308
v 9.169408 6.968303 -31.443144
v 9.169408 6.968303 -15.031786
v 9.169408 -6.984960 -15.031786
v 9.169408 -6.984956 -31.443144
v 1.081246 2.127460 31.450914
v 1.081246 -1.670259 31.450914
v 2.400675 -2.284663 -8.554173
v 2.400675 3.897983 -4.338320
v 8.287600 2.437976 -24.986813
v 7.296603 2.383551 -7.411185
v 7.296603 -2.290584 -7.411185
v 8.287600 -2.345009 -24.986813
v 3.383953 0.064888 -31.009533
v 3.383953 5.217429 -31.009533
v 2.400675 -5.854271 -8.588306
v 3.383953 -4.661781 -17.341330
v 3.383953 0.064888 -31.009533
v 3.383953 0.064888 -31.009533
v 2.400675 -2.284663 -8.554173
v 2.400675 -5.854271 -8.588306
vn 0.000000 -1.000000 -0.000000
vn 0.000000 -1.000000 -0.000000
vn 0.000000 -1.000000 -0.000000
vn 0.000000 -1.000000 -0.000000
vn 0.000000 1.000000 0.000000
vn 0.000000 1.000000 0.000000
vn 0.000000 1.000000 0.000000
vn 0.000000 1.000000 0.000000
vn 0.000000 0.000000 -1.000000
vn 0.000000 0.000000 -1.000000
vn 0.000000 0.000000 -1.000000
vn 0.000000 0.000000 -1.000000
vn 0.000000 0.000000 1.000000
vn 0.000000 0.000000 1.000000
vn 0.000000 0.000000 1.000000
vn 0.000000 0.000000 1.000000
vn 0.000000 -0.990847 -0.134990
vn 0.000000 -0.990847 -0.134990
vn 0.000000 -0.990847 -0.134990
vn 0.000000 -0.990847 -0.134990
vn -0.000000 0.998779 0.049410
vn -0.000000 0.998779 0.049410
vn -0.000000 0.998779 0.049410
vn -0.000000 0.998779 0.049410
vn 0.000000 0.000000 -1.000000
vn 0.000000 0.000000 -1.000000
vn 0.000000 0.000000 -1.000000
vn 0.000000 0.000000 -1.000000
vn 0.000000 0.000000 1.000000
vn 0.000000 0.000000 1.000000
vn 0.000000 0.000000 1.000000
vn 0.000000 0.000000 1.000000
vn 0.000000 -0.999995 0.003097
vn 0.000000 -0.999995 0.003097
vn 0.000000 -0.999995 0.003097
vn 0.000000 -0.999995 0.003097
vn 0.000000 0.999995 0.003097
vn 0.000000 0.999995 0.003097
vn 0.000000 0.999995 0.003097
vn 0.000000 0.999995 0.003097
vn 0.000000 0.000000 -1.000000
vn 0.000000 0.000000 -1.000000
vn 0.000000 0.000000 -1.000000
vn 0.000000 0.000000 -1.000000
vn 0.000000 0.000000 1.000000
vn 0.000000 0.000000 1.000000
vn 0.000000 0.000000 1.000000
vn 0.000000 0.000000 1.000000
vn -0.000000 -0.999882 0.015356
vn -0.000000 -0.999882 0.015356
vn -0.000000 -0.999882 0.015356
vn -0.000000 -0.999882 0.015356
vn -0.000000 0.998779 0.049410
vn -0.000000 0.998779 0.049410
vn -0.000000 -0.009562 0.999954
vn -0.000000 -0.009562 0.999954
vn -0.000000 -0.009562 0.999954
vn -0.000000 -0.009562 0.999954
vn 0.000000 -0.945085 -0.326825
vn 0.000000 -0.945085 -0.326825
vn 0.000000 -0.945085 -0.326825
vn 0.000000 -0.945085 -0.326825
vn -1.000000 0.000000 0.000000
vn -1.000000 0.000000 0.000000
vn -1.000000 0.000000 0.000000
vn -1.000000 0.000000 0.000000
vn -0.999661 -0.007974 0.024768
vn -0.996185 -0.080637 0.033359
vn -0.996263 -0.079402 0.033998
vn -0.999715 0.000000 0.023889
vn -0.998414 0.000000 0.056295
vn -0.998414 0.000000 0.056295
vn -0.998414 0.000000 0.056295
vn -0.998414 0.000000 0.056295
vn -0.996969 -0.070326 0.033276
vn -0.996833 -0.072111 0.033529
vn -0.999044 -0.000418 0.043703
vn -0.999044 -0.000418 0.043703
vn -0.999044 -0.000418 0.043703
vn -0.869839 0.466244 0.161234
vn -0.869839 0.466244 0.161234
vn -0.869839 0.466244 0.161234
vn 1.000000 0.000000 0.000000
vn 1.000000 0.000000 0.000000
vn 1.000000 0.000000 0.000000
vn 1.000000 0.000000 0.000000
vn 0.999445 -0.002388 0.033227
vn 0.999457 0.000000 0.032964
vn 0.998898 -0.025956 0.039095
vn 0.999030 -0.023747 0.037077
vn 0.998414 0.000000 0.056295
vn 0.998414 0.000000 0.056295
vn 0.998414 0.000000 0.056295
vn 0.998414 0.000000 0.056295
vn 0.999291 -0.004103 0.037430
vn 0.999321 0.000000 0.036842
vn 0.869839 0.466244 0.161234
vn 0.869839 0.466244 0.161234
vn 0.869839 0.466244 0.161234
vn 0.999044 -0.000418 0.043703
vn 0.999044 -0.000418 0.043703
vn 0.999044 -0.000418 0.043703
vt 0.735386 0.449751
vt 0.988422 0.449751
vt 0.988422 0.236360
vt 0.735386 0.236360
vt 0.065325 0.180115
vt 0.065325 0.393506
vt 0.318361 0.393506
vt 0.318361 0.180115
vt 0.470127 0.792623
vt 0.470127 0.981310
vt 0.723163 0.981310
vt 0.723163 0.792623
vt 0.738248 0.466448
vt 0.738248 0.655134
vt 0.991284 0.655135
vt 0.991284 0.466448
vt 0.503139 0.574484
vt 0.388189 0.587781
vt 0.388190 0.652838
vt 0.503139 0.666135
vt 0.372074 0.741918
vt 0.372074 0.676861
vt 0.024818 0.663564
vt 0.024818 0.755214
vt 0.606125 0.464527
vt 0.606125 0.534204
vt 0.697776 0.534204
vt 0.697776 0.464527
vt 0.753769 0.108149
vt 0.702413 0.108149
vt 0.702413 0.137522
vt 0.753769 0.137522
vt 0.511971 0.249834
vt 0.511971 0.443451
vt 0.740502 0.456852
vt 0.740502 0.236433
vt 0.265197 0.794215
vt 0.036666 0.780814
vt 0.036666 1.001234
vt 0.265197 0.987832
vt 0.768066 0.155190
vt 0.768066 0.219869
vt 0.988485 0.219869
vt 0.988486 0.155190
vt 0.112216 0.555672
vt 0.112216 0.618880
vt 0.305833 0.618880
vt 0.305833 0.555672
vt 0.559168 0.457884
vt 0.038930 0.475726
vt 0.038930 0.505099
vt 0.559169 0.522942
vt 0.838045 0.724075
vt 0.838045 0.694703
vt 0.988029 0.746939
vt 0.988029 0.698666
vt 0.922972 0.698666
vt 0.922972 0.746939
vt 0.503139 0.666135
vt 0.692007 0.666135
vt 0.692007 0.574484
vt 0.503139 0.574484
vt 0.766527 0.792996
vt 0.766527 0.981683
vt 0.979919 0.981683
vt 0.979919 0.792996
vt 0.922776 0.025149
vt 0.456255 0.020280
vt 0.405436 0.106321
vt 0.924893 0.076448
vt 0.466956 0.159135
vt 0.466956 0.223814
vt 0.695879 0.223078
vt 0.695879 0.159871
vt 0.108521 0.020087
vt 0.112024 0.089693
vt 0.407562 0.154518
vt 0.405436 0.106321
vt 0.112024 0.089693
vt 0.112024 0.089693
vt 0.292581 0.144337
vt 0.407562 0.154518
vt 0.766527 0.792996
vt 0.979919 0.792996
vt 0.979919 0.981683
vt 0.766527 0.981683
vt 0.922776 0.025149
vt 0.924893 0.076448
vt 0.405436 0.106321
vt 0.456255 0.020280
vt 0.466956 0.159135
vt 0.695879 0.159871
vt 0.695879 0.223078
vt 0.466956 0.223814
vt 0.112024 0.089693
vt 0.108521 0.020087
vt 0.407562 0.154518
vt 0.292581 0.144337
vt 0.112024 0.089693
vt 0.112024 0.089693
vt 0.405436 0.106321
vt 0.407562 0.154518
g part_0_s36_desc
f 1/1/1 2/2/2 3/3/3
f 3/3/3 4/4/4 1/1/1
f 5/5/5 6/6/6 7/7/7
f 7/7/7 8/8/8 5/5/5
f 9/9/9 10/10/10 11/11/11
f 11/11/11 12/12/12 9/9/9
f 13/13/13 14/14/14 15/15/15
f 15/15/15 16/16/16 13/13/13
f 17/17/17 18/18/18 19/19/19
f 19/19/19 20/20/20 17/17/17
f 21/21/21 22/22/22 23/23/23
f 23/23/23 24/24/24 21/21/21
f 25/25/25 26/26/26 27/27/27
f 27/27/27 28/28/28 25/25/25
f 29/29/29 30/30/30 31/31/31
f 31/31/31 32/32/32 29/29/29
f 33/33/33 34/34/34 35/35/35
f 35/35/35 36/36/36 33/33/33
f 37/37/37 38/38/38 39/39/39
f 39/39/39 40/40/40 37/37/37
f 41/41/41 42/42/42 43/43/43
f 43/43/43 44/44/44 41/41/41
f 45/45/45 46/46/46 47/47/47
f 47/47/47 48/48/48 45/45/45
f 49/49/49 50/50/50 51/51/51
f 51/51/51 52/52/52 49/49/49
f 21/21/21 53/53/53 54/54/54
f 54/54/54 22/22/22 21/21/21
f 55/55/55 56/56/56 57/57/57
f 57/57/57 58/58/58 55/55/55
f 59/59/59 60/60/60 61/61/61
f 61/61/61 62/62/62 59/59/59
f 63/63/63 64/64/64 65/65/65
f 65/65/65 66/66/66 63/63/63
f 67/67/67 68/68/68 69/69/69
f 69/69/69 70/70/70 67/67/67
f 71/71/71 72/72/72 73/73/73
f 73/73/73 74/74/74 71/71/71
f 68/68/68 75/75/75 76/76/76
f 76/76/76 69/69/69 68/68/68
f 77/77/77 78/78/78 79/79/79
f 80/80/80 81/81/81 82/82/82
f 83/83/83 84/84/84 85/85/85
f 85/85/85 86/86/86 83/83/83
f 87/87/87 88/88/88 89/89/89
f 89/89/89 90/90/90 87/87/87
f 91/91/91 92/92/92 93/93/93
f 93/93/93 94/94/94 91/91/91
f 90/90/90 89/89/89 95/95/95
f 95/95/95 96/96/96 90/90/90
f 97/97/97 98/98/98 99/99/99
f 100/100/100 101/101/101 102/102/102
