# e_ostmark_l
# Parts: 1
v -2.580227 4.655124 -9.836675
v -2.829005 4.301235 -15.806213
v -5.619717 4.301235 -15.806213
v -5.630670 4.655124 -9.836674
v -5.619717 4.301235 -15.806213
v -2.829005 4.301235 -15.806213
v -2.778207 -1.420534 -15.787416
v -5.619717 -1.420534 -15.787416
v -5.630670 4.655124 -9.836674
v -5.619717 4.301235 -15.806213
v -5.619717 -1.420534 -15.787416
v -0.051973 6.571833 0.789017
v -5.630670 6.571833 0.789017
v -5.630670 -1.420534 0.751879
v -0.051973 -1.420534 0.751883
v -0.051971 7.424450 -4.484220
v -5.630670 7.424451 -4.484217
v -5.630670 6.571833 0.789017
v -0.051973 6.571833 0.789017
v -5.630670 6.571833 0.789017
v -5.630670 7.424451 -4.484217
v -5.630670 -1.420534 0.751879
v -5.619717 -1.420534 -15.787416
v -2.778207 -1.420534 -15.787416
v -0.051973 -1.420534 0.751883
v -5.630670 -1.420534 0.751879
v -0.051971 7.424450 -4.484220
v -2.580227 4.655124 -9.836675
v -2.580227 4.655124 -9.836675
v 2.476282 4.655124 -9.836675
v 5.526725 4.655124 -9.836674
v 5.515771 4.301235 -15.806213
v 2.530980 4.301235 -15.806213
v 5.515771 4.301235 -15.806213
v 5.515771 -1.420534 -15.787416
v 2.928360 -1.420534 -15.787416
v 2.530980 4.301235 -15.806213
v 5.515771 4.301235 -15.806213
v 5.526725 4.655124 -9.836674
v 5.515771 -1.420534 -15.787416
v -0.051973 6.571833 0.789017
v 5.526725 -1.420534 0.751879
v 5.526725 6.571833 0.789017
v -0.051971 7.424450 -4.484220
v -0.051973 6.571833 0.789017
v 5.526725 6.571833 0.789017
v 5.526725 7.424451 -4.484217
v 5.526725 7.424451 -4.484217
v 5.526725 6.571833 0.789017
v 5.526725 -1.420534 0.751879
v 5.515771 -1.420534 -15.787416
v 5.526725 -1.420534 0.751879
v 2.928360 -1.420534 -15.787416
v 2.476282 4.655124 -9.836675
v 2.476282 4.655124 -9.836675
v -0.051971 7.424450 -4.484220
v 2.638460 -1.540734 -24.448277
v 2.015767 -8.885794 -18.064140
v 1.673024 -8.171020 -24.444418
v 1.955510 -1.553185 3.691003
v -2.050468 -8.885794 -18.064140
v -2.367589 -1.540734 -24.448277
v -1.707725 -8.171020 -24.444416
v -1.996482 -1.546563 3.693605
v 1.423235 2.546891 29.534140
v 1.423235 -1.835857 29.534140
v 2.542209 -2.536222 -15.794108
v 2.565396 4.727402 -15.846079
v -1.447645 2.546891 29.534140
v -2.571965 4.727402 -15.846079
v -2.571965 -2.865984 -15.794108
v -1.447645 -1.835857 29.534140
v 1.423235 -1.835857 29.534140
v -1.447645 -1.835857 29.534140
v -2.571965 -2.865984 -15.794108
v 2.542209 -2.536222 -15.794108
v 1.423235 2.546891 29.534140
v 2.565396 4.727402 -15.846079
v -2.571965 4.727402 -15.846079
v -1.447645 2.546891 29.534140
v -1.447645 2.546891 29.534140
v -1.447645 -1.835857 29.534140
v 1.423235 -1.835857 29.534140
v 1.423235 2.546891 29.534140
v -2.571965 -2.865984 -15.794108
v -2.571965 4.727402 -15.846079
v 2.565396 4.727402 -15.846079
v 2.542209 -2.536222 -15.794108
v 1.673024 -8.171020 -24.444418
v 2.015767 -8.885794 -18.064140
v -2.050468 -8.885794 -18.064140
v -1.707725 -8.171020 -24.444416
v 1.955510 -1.553185 3.691003
v 2.638460 -1.540734 -24.448277
v -2.367589 -1.540734 -24.448277
v -1.996482 -1.546563 3.693605
v 1.673024 -8.171020 -24.444418
v -1.707725 -8.171020 -24.444416
v -2.367589 -1.540734 -24.448277
v 2.638460 -1.540734 -24.448277
v 1.955510 -1.553185 3.691003
v -1.996482 -1.546563 3.693605
v -2.580227 4.655124 -9.836675
v -0.051971 7.424450 -4.484220
v 2.476282 4.655124 -9.836675
v -10.836186 4.158569 -34.179153
v -11.135907 4.158569 -34.179153
v -11.460401 4.105421 -20.447214
v -10.504967 4.103521 -20.462694
v -10.512261 3.424264 -20.439472
v -11.454421 3.421415 -20.416250
v -11.454421 3.421415 -20.416250
v -11.460401 4.105421 -20.447214
v -11.135907 4.158569 -34.179153
v -11.859734 3.780356 11.683779
v -11.859734 -4.826124 11.683779
v -11.859734 -3.735154 20.229656
v -11.859734 3.739295 20.229656
v -11.787395 4.097823 -5.277939
v -11.859734 -4.604109 -1.144779
v -11.721519 -3.016451 -9.041816
v -11.460401 4.105421 -20.447214
v -11.476364 -0.435240 -20.509146
v -11.859734 3.739295 28.327282
v -11.859734 -5.861325 27.992550
v -10.504967 4.103521 -20.462694
v -10.512261 3.424264 -20.439472
v -10.836186 4.158569 -34.179153
v -10.108513 3.780356 11.683774
v -10.108513 3.739295 20.229656
v -10.108513 -3.735154 20.229656
v -10.108513 -4.826124 11.683774
v -10.182578 4.097823 -5.277939
v -10.108512 -4.604109 -1.144779
v -10.246727 -3.016451 -9.041816
v -10.504967 4.103521 -20.462694
v -10.491880 -0.435241 -20.509146
v -10.108514 3.739295 28.327278
v -10.108514 -5.861324 27.992550
v -10.246727 -3.016451 -9.041816
v -11.721519 -3.016451 -9.041816
v -11.476364 -0.435240 -20.509146
v -10.491880 -0.435241 -20.509146
v -10.108512 -4.604109 -1.144779
v -11.859734 -4.604109 -1.144779
v -10.108513 -4.826124 11.683774
v -11.859734 -4.826124 11.683779
v -10.108513 -3.735154 20.229656
v -11.859734 -3.735154 20.229656
v -10.179125 4.097823 -5.277939
v -10.504967 4.103521 -20.462694
v -11.460401 4.105421 -20.447214
v -11.787395 4.097823 -5.277939
v -10.108513 3.780356 11.683774
v -11.859734 3.780356 11.683779
v -10.108513 3.739295 20.229656
v -11.859734 3.739295 20.229656
v -11.859734 3.739295 28.327282
v -10.108514 3.739295 28.327278
v -10.108514 -5.861324 27.992550
v -11.859734 -5.861325 27.992550
v -10.504967 4.103521 -20.462694
v -10.491880 -0.435241 -20.509146
v -11.476364 -0.435240 -20.509146
v -11.460401 4.105421 -20.447214
v -11.859734 3.739295 28.327282
v -11.859734 -5.861325 27.992550
v -10.108514 -5.861324 27.992550
v -10.108514 3.739295 28.327278
v 10.836186 4.158569 -34.179153
v 10.504967 4.103521 -20.462694
v 11.460401 4.105421 -20.447214
v 11.135907 4.158569 -34.179153
v 11.454421 3.421415 -20.416250
v 10.512261 3.424264 -20.439472
v 11.460401 4.105421 -20.447214
v 11.454421 3.421415 -20.416250
v 11.135907 4.158569 -34.179153
v 11.859734 3.780356 11.683779
v 11.859734 3.739295 20.229656
v 11.859734 -3.735154 20.229656
v 11.859734 -4.826124 11.683779
v 11.787395 4.097823 -5.277939
v 11.859734 -4.604109 -1.144779
v 11.721519 -3.016451 -9.041816
v 11.460401 4.105421 -20.447214
v 11.476364 -0.435240 -20.509146
v 11.859734 3.739295 28.327282
v 11.859734 -5.861325 27.992550
v 10.512261 3.424264 -20.439472
v 10.504967 4.103521 -20.462694
v 10.836186 4.158569 -34.179153
v 10.108513 3.780356 11.683774
v 10.108513 -4.826124 11.683774
v 10.108513 -3.735154 20.229656
v 10.108513 3.739295 20.229656
v 10.182578 4.097823 -5.277939
v 10.108512 -4.604109 -1.144779
v 10.246727 -3.016451 -9.041816
v 10.504967 4.103521 -20.462694
v 10.491880 -0.435241 -20.509146
v 10.108514 3.739295 28.327278
v 10.108514 -5.861324 27.992550
v 10.246727 -3.016451 -9.041816
v 10.491880 -0.435241 -20.509146
v 11.476364 -0.435240 -20.509146
v 11.721519 -3.016451 -9.041816
v 10.108512 -4.604109 -1.144779
v 11.859734 -4.604109 -1.144779
v 10.108513 -4.826124 11.683774
v 11.859734 -4.826124 11.683779
v 10.108513 -3.735154 20.229656
v 11.859734 -3.735154 20.229656
v 10.179125 4.097823 -5.277939
v 11.787395 4.097823 -5.277939
v 11.460401 4.105421 -20.447214
v 10.504967 4.103521 -20.462694
v 10.108513 3.780356 11.683774
v 11.859734 3.780356 11.683779
v 10.108513 3.739295 20.229656
v 11.859734 3.739295 20.229656
v 10.108514 3.739295 28.327278
v 11.859734 3.739295 28.327282
v 11.859734 -5.861325 27.992550
v 10.108514 -5.861324 27.992550
v 10.504967 4.103521 -20.462694
v 11.460401 4.105421 -20.447214
v 11.476364 -0.435240 -20.509146
v 10.491880 -0.435241 -20.509146
v 11.859734 3.739295 28.327282
v 10.108514 3.739295 28.327278
v 10.108514 -5.861324 27.992550
v 11.859734 -5.861325 27.992550
vn -0.000000 0.956813 -0.290703
vn 0.000000 0.998247 -0.059179
vn 0.000000 0.998247 -0.059179
vn -0.000000 0.964180 -0.265250
vn 0.000000 -0.003285 -0.999995
vn 0.000000 -0.003285 -0.999995
vn 0.000000 -0.003285 -0.999995
vn 0.000000 -0.003285 -0.999995
vn -0.999995 -0.002900 0.001120
vn -0.999998 -0.000006 -0.001835
vn -0.999999 -0.000474 -0.001028
vn 0.000000 -0.004646 0.999989
vn 0.000000 -0.004646 0.999989
vn 0.000000 -0.004646 0.999989
vn 0.000000 -0.004646 0.999989
vn 0.000000 0.993864 -0.110605
vn 0.000000 0.987452 -0.157918
vn 0.000000 0.987179 0.159615
vn 0.000000 0.987179 0.159615
vn -1.000000 0.000000 0.000000
vn -1.000000 0.000000 0.000000
vn -1.000000 0.000000 0.000000
vn 0.000000 -1.000000 0.000000
vn 0.000000 -1.000000 0.000000
vn 0.000000 -1.000000 0.000000
vn 0.000000 -1.000000 0.000000
vn 0.000000 0.000000 0.000000
vn 0.000000 0.000000 0.000000
vn 0.000000 0.000000 0.000000
vn 0.000000 0.957449 -0.288604
vn -0.000000 0.964180 -0.265250
vn 0.000000 0.998247 -0.059179
vn 0.000000 0.998247 -0.059179
vn 0.000000 -0.003285 -0.999995
vn 0.000000 -0.003285 -0.999995
vn 0.000000 -0.003285 -0.999995
vn 0.000000 -0.003285 -0.999995
vn 0.999998 -0.000006 -0.001835
vn 0.999995 -0.002900 0.001120
vn 0.999999 -0.000474 -0.001028
vn 0.000000 -0.004646 0.999989
vn 0.000000 -0.004646 0.999989
vn 0.000000 -0.004646 0.999989
vn 0.000000 0.993864 -0.110605
vn 0.000000 0.987179 0.159615
vn 0.000000 0.987179 0.159615
vn 0.000000 0.987452 -0.157918
vn 1.000000 -0.000498 -0.000240
vn 1.000000 -0.000498 -0.000240
vn 1.000000 -0.000498 -0.000240
vn 0.000000 -1.000000 0.000000
vn 0.000000 -1.000000 0.000000
vn 0.000000 -1.000000 0.000000
vn 0.000000 0.000000 0.000000
vn 0.000000 0.000000 0.000000
vn 0.000000 0.000000 0.000000
vn 0.994788 -0.100296 -0.018364
vn 0.996299 -0.085941 -0.001700
vn 0.987191 -0.143785 -0.069139
vn 0.997685 -0.063559 0.024186
vn -0.998700 -0.050306 -0.008270
vn -0.997804 -0.062399 -0.022227
vn -0.993014 -0.098865 -0.064420
vn -0.999411 -0.031700 0.013173
vn 0.999695 -0.000297 0.024712
vn 0.999695 -0.000297 0.024712
vn 0.999683 -0.002827 0.024995
vn 0.999683 -0.002827 0.024995
vn -0.999692 0.000017 0.024794
vn -0.999692 0.000017 0.024794
vn -0.999692 0.000017 0.024794
vn -0.999692 0.000017 0.024794
vn 0.004549 -0.999741 0.022319
vn 0.000000 -0.999742 0.022720
vn 0.061714 -0.997945 0.017240
vn 0.064337 -0.997783 0.017005
vn 0.000000 0.998848 0.047994
vn 0.000000 0.998848 0.047994
vn 0.000000 0.998848 0.047994
vn 0.000000 0.998848 0.047994
vn 0.000000 0.000000 1.000000
vn 0.000000 0.000000 1.000000
vn 0.000000 0.000000 1.000000
vn 0.000000 0.000000 1.000000
vn 0.000000 -0.006844 -0.999977
vn 0.000000 -0.006844 -0.999977
vn 0.000000 -0.006844 -0.999977
vn 0.000000 -0.006844 -0.999977
vn -0.000000 -0.993783 -0.111332
vn -0.000078 -0.993899 0.110294
vn -0.000078 -0.993899 0.110294
vn -0.000000 -0.993783 -0.111332
vn 0.001490 0.999999 0.000214
vn 0.000000 1.000000 0.000442
vn 0.000000 1.000000 0.000442
vn 0.001490 0.999999 0.000214
vn -0.000000 -0.000582 -1.000000
vn -0.000000 -0.000582 -1.000000
vn -0.000000 -0.000582 -1.000000
vn -0.000000 -0.000582 -1.000000
vn -0.001378 -0.947621 0.319393
vn -0.001378 -0.947621 0.319393
vn 0.000000 0.888162 -0.459530
vn 0.000000 0.888162 -0.459530
vn 0.000000 0.888162 -0.459530
vn 0.003275 0.036314 -0.999335
vn 0.000000 0.035254 -0.999378
vn 0.002023 0.999990 0.003962
vn 0.002023 0.999990 0.003962
vn 0.001703 -0.998571 -0.053408
vn 0.001703 -0.998571 -0.053408
vn -0.999672 -0.009809 -0.023661
vn -0.712167 0.701813 -0.016644
vn -0.999672 -0.009809 -0.023661
vn -0.999998 -0.000006 -0.001835
vn -0.999998 0.001306 -0.001523
vn -1.000000 0.000000 0.000000
vn -1.000000 0.000000 0.000000
vn -0.999908 0.002470 -0.013301
vn -0.999969 0.005752 -0.005392
vn -0.999803 0.001441 -0.019773
vn -0.999777 0.003214 -0.020882
vn -0.999782 0.003795 -0.020520
vn -1.000000 0.000000 0.000000
vn -1.000000 0.000000 0.000000
vn 0.718910 0.694893 -0.017126
vn 0.999641 -0.011563 -0.024185
vn 0.999641 -0.011563 -0.024185
vn 0.999998 -0.000006 -0.001835
vn 1.000000 -0.000498 -0.000240
vn 1.000000 -0.000498 -0.000240
vn 0.999998 0.001337 -0.001560
vn 0.999910 0.002601 -0.013189
vn 0.999968 0.005958 -0.005375
vn 0.999806 0.001489 -0.019616
vn 0.999778 0.002784 -0.020870
vn 0.999778 0.002784 -0.020870
vn 1.000000 -0.000498 -0.000240
vn 1.000000 -0.000498 -0.000240
vn -0.000000 -0.978080 -0.208227
vn -0.000000 -0.978080 -0.208227
vn -0.000000 -0.975590 -0.219598
vn -0.000000 -0.975590 -0.219598
vn 0.000000 -0.994243 -0.107148
vn 0.000000 -0.994243 -0.107148
vn 0.000000 -0.998497 0.054807
vn 0.000000 -0.998497 0.054807
vn 0.000000 -0.997538 -0.070122
vn 0.000000 -0.997538 -0.070122
vn 0.000040 0.999953 0.009679
vn 0.718910 0.694893 -0.017126
vn -0.712167 0.701813 -0.016644
vn 0.000040 0.999953 0.009679
vn 0.000000 0.999931 0.011750
vn 0.000000 0.999931 0.011750
vn 0.000000 0.999997 0.002402
vn 0.000000 0.999997 0.002402
vn 0.000000 1.000000 0.000442
vn 0.000000 1.000000 0.000442
vn 0.000001 -0.964479 -0.264160
vn 0.000001 -0.964479 -0.264160
vn -0.013979 0.013224 -0.999815
vn 0.000000 0.010234 -0.999948
vn -0.002139 0.010691 -0.999941
vn -0.016172 0.013693 -0.999775
vn 0.000002 -0.034844 0.999393
vn 0.000002 -0.034844 0.999393
vn 0.000002 -0.034844 0.999393
vn 0.000002 -0.034844 0.999393
vn -0.003275 0.036315 -0.999335
vn -0.002052 0.999990 0.003964
vn -0.002052 0.999990 0.003964
vn 0.000000 0.035254 -0.999378
vn -0.001679 -0.998571 -0.053409
vn -0.001679 -0.998571 -0.053409
vn 0.712167 0.701813 -0.016644
vn 0.999672 -0.009809 -0.023661
vn 0.999672 -0.009809 -0.023661
vn 0.999998 -0.000006 -0.001835
vn 1.000000 -0.000498 -0.000240
vn 1.000000 -0.000498 -0.000240
vn 0.999998 0.001337 -0.001560
vn 0.999910 0.002601 -0.013189
vn 0.999968 0.005958 -0.005375
vn 0.999806 0.001489 -0.019616
vn 0.999778 0.002784 -0.020870
vn 0.999782 0.003795 -0.020520
vn 1.000000 -0.000498 -0.000240
vn 1.000000 -0.000498 -0.000240
vn -0.999641 -0.011563 -0.024185
vn -0.718910 0.694893 -0.017126
vn -0.999641 -0.011563 -0.024185
vn -0.999998 -0.000006 -0.001835
vn -0.999998 0.001306 -0.001523
vn -1.000000 0.000000 0.000000
vn -1.000000 0.000000 0.000000
vn -0.999908 0.002470 -0.013301
vn -0.999969 0.005752 -0.005392
vn -0.999803 0.001441 -0.019773
vn -0.999777 0.003214 -0.020882
vn -0.999777 0.003214 -0.020882
vn -1.000000 0.000000 0.000000
vn -1.000000 0.000000 0.000000
vn -0.000000 -0.978080 -0.208227
vn -0.000000 -0.975590 -0.219598
vn -0.000000 -0.975590 -0.219598
vn -0.000000 -0.978080 -0.208227
vn 0.000000 -0.994243 -0.107148
vn 0.000000 -0.994243 -0.107148
vn 0.000000 -0.998497 0.054807
vn 0.000000 -0.998497 0.054807
vn 0.000000 -0.997538 -0.070122
vn 0.000000 -0.997538 -0.070122
vn 0.000040 0.999953 0.009679
vn 0.000040 0.999953 0.009679
vn 0.712167 0.701813 -0.016644
vn -0.718910 0.694893 -0.017126
vn 0.000000 0.999931 0.011750
vn 0.000000 0.999931 0.011750
vn 0.000000 0.999997 0.002402
vn 0.000000 0.999997 0.002402
vn 0.000000 1.000000 0.000442
vn 0.000000 1.000000 0.000442
vn 0.000001 -0.964479 -0.264160
vn 0.000001 -0.964479 -0.264160
vn 0.013979 0.013224 -0.999815
vn 0.016172 0.013693 -0.999775
vn 0.002139 0.010691 -0.999941
vn 0.000000 0.010234 -0.999948
vn 0.000002 -0.034844 0.999393
vn 0.000002 -0.034844 0.999393
vn 0.000002 -0.034844 0.999393
vn 0.000002 -0.034844 0.999393
vt 0.787815 0.711063
vt 0.877058 0.713728
vt 0.877058 0.743621
vt 0.787815 0.743738
vt 0.170781 0.668424
vt 0.170781 0.725713
vt 0.017034 0.726754
vt 0.017043 0.668424
vt 0.345662 0.895143
vt 0.491348 0.900957
vt 0.494508 0.992507
vt 0.927922 0.758750
vt 0.919804 0.817547
vt 0.762896 0.817547
vt 0.762896 0.767569
vt 0.705802 0.683981
vt 0.705802 0.743738
vt 0.625004 0.743738
vt 0.625004 0.683981
vt 0.079881 0.852750
vt 0.211781 0.837841
vt 0.080810 0.992507
vt 0.926518 0.628128
vt 0.926518 0.667127
vt 0.601813 0.677956
vt 0.601813 0.627978
vt 0.355508 0.395504
vt 0.437091 0.396264
vt 0.437091 0.396264
vt 0.787938 0.710056
vt 0.787938 0.742731
vt 0.877181 0.742614
vt 0.877181 0.710642
vt 0.170781 0.668424
vt 0.017043 0.668424
vt 0.017043 0.721539
vt 0.170799 0.729706
vt 0.491348 0.900957
vt 0.345662 0.895143
vt 0.494508 0.992507
vt 0.919804 0.767569
vt 0.762896 0.817547
vt 0.919804 0.817547
vt 0.705926 0.682973
vt 0.625128 0.682973
vt 0.625127 0.742730
vt 0.705925 0.742730
vt 0.211781 0.837841
vt 0.079881 0.852750
vt 0.080810 0.992507
vt 0.926518 0.628128
vt 0.601813 0.627978
vt 0.926518 0.663639
vt 0.437091 0.393577
vt 0.437091 0.393577
vt 0.355508 0.392817
vt 0.577646 0.627978
vt 0.452311 0.728786
vt 0.577571 0.728786
vt 0.025208 0.628149
vt 0.452311 0.728786
vt 0.577646 0.627978
vt 0.577571 0.728786
vt 0.025208 0.628149
vt 0.992745 0.394621
vt 0.992746 0.334470
vt 0.014714 0.320327
vt 0.019646 0.419641
vt 0.992745 0.394621
vt 0.019646 0.419641
vt 0.014714 0.320327
vt 0.992746 0.334470
vt 0.014716 0.444337
vt 0.014716 0.483735
vt 0.992748 0.499239
vt 0.992748 0.428979
vt 0.987814 0.538701
vt 0.014716 0.523025
vt 0.014716 0.593285
vt 0.987814 0.578099
vt 0.729406 0.774770
vt 0.643362 0.774770
vt 0.643362 0.814168
vt 0.729406 0.814168
vt 0.790976 0.983162
vt 0.974379 0.982792
vt 0.974379 0.900972
vt 0.790976 0.901342
vt 0.970900 0.827437
vt 0.845641 0.827437
vt 0.845641 0.875688
vt 0.970900 0.875688
vt 0.578906 0.749374
vt 0.026467 0.735369
vt 0.026467 0.817533
vt 0.579008 0.803701
vt 0.600676 0.914465
vt 0.600676 0.973418
vt 0.769543 0.987338
vt 0.769543 0.900545
vt 0.418537 0.828152
vt 0.418435 0.875122
vt 0.355508 0.390889
vt 0.425092 0.367911
vt 0.355508 0.344934
vt 0.982468 0.292620
vt 0.982468 0.292620
vt 0.677749 0.287786
vt 0.677749 0.287786
vt 0.677577 0.225832
vt 0.677062 0.225573
vt 0.677062 0.225573
vt 0.677749 0.287786
vt 0.982468 0.292620
vt 0.338706 0.192809
vt 0.338706 0.021147
vt 0.165048 0.042907
vt 0.165048 0.191990
vt 0.683379 0.199141
vt 0.599391 0.025575
vt 0.759864 0.057242
vt 0.991629 0.199293
vt 0.992887 0.108726
vt 0.000499 0.191990
vt 0.007301 0.000499
vt 0.677749 0.287786
vt 0.677577 0.225832
vt 0.982468 0.292620
vt 0.338706 0.192809
vt 0.165048 0.191990
vt 0.165048 0.042907
vt 0.338706 0.021147
vt 0.683379 0.199141
vt 0.599391 0.025575
vt 0.759864 0.057242
vt 0.991629 0.199293
vt 0.992887 0.108726
vt 0.000499 0.191990
vt 0.007301 0.000499
vt 0.759864 0.057242
vt 0.759864 0.057242
vt 0.992887 0.108726
vt 0.992887 0.108726
vt 0.599391 0.025575
vt 0.599391 0.025575
vt 0.338706 0.021147
vt 0.338706 0.021147
vt 0.165048 0.042907
vt 0.165048 0.042907
vt 0.683379 0.199141
vt 0.991629 0.199293
vt 0.991629 0.199293
vt 0.683379 0.199141
vt 0.338706 0.192809
vt 0.338706 0.192809
vt 0.165048 0.191990
vt 0.165048 0.191990
vt 0.000499 0.191990
vt 0.000499 0.191990
vt 0.007301 0.000499
vt 0.007301 0.000499
vt 0.988071 0.012502
vt 0.824825 0.012185
vt 0.824825 0.036061
vt 0.988139 0.035673
vt 0.256392 0.297832
vt 0.022797 0.297832
vt 0.022797 0.219528
vt 0.256392 0.219528
vt 0.982468 0.292620
vt 0.677749 0.287786
vt 0.677749 0.287786
vt 0.982468 0.292620
vt 0.677062 0.225573
vt 0.677577 0.225832
vt 0.677749 0.287786
vt 0.677062 0.225573
vt 0.982468 0.292620
vt 0.338706 0.192809
vt 0.165048 0.191990
vt 0.165048 0.042907
vt 0.338706 0.021147
vt 0.683379 0.199141
vt 0.599391 0.025575
vt 0.759864 0.057242
vt 0.991629 0.199293
vt 0.992887 0.108726
vt 0.000499 0.191990
vt 0.007301 0.000499
vt 0.677577 0.225832
vt 0.677749 0.287786
vt 0.982468 0.292620
vt 0.338706 0.192809
vt 0.338706 0.021147
vt 0.165048 0.042907
vt 0.165048 0.191990
vt 0.683379 0.199141
vt 0.599391 0.025575
vt 0.759864 0.057242
vt 0.991629 0.199293
vt 0.992887 0.108726
vt 0.000499 0.191990
vt 0.007301 0.000499
vt 0.759864 0.057242
vt 0.992887 0.108726
vt 0.992887 0.108726
vt 0.759864 0.057242
vt 0.599391 0.025575
vt 0.599391 0.025575
vt 0.338706 0.021147
vt 0.338706 0.021147
vt 0.165048 0.042907
vt 0.165048 0.042907
vt 0.683379 0.199141
vt 0.683379 0.199141
vt 0.991629 0.199293
vt 0.991629 0.199293
vt 0.338706 0.192809
vt 0.338706 0.192809
vt 0.165048 0.191990
vt 0.165048 0.191990
vt 0.000499 0.191990
vt 0.000499 0.191990
vt 0.007301 0.000499
vt 0.007301 0.000499
vt 0.988071 0.012502
vt 0.988139 0.035673
vt 0.824825 0.036061
vt 0.824825 0.012185
vt 0.256392 0.297832
vt 0.256392 0.219528
vt 0.022797 0.219528
vt 0.022797 0.297832
g part_0_s36_desc
f 1/1/1 2/2/2 3/3/3
f 3/3/3 4/4/4 1/1/1
f 5/5/5 6/6/6 7/7/7
f 7/7/7 8/8/8 5/5/5
f 9/9/9 10/10/10 11/11/11
f 12/12/12 13/13/13 14/14/14
f 14/14/14 15/15/15 12/12/12
f 16/16/16 17/17/17 18/18/18
f 18/18/18 19/19/19 16/16/16
f 20/20/20 21/21/21 22/22/22
f 23/23/23 24/24/24 25/25/25
f 25/25/25 26/26/26 23/23/23
f 1/1/1 4/4/4 17/17/17
f 17/17/17 16/16/16 1/1/1
f 21/21/21 9/9/9 11/11/11
f 11/11/11 22/22/22 21/21/21
f 30/30/30 31/31/31 32/32/32
f 32/32/32 33/33/33 30/30/30
f 34/34/34 35/35/35 36/36/36
f 36/36/36 37/37/37 34/34/34
f 38/38/38 39/39/39 40/40/40
f 41/41/41 15/15/15 42/42/42
f 42/42/42 43/43/43 41/41/41
f 44/44/44 45/45/45 46/46/46
f 46/46/46 47/47/47 44/44/44
f 48/48/48 49/49/49 50/50/50
f 51/51/51 52/52/52 25/25/25
f 25/25/25 53/53/53 51/51/51
f 30/30/30 44/44/44 47/47/47
f 47/47/47 31/31/31 30/30/30
f 48/48/48 50/50/50 40/40/40
f 40/40/40 39/39/39 48/48/48
f 57/57/57 58/58/58 59/59/59
f 57/57/57 60/60/60 58/58/58
f 61/61/61 62/62/62 63/63/63
f 64/64/64 62/62/62 61/61/61
f 65/65/65 66/66/66 67/67/67
f 67/67/67 68/68/68 65/65/65
f 69/69/69 70/70/70 71/71/71
f 71/71/71 72/72/72 69/69/69
f 73/73/73 74/74/74 75/75/75
f 75/75/75 76/76/76 73/73/73
f 77/77/77 78/78/78 79/79/79
f 79/79/79 80/80/80 77/77/77
f 81/81/81 82/82/82 83/83/83
f 83/83/83 84/84/84 81/81/81
f 85/85/85 86/86/86 87/87/87
f 87/87/87 88/88/88 85/85/85
f 89/89/89 90/90/90 91/91/91
f 91/91/91 92/92/92 89/89/89
f 93/93/93 94/94/94 95/95/95
f 95/95/95 96/96/96 93/93/93
f 97/97/97 98/98/98 99/99/99
f 99/99/99 100/100/100 97/97/97
f 90/90/90 101/101/101 102/102/102
f 102/102/102 91/91/91 90/90/90
f 103/103/103 104/104/104 105/105/105
f 106/106/106 107/107/107 108/108/108
f 108/108/108 109/109/109 106/106/106
f 106/106/106 110/110/110 111/111/111
f 111/111/111 107/107/107 106/106/106
f 112/112/112 113/113/113 114/114/114
f 115/115/115 116/116/116 117/117/117
f 117/117/117 118/118/118 115/115/115
f 119/119/119 120/120/120 116/116/116
f 116/116/116 115/115/115 119/119/119
f 119/119/119 121/121/121 120/120/120
f 122/122/122 123/123/123 121/121/121
f 121/121/121 119/119/119 122/122/122
f 124/124/124 118/118/118 117/117/117
f 117/117/117 125/125/125 124/124/124
f 126/126/126 127/127/127 128/128/128
f 129/129/129 130/130/130 131/131/131
f 131/131/131 132/132/132 129/129/129
f 133/133/133 129/129/129 132/132/132
f 132/132/132 134/134/134 133/133/133
f 135/135/135 133/133/133 134/134/134
f 136/136/136 133/133/133 135/135/135
f 135/135/135 137/137/137 136/136/136
f 138/138/138 139/139/139 131/131/131
f 131/131/131 130/130/130 138/138/138
f 140/140/140 141/141/141 142/142/142
f 142/142/142 143/143/143 140/140/140
f 144/144/144 145/145/145 141/141/141
f 141/141/141 140/140/140 144/144/144
f 146/146/146 147/147/147 145/145/145
f 145/145/145 144/144/144 146/146/146
f 148/148/148 149/149/149 147/147/147
f 147/147/147 146/146/146 148/148/148
f 150/150/150 151/151/151 152/152/152
f 152/152/152 153/153/153 150/150/150
f 154/154/154 150/150/150 153/153/153
f 153/153/153 155/155/155 154/154/154
f 156/156/156 154/154/154 155/155/155
f 155/155/155 157/157/157 156/156/156
f 157/157/157 158/158/158 159/159/159
f 159/159/159 156/156/156 157/157/157
f 148/148/148 160/160/160 161/161/161
f 161/161/161 149/149/149 148/148/148
f 162/162/162 163/163/163 164/164/164
f 164/164/164 165/165/165 162/162/162
f 166/166/166 167/167/167 168/168/168
f 168/168/168 169/169/169 166/166/166
f 170/170/170 171/171/171 172/172/172
f 172/172/172 173/173/173 170/170/170
f 170/170/170 173/173/173 174/174/174
f 174/174/174 175/175/175 170/170/170
f 176/176/176 177/177/177 178/178/178
f 179/179/179 180/180/180 181/181/181
f 181/181/181 182/182/182 179/179/179
f 183/183/183 179/179/179 182/182/182
f 182/182/182 184/184/184 183/183/183
f 185/185/185 183/183/183 184/184/184
f 186/186/186 183/183/183 185/185/185
f 185/185/185 187/187/187 186/186/186
f 188/188/188 189/189/189 181/181/181
f 181/181/181 180/180/180 188/188/188
f 190/190/190 191/191/191 192/192/192
f 193/193/193 194/194/194 195/195/195
f 195/195/195 196/196/196 193/193/193
f 197/197/197 198/198/198 194/194/194
f 194/194/194 193/193/193 197/197/197
f 197/197/197 199/199/199 198/198/198
f 200/200/200 201/201/201 199/199/199
f 199/199/199 197/197/197 200/200/200
f 202/202/202 196/196/196 195/195/195
f 195/195/195 203/203/203 202/202/202
f 204/204/204 205/205/205 206/206/206
f 206/206/206 207/207/207 204/204/204
f 208/208/208 204/204/204 207/207/207
f 207/207/207 209/209/209 208/208/208
f 210/210/210 208/208/208 209/209/209
f 209/209/209 211/211/211 210/210/210
f 212/212/212 210/210/210 211/211/211
f 211/211/211 213/213/213 212/212/212
f 214/214/214 215/215/215 216/216/216
f 216/216/216 217/217/217 214/214/214
f 218/218/218 219/219/219 215/215/215
f 215/215/215 214/214/214 218/218/218
f 220/220/220 221/221/221 219/219/219
f 219/219/219 218/218/218 220/220/220
f 221/221/221 220/220/220 222/222/222
f 222/222/222 223/223/223 221/221/221
f 212/212/212 213/213/213 224/224/224
f 224/224/224 225/225/225 212/212/212
f 226/226/226 227/227/227 228/228/228
f 228/228/228 229/229/229 226/226/226
f 230/230/230 231/231/231 232/232/232
f 232/232/232 233/233/233 230/230/230
