# e_supplyship_l
# Parts: 1
v -9.930465 10.144804 -17.935154
v 9.942077 10.144806 -17.935154
v 9.936571 10.144806 -26.279631
v -9.930466 10.144804 -26.279631
v -9.930464 -10.263795 -17.935154
v -9.930464 -10.263795 -26.279631
v 9.936572 -10.263794 -26.279631
v 9.942078 -10.263792 -17.935154
v -9.930466 10.144804 -26.279631
v -9.930464 -10.263795 -26.279631
v -9.930464 -10.263795 -17.935154
v -9.930465 10.144804 -17.935154
v -6.259438 -9.026054 19.748072
v -6.259438 -12.011009 19.748072
v -6.259437 -12.625389 25.156729
v -6.259437 -10.787965 25.156729
v -11.679676 11.805947 -20.610773
v -11.679672 -12.004415 -20.610773
v -11.679675 -12.004415 22.736990
v -11.679676 11.805947 22.736992
v -0.971083 13.382796 20.683498
v -0.971083 1.859021 17.291597
v -0.971083 1.859021 23.570656
v -0.971083 13.382796 26.962555
v 9.936571 10.144806 -26.279631
v 9.942077 10.144806 -17.935154
v 9.942078 -10.263792 -17.935154
v 9.936572 -10.263794 -26.279631
v 6.287568 -9.026054 19.748072
v 6.287568 -10.787965 25.156725
v 6.287568 -12.625389 25.156725
v 6.287568 -12.011009 19.748072
v 11.707807 11.805948 -20.610775
v 11.707808 11.805948 22.736994
v 11.707808 -12.004413 22.736990
v 11.707808 -12.004413 -20.610775
v 0.999214 13.382797 20.683498
v 0.999214 13.382797 26.962553
v 0.999215 1.859021 23.570656
v 0.999215 1.859021 17.291597
v -9.930466 10.144804 -26.279631
v 9.936571 10.144806 -26.279631
v 9.936572 -10.263794 -26.279631
v -9.930464 -10.263795 -26.279631
v -6.259438 -12.011009 19.748072
v 6.287568 -12.011009 19.748072
v 6.287568 -12.625389 25.156725
v -6.259437 -12.625389 25.156729
v -6.259437 -10.787965 25.156729
v 6.287568 -10.787965 25.156725
v 6.287568 -9.026054 19.748072
v -6.259438 -9.026054 19.748072
v -6.259437 -12.625389 25.156729
v 6.287568 -12.625389 25.156725
v 6.287568 -10.787965 25.156725
v -6.259437 -10.787965 25.156729
v -11.679672 -12.004415 -20.610773
v 11.707808 -12.004413 -20.610775
v 11.707808 -12.004413 22.736990
v -11.679675 -12.004415 22.736990
v -11.679676 11.805947 -20.610773
v 11.707807 11.805948 -20.610775
v 11.707808 -12.004413 -20.610775
v -11.679672 -12.004415 -20.610773
v -11.679676 11.805947 22.736992
v 11.707808 11.805948 22.736994
v 11.707807 11.805948 -20.610775
v -11.679676 11.805947 -20.610773
v -11.679675 -12.004415 22.736990
v 11.707808 -12.004413 22.736990
v 11.707808 11.805948 22.736994
v -11.679676 11.805947 22.736992
v -0.971083 1.859021 17.291597
v 0.999215 1.859021 17.291597
v 0.999215 1.859021 23.570656
v -0.971083 1.859021 23.570656
v -0.971083 13.382796 20.683498
v 0.999214 13.382797 20.683498
v 0.999215 1.859021 17.291597
v -0.971083 1.859021 17.291597
v -0.971083 13.382796 26.962555
v 0.999214 13.382797 26.962553
v 0.999214 13.382797 20.683498
v -0.971083 13.382796 20.683498
v -0.971083 1.859021 23.570656
v 0.999215 1.859021 23.570656
v 0.999214 13.382797 26.962553
v -0.971083 13.382796 26.962555
vn -0.000000 1.000000 0.000000
vn -0.000000 1.000000 0.000000
vn -0.000000 1.000000 0.000000
vn -0.000000 1.000000 0.000000
vn 0.000000 -1.000000 0.000000
vn 0.000000 -1.000000 0.000000
vn 0.000000 -1.000000 0.000000
vn 0.000000 -1.000000 0.000000
vn -1.000000 -0.000000 0.000000
vn -1.000000 -0.000000 0.000000
vn -1.000000 -0.000000 0.000000
vn -1.000000 -0.000000 0.000000
vn -1.000000 -0.000000 0.000000
vn -1.000000 -0.000000 0.000000
vn -1.000000 -0.000000 0.000000
vn -1.000000 -0.000000 0.000000
vn -1.000000 -0.000000 0.000000
vn -1.000000 -0.000000 0.000000
vn -1.000000 -0.000000 0.000000
vn -1.000000 -0.000000 0.000000
vn -1.000000 -0.000000 0.000000
vn -1.000000 -0.000000 0.000000
vn -1.000000 -0.000000 0.000000
vn -1.000000 -0.000000 0.000000
vn 1.000000 0.000000 -0.000660
vn 1.000000 0.000000 -0.000660
vn 1.000000 0.000000 -0.000660
vn 1.000000 0.000000 -0.000660
vn 1.000000 0.000000 0.000000
vn 1.000000 0.000000 0.000000
vn 1.000000 0.000000 0.000000
vn 1.000000 0.000000 0.000000
vn 1.000000 0.000000 0.000000
vn 1.000000 0.000000 0.000000
vn 1.000000 0.000000 0.000000
vn 1.000000 0.000000 0.000000
vn 1.000000 0.000000 0.000000
vn 1.000000 0.000000 0.000000
vn 1.000000 0.000000 0.000000
vn 1.000000 0.000000 0.000000
vn 0.000000 0.000000 -1.000000
vn 0.000000 0.000000 -1.000000
vn 0.000000 0.000000 -1.000000
vn 0.000000 0.000000 -1.000000
vn -0.000000 -0.993610 -0.112866
vn -0.000000 -0.993610 -0.112866
vn -0.000000 -0.993610 -0.112866
vn -0.000000 -0.993610 -0.112866
vn 0.000000 0.950822 0.309738
vn 0.000000 0.950822 0.309738
vn 0.000000 0.950822 0.309738
vn 0.000000 0.950822 0.309738
vn 0.000000 0.000000 1.000000
vn 0.000000 0.000000 1.000000
vn 0.000000 0.000000 1.000000
vn 0.000000 0.000000 1.000000
vn 0.000000 -1.000000 0.000000
vn 0.000000 -1.000000 0.000000
vn 0.000000 -1.000000 0.000000
vn 0.000000 -1.000000 0.000000
vn 0.000000 0.000000 -1.000000
vn 0.000000 0.000000 -1.000000
vn 0.000000 0.000000 -1.000000
vn 0.000000 0.000000 -1.000000
vn -0.000000 1.000000 0.000000
vn -0.000000 1.000000 0.000000
vn -0.000000 1.000000 0.000000
vn -0.000000 1.000000 0.000000
vn 0.000000 0.000000 1.000000
vn 0.000000 0.000000 1.000000
vn 0.000000 0.000000 1.000000
vn 0.000000 0.000000 1.000000
vn 0.000000 -1.000000 0.000000
vn 0.000000 -1.000000 0.000000
vn 0.000000 -1.000000 0.000000
vn 0.000000 -1.000000 0.000000
vn -0.000000 0.282362 -0.959308
vn -0.000000 0.282362 -0.959308
vn -0.000000 0.282362 -0.959308
vn -0.000000 0.282362 -0.959308
vn -0.000000 1.000000 0.000000
vn -0.000000 1.000000 0.000000
vn -0.000000 1.000000 0.000000
vn -0.000000 1.000000 0.000000
vn 0.000000 -0.282362 0.959308
vn 0.000000 -0.282362 0.959308
vn 0.000000 -0.282362 0.959308
vn 0.000000 -0.282362 0.959308
vt 0.911188 0.065693
vt 0.911185 0.285018
vt 0.968073 0.285019
vt 0.968075 0.065693
vt 0.911188 0.065693
vt 0.968075 0.065693
vt 0.968073 0.285019
vt 0.911185 0.285018
vt 0.999197 0.994517
vt 0.999198 0.788937
vt 0.937691 0.788936
vt 0.937689 0.994516
vt 0.854681 0.906286
vt 0.853233 0.894175
vt 0.827971 0.894417
vt 0.828862 0.901872
vt 0.542410 0.262798
vt 0.541154 0.016864
vt 0.030640 0.019242
vt 0.031896 0.265177
vt 0.829301 0.352935
vt 0.950437 0.387315
vt 0.956020 0.359350
vt 0.809265 0.315929
vt 0.999197 0.994517
vt 0.937689 0.994516
vt 0.937691 0.788936
vt 0.999198 0.788937
vt 0.854681 0.906286
vt 0.828862 0.901872
vt 0.827971 0.894417
vt 0.853233 0.894175
vt 0.542410 0.262798
vt 0.031896 0.265177
vt 0.030640 0.019242
vt 0.541154 0.016864
vt 0.829301 0.352935
vt 0.809265 0.315929
vt 0.956020 0.359350
vt 0.950437 0.387315
vt 0.553978 0.321203
vt 0.553978 0.539544
vt 0.778394 0.539544
vt 0.778394 0.321203
vt 0.495629 0.942584
vt 0.439586 0.942584
vt 0.439586 0.961468
vt 0.495629 0.961468
vt 0.658392 0.947588
vt 0.526744 0.947588
vt 0.526744 0.964626
vt 0.658392 0.964626
vt 0.531801 0.877858
vt 0.393832 0.877858
vt 0.393832 0.898063
vt 0.531801 0.898063
vt 0.020241 0.613460
vt 0.020241 0.833766
vt 0.529135 0.833766
vt 0.529135 0.613460
vt 0.574203 0.002122
vt 0.574203 0.277676
vt 0.843904 0.277676
vt 0.843904 0.002122
vt 0.026385 0.321203
vt 0.026385 0.559943
vt 0.527087 0.559943
vt 0.527087 0.321203
vt 0.826605 0.582514
vt 0.572058 0.582513
vt 0.572057 0.858778
vt 0.826605 0.858779
vt 0.498571 0.949004
vt 0.498571 0.960002
vt 0.570897 0.960002
vt 0.570897 0.949004
vt 0.575564 0.948812
vt 0.575564 0.959810
vt 0.703550 0.959810
vt 0.703550 0.948812
vt 0.879821 0.353234
vt 0.879821 0.374900
vt 0.955020 0.374900
vt 0.955020 0.353234
vt 0.391627 0.876083
vt 0.391627 0.897749
vt 0.524696 0.897749
vt 0.524696 0.876083
g part_0_s36_desc
f 1/1/1 2/2/2 3/3/3
f 3/3/3 4/4/4 1/1/1
f 5/5/5 6/6/6 7/7/7
f 7/7/7 8/8/8 5/5/5
f 9/9/9 10/10/10 11/11/11
f 11/11/11 12/12/12 9/9/9
f 13/13/13 14/14/14 15/15/15
f 15/15/15 16/16/16 13/13/13
f 17/17/17 18/18/18 19/19/19
f 19/19/19 20/20/20 17/17/17
f 21/21/21 22/22/22 23/23/23
f 23/23/23 24/24/24 21/21/21
f 25/25/25 26/26/26 27/27/27
f 27/27/27 28/28/28 25/25/25
f 29/29/29 30/30/30 31/31/31
f 31/31/31 32/32/32 29/29/29
f 33/33/33 34/34/34 35/35/35
f 35/35/35 36/36/36 33/33/33
f 37/37/37 38/38/38 39/39/39
f 39/39/39 40/40/40 37/37/37
f 41/41/41 42/42/42 43/43/43
f 43/43/43 44/44/44 41/41/41
f 45/45/45 46/46/46 47/47/47
f 47/47/47 48/48/48 45/45/45
f 49/49/49 50/50/50 51/51/51
f 51/51/51 52/52/52 49/49/49
f 53/53/53 54/54/54 55/55/55
f 55/55/55 56/56/56 53/53/53
f 57/57/57 58/58/58 59/59/59
f 59/59/59 60/60/60 57/57/57
f 61/61/61 62/62/62 63/63/63
f 63/63/63 64/64/64 61/61/61
f 65/65/65 66/66/66 67/67/67
f 67/67/67 68/68/68 65/65/65
f 69/69/69 70/70/70 71/71/71
f 71/71/71 72/72/72 69/69/69
f 73/73/73 74/74/74 75/75/75
f 75/75/75 76/76/76 73/73/73
f 77/77/77 78/78/78 79/79/79
f 79/79/79 80/80/80 77/77/77
f 81/81/81 82/82/82 83/83/83
f 83/83/83 84/84/84 81/81/81
f 85/85/85 86/86/86 87/87/87
f 87/87/87 88/88/88 85/85/85
