# e_cruiser_l
# Parts: 1
v -1.530846 -0.179836 0.541342
v -3.356762 -1.023508 -14.252691
v -1.476551 -1.023508 -14.468420
v -1.476551 3.107783 -14.468420
v -3.356762 3.107783 -14.252691
v -1.157520 2.656884 0.541342
v -3.356762 3.107783 -14.252691
v -3.356762 -1.023508 -14.252691
v -1.530846 -0.179836 0.541342
v -1.157520 2.656884 0.541342
v -1.476551 3.107783 -14.468420
v -1.476551 -1.023508 -14.468420
v -3.356762 -1.023508 -14.252691
v -3.356762 3.107783 -14.252691
v -1.157520 2.656884 0.541342
v -1.530846 -0.179836 0.541342
v -1.476551 -1.023508 -14.468420
v -1.476551 3.107783 -14.468420
v 3.291823 -1.023508 -14.252690
v 1.465896 -0.179836 0.541343
v 1.411609 -1.023508 -14.468420
v 3.291823 3.107783 -14.252690
v 1.411609 3.107783 -14.468420
v 1.092573 2.656884 0.541343
v 3.291823 3.107783 -14.252690
v 1.092573 2.656884 0.541343
v 1.465896 -0.179836 0.541343
v 3.291823 -1.023508 -14.252690
v 1.411609 3.107783 -14.468420
v 3.291823 3.107783 -14.252690
v 3.291823 -1.023508 -14.252690
v 1.411609 -1.023508 -14.468420
v 1.092573 2.656884 0.541343
v 1.411609 3.107783 -14.468420
v 1.411609 -1.023508 -14.468420
v 1.465896 -0.179836 0.541343
v -1.135961 2.545181 2.736209
v -1.495943 -0.251356 2.624320
v -0.835339 0.035723 14.406854
v -0.835339 2.463561 14.406854
v -1.436582 3.317049 -8.934437
v -2.398145 -0.753929 -13.467378
v 1.047307 2.545181 2.736209
v 0.860355 2.463561 14.406854
v 0.860355 0.035723 14.406854
v 1.471137 -0.251356 2.624321
v 1.353739 3.317049 -8.934437
v 2.311876 -0.753929 -13.467378
v -0.716806 -3.396851 -4.937282
v -3.039280 -0.394227 -13.487278
v 2.739175 -0.394227 -13.487278
v 0.416698 -3.396851 -4.937282
v -0.716806 -3.396851 -4.937282
v -0.944018 -0.244574 -3.310840
v -3.039280 -0.394227 -13.487278
v 0.416698 -3.396851 -4.937282
v 0.643910 -0.244574 -3.310840
v -0.944018 -0.244574 -3.310840
v -0.716806 -3.396851 -4.937282
v 0.416698 -3.396851 -4.937282
v 2.739175 -0.394227 -13.487278
v 0.643910 -0.244574 -3.310840
v -0.835339 0.035723 14.406854
v -1.495943 -0.251356 2.624320
v 1.471137 -0.251356 2.624321
v 0.860355 0.035723 14.406854
v 1.047307 2.545181 2.736209
v -1.135961 2.545181 2.736209
v -0.835339 2.463561 14.406854
v 0.860355 2.463561 14.406854
v -0.835339 2.463561 14.406854
v -0.835339 0.035723 14.406854
v 0.860355 0.035723 14.406854
v 0.860355 2.463561 14.406854
v 1.353739 3.317049 -8.934437
v 2.311876 -0.753929 -13.467378
v -2.398145 -0.753929 -13.467378
v -1.436582 3.317049 -8.934437
v -2.398145 -0.753929 -13.467378
v 2.311876 -0.753929 -13.467378
v 1.353739 3.317049 -8.934437
v -1.436582 3.317049 -8.934437
vn 0.006442 -0.998402 0.056142
vn 0.006442 -0.998402 0.056142
vn 0.006442 -0.998402 0.056142
vn 0.003437 0.999545 0.029954
vn 0.003437 0.999545 0.029954
vn 0.003437 0.999545 0.029954
vn -0.991913 0.015787 0.125933
vn -0.992469 0.000000 0.122493
vn -0.983507 0.107685 0.145317
vn -0.980285 0.129010 0.149659
vn -0.113989 0.000000 -0.993482
vn -0.113989 0.000000 -0.993482
vn -0.113989 0.000000 -0.993482
vn -0.113989 0.000000 -0.993482
vn 0.994075 -0.108560 0.005490
vn 0.991392 -0.130472 0.010920
vn 0.999722 -0.016010 -0.017323
vn 0.999774 0.000000 -0.021250
vn -0.006442 -0.998402 0.056142
vn -0.006442 -0.998402 0.056142
vn -0.006442 -0.998402 0.056142
vn -0.003437 0.999545 0.029954
vn -0.003437 0.999545 0.029954
vn -0.003437 0.999545 0.029954
vn 0.991913 0.015786 0.125933
vn 0.980285 0.129009 0.149659
vn 0.983507 0.107684 0.145318
vn 0.992469 0.000000 0.122494
vn 0.113989 0.000000 -0.993482
vn 0.113989 0.000000 -0.993482
vn 0.113989 0.000000 -0.993482
vn 0.113989 0.000000 -0.993482
vn -0.994075 -0.108559 0.005489
vn -0.999774 -0.000000 -0.021250
vn -0.999722 -0.016010 -0.017324
vn -0.991392 -0.130471 0.010919
vn -0.992158 0.117886 0.041545
vn -0.990347 0.131299 0.044432
vn -0.999382 0.018709 0.029766
vn -0.999668 0.000000 0.025750
vn -0.983947 0.171883 0.048010
vn -0.982967 0.176965 0.049584
vn 0.989535 0.138719 0.039719
vn 0.999872 0.000000 0.016017
vn 0.999539 0.022120 0.020768
vn 0.987541 0.151523 0.042467
vn 0.983171 0.177136 0.044700
vn 0.982538 0.180361 0.045701
vn 0.000000 -0.943509 -0.331346
vn 0.000000 -0.943509 -0.331346
vn 0.000000 -0.943509 -0.331346
vn 0.000000 -0.943509 -0.331346
vn -0.964140 -0.173231 0.201058
vn -0.964140 -0.173231 0.201058
vn -0.964140 -0.173231 0.201058
vn -0.000000 -0.458523 0.888683
vn -0.000000 -0.458523 0.888683
vn -0.000000 -0.458523 0.888683
vn -0.000000 -0.458523 0.888683
vn 0.964140 -0.173231 0.201058
vn 0.964140 -0.173231 0.201058
vn 0.964140 -0.173231 0.201058
vn -0.000000 -0.999703 0.024358
vn -0.000000 -0.999610 0.027909
vn -0.000000 -0.999610 0.027909
vn -0.000000 -0.999703 0.024358
vn -0.000000 0.999319 0.036905
vn -0.000000 0.999319 0.036905
vn -0.000000 0.999976 0.006993
vn -0.000000 0.999976 0.006993
vn 0.000000 0.000000 1.000000
vn 0.000000 0.000000 1.000000
vn 0.000000 0.000000 1.000000
vn 0.000000 0.000000 1.000000
vn -0.000000 0.744001 -0.668178
vn -0.000000 0.744001 -0.668178
vn -0.000000 0.744001 -0.668178
vn -0.000000 0.744001 -0.668178
vn 0.000000 -0.999513 0.031217
vn 0.000000 -0.999513 0.031217
vn 0.000000 0.997820 0.065993
vn 0.000000 0.997820 0.065993
vt 0.982775 0.907946
vt 0.526012 0.903900
vt 0.525995 0.961894
vt 0.526085 0.813801
vt 0.525995 0.871795
vt 0.984086 0.857230
vt 0.023812 0.638859
vt 0.023812 0.821386
vt 0.677436 0.784111
vt 0.677436 0.658780
vt 0.988331 0.661577
vt 0.709129 0.661577
vt 0.709129 0.788645
vt 0.988331 0.788645
vt 0.028082 0.520461
vt 0.028082 0.607388
vt 0.488035 0.633242
vt 0.488035 0.506644
vt 0.526012 0.903900
vt 0.982775 0.907946
vt 0.525995 0.961894
vt 0.525995 0.871795
vt 0.526085 0.813801
vt 0.984086 0.857230
vt 0.023812 0.638859
vt 0.677436 0.658780
vt 0.677436 0.784111
vt 0.023812 0.821386
vt 0.988331 0.661577
vt 0.988331 0.788645
vt 0.709129 0.788645
vt 0.709129 0.661577
vt 0.028082 0.520461
vt 0.488035 0.506644
vt 0.488035 0.633242
vt 0.028082 0.607388
vt 0.524618 0.381469
vt 0.521189 0.467165
vt 0.882247 0.458368
vt 0.882247 0.383970
vt 0.166988 0.357816
vt 0.028082 0.482566
vt 0.524618 0.381469
vt 0.882247 0.383970
vt 0.882247 0.458368
vt 0.521189 0.467165
vt 0.166988 0.357816
vt 0.028082 0.482566
vt 0.217093 0.918471
vt 0.479095 0.989640
vt 0.479095 0.812568
vt 0.217093 0.883737
vt 0.072873 0.884171
vt 0.023033 0.980768
vt 0.334876 0.976182
vt 0.735366 0.607871
vt 0.831963 0.614834
vt 0.831963 0.566174
vt 0.735366 0.573136
vt 0.561953 0.603241
vt 0.823955 0.511230
vt 0.512113 0.506644
vt 0.995537 0.085804
vt 0.578947 0.062447
vt 0.578947 0.167501
vt 0.995537 0.145897
vt 0.422634 0.318725
vt 0.422634 0.241689
vt 0.010000 0.252318
vt 0.010000 0.312411
vt 0.949268 0.565236
vt 0.874871 0.565236
vt 0.874871 0.617319
vt 0.949268 0.617319
vt 0.835268 0.325039
vt 0.995537 0.363520
vt 0.995537 0.197062
vt 0.835268 0.231060
vt 0.010000 0.030548
vt 0.010000 0.197006
vt 0.835268 0.325039
vt 0.835268 0.231060
g part_0_s36_desc
f 1/1/1 2/2/2 3/3/3
f 4/4/4 5/5/5 6/6/6
f 7/7/7 8/8/8 9/9/9
f 9/9/9 10/10/10 7/7/7
f 11/11/11 12/12/12 13/13/13
f 13/13/13 14/14/14 11/11/11
f 15/15/15 16/16/16 17/17/17
f 17/17/17 18/18/18 15/15/15
f 19/19/19 20/20/20 21/21/21
f 22/22/22 23/23/23 24/24/24
f 25/25/25 26/26/26 27/27/27
f 27/27/27 28/28/28 25/25/25
f 29/29/29 30/30/30 31/31/31
f 31/31/31 32/32/32 29/29/29
f 33/33/33 34/34/34 35/35/35
f 35/35/35 36/36/36 33/33/33
f 37/37/37 38/38/38 39/39/39
f 39/39/39 40/40/40 37/37/37
f 41/41/41 42/42/42 38/38/38
f 38/38/38 37/37/37 41/41/41
f 43/43/43 44/44/44 45/45/45
f 45/45/45 46/46/46 43/43/43
f 47/47/47 43/43/43 46/46/46
f 46/46/46 48/48/48 47/47/47
f 49/49/49 50/50/50 51/51/51
f 51/51/51 52/52/52 49/49/49
f 53/53/53 54/54/54 55/55/55
f 56/56/56 57/57/57 58/58/58
f 58/58/58 59/59/59 56/56/56
f 60/60/60 61/61/61 62/62/62
f 63/63/63 64/64/64 65/65/65
f 65/65/65 66/66/66 63/63/63
f 67/67/67 68/68/68 69/69/69
f 69/69/69 70/70/70 67/67/67
f 71/71/71 72/72/72 73/73/73
f 73/73/73 74/74/74 71/71/71
f 75/75/75 76/76/76 77/77/77
f 77/77/77 78/78/78 75/75/75
f 64/64/64 79/79/79 80/80/80
f 80/80/80 65/65/65 64/64/64
f 67/67/67 81/81/81 82/82/82
f 82/82/82 68/68/68 67/67/67
