# e_beowulf_l_exact
# Parts: 1
v -9.115177 3.557695 -18.477180
v -9.115177 -0.745740 -18.477180
v -7.807852 -0.745739 -5.776498
v -7.807852 3.557696 -5.776498
v -1.033044 2.548060 24.846664
v -1.936498 4.931608 20.620243
v -1.459770 0.014387 23.429239
v -1.465998 2.351284 -23.733976
v -1.643678 -4.835801 -16.772678
v -0.960074 -5.674108 -11.051392
v -0.987733 0.100761 -4.848738
v -1.938189 5.130058 -9.035511
v -1.938189 -0.033572 -7.966628
v -2.539537 5.917408 -19.444536
v -1.469480 2.290998 -23.700125
v -1.938189 -0.033572 -7.966628
v -1.938189 5.130058 -9.035511
v -1.520191 4.891604 -24.169086
v -5.548850 3.454398 -18.411486
v -2.343043 5.831583 -18.411377
v -2.343044 3.453658 -18.411377
v -2.343043 5.831586 -13.793819
v -5.548850 3.464980 -13.793820
v -2.343044 3.453662 -13.793819
v -2.343043 5.831586 -13.793819
v -2.343043 5.831583 -18.411377
v -5.548850 3.454398 -18.411486
v -5.548850 3.464980 -13.793820
v 9.115175 3.557695 -18.477177
v 7.807851 3.557696 -5.776496
v 7.807851 -0.745739 -5.776496
v 9.115175 -0.745740 -18.477177
v 1.936497 4.931607 20.620243
v 1.033043 2.548060 24.846664
v 1.459769 0.014387 23.429239
v 1.465997 2.351284 -23.733974
v 0.987731 0.100761 -4.848739
v 0.960073 -5.674108 -11.051392
v 1.643677 -4.835801 -16.772678
v 1.938187 5.130058 -9.035509
v 1.938187 -0.033572 -7.966628
v 2.539536 5.917408 -19.444534
v 1.938187 5.130058 -9.035509
v 1.938187 -0.033572 -7.966628
v 1.469479 2.290998 -23.700125
v 1.520190 4.891604 -24.169086
v 2.343041 5.831583 -18.411377
v 5.548850 3.454398 -18.411484
v 2.343040 3.453658 -18.411377
v 5.548850 3.464980 -13.793818
v 2.343041 5.831586 -13.793818
v 2.343041 3.453662 -13.793819
v 2.343041 5.831586 -13.793818
v 5.548850 3.464980 -13.793818
v 5.548850 3.454398 -18.411484
v 2.343041 5.831583 -18.411377
v -9.115177 -0.745740 -18.477180
v 9.115175 -0.745740 -18.477177
v 7.807851 -0.745739 -5.776496
v -7.807852 -0.745739 -5.776498
v -9.115177 3.557695 -18.477180
v -7.807852 3.557696 -5.776498
v 7.807851 3.557696 -5.776496
v 9.115175 3.557695 -18.477177
v -7.807852 3.557696 -5.776498
v -7.807852 -0.745739 -5.776498
v 7.807851 -0.745739 -5.776496
v 7.807851 3.557696 -5.776496
v 9.115175 3.557695 -18.477177
v 9.115175 -0.745740 -18.477177
v -9.115177 -0.745740 -18.477180
v -9.115177 3.557695 -18.477180
v 1.936497 4.931607 20.620243
v -1.936498 4.931608 20.620243
v -1.033044 2.548060 24.846664
v 1.033043 2.548060 24.846664
v -1.033044 2.548060 24.846664
v -1.459770 0.014387 23.429239
v 1.459769 0.014387 23.429239
v 1.033043 2.548060 24.846664
v 1.520190 4.891604 -24.169086
v 1.469479 2.290998 -23.700125
v -1.469480 2.290998 -23.700125
v -1.520191 4.891604 -24.169086
v -1.643678 -4.835801 -16.772678
v 1.643677 -4.835801 -16.772678
v 0.960073 -5.674108 -11.051392
v -0.960074 -5.674108 -11.051392
v -1.465998 2.351284 -23.733976
v 1.465997 2.351284 -23.733974
v 1.643677 -4.835801 -16.772678
v -1.643678 -4.835801 -16.772678
v -0.960074 -5.674108 -11.051392
v 0.960073 -5.674108 -11.051392
v 0.987731 0.100761 -4.848739
v -0.987733 0.100761 -4.848738
v -1.459770 0.014387 23.429239
v -1.938189 -0.033572 -7.966628
v 1.938187 -0.033572 -7.966628
v 1.459769 0.014387 23.429239
v 1.938187 5.130058 -9.035509
v -1.938189 5.130058 -9.035511
v -1.469480 2.290998 -23.700125
v 1.469479 2.290998 -23.700125
v 2.539536 5.917408 -19.444534
v -2.539537 5.917408 -19.444536
v 1.520190 4.891604 -24.169086
v -1.520191 4.891604 -24.169086
vn -0.994744 0.000000 0.102392
vn -0.994744 0.000000 0.102392
vn -0.994744 0.000000 0.102392
vn -0.994744 0.000000 0.102392
vn -0.972911 0.036117 0.228342
vn -0.996458 -0.069889 0.046771
vn -0.992992 -0.023160 0.115894
vn -0.997216 0.038272 0.063998
vn -0.977122 0.159938 0.140185
vn -0.998985 0.007260 0.044445
vn -0.999358 -0.028342 0.021931
vn -0.999213 0.003645 0.039491
vn -0.999628 -0.019075 0.019503
vn -0.985240 -0.157099 -0.067985
vn -0.982140 -0.128271 -0.137650
vn -0.999628 -0.019075 0.019503
vn -0.999213 0.003645 0.039491
vn -0.978423 -0.054993 -0.199160
vn 0.000034 -0.000000 -1.000000
vn 0.000034 -0.000000 -1.000000
vn 0.000034 -0.000000 -1.000000
vn -0.000000 0.000000 1.000000
vn -0.000000 0.000000 1.000000
vn -0.000000 0.000000 1.000000
vn -0.594697 0.803949 -0.001008
vn -0.595634 0.803256 -0.000001
vn -0.594697 0.803949 -0.001008
vn -0.593919 0.804523 -0.001844
vn 0.994744 0.000000 0.102392
vn 0.994744 0.000000 0.102392
vn 0.994744 0.000000 0.102392
vn 0.994744 0.000000 0.102392
vn 0.996458 -0.069889 0.046771
vn 0.972911 0.036117 0.228342
vn 0.992992 -0.023160 0.115894
vn 0.997216 0.038272 0.063998
vn 0.999358 -0.028342 0.021931
vn 0.998985 0.007260 0.044445
vn 0.977122 0.159938 0.140185
vn 0.999213 0.003645 0.039491
vn 0.999628 -0.019075 0.019503
vn 0.985240 -0.157099 -0.067985
vn 0.999213 0.003645 0.039491
vn 0.999628 -0.019075 0.019503
vn 0.982140 -0.128271 -0.137650
vn 0.978423 -0.054993 -0.199160
vn 0.000034 -0.000000 -1.000000
vn 0.000034 -0.000000 -1.000000
vn 0.000034 -0.000000 -1.000000
vn -0.000000 0.000000 1.000000
vn -0.000000 0.000000 1.000000
vn -0.000000 0.000000 1.000000
vn 0.594697 0.803949 -0.001007
vn 0.593919 0.804523 -0.001844
vn 0.594697 0.803949 -0.001007
vn 0.595634 0.803256 -0.000001
vn -0.000000 -1.000000 0.000000
vn -0.000000 -1.000000 0.000000
vn -0.000000 -1.000000 0.000000
vn -0.000000 -1.000000 0.000000
vn 0.000000 1.000000 -0.000000
vn 0.000000 1.000000 -0.000000
vn 0.000000 1.000000 -0.000000
vn 0.000000 1.000000 -0.000000
vn -0.000000 0.000000 1.000000
vn -0.000000 0.000000 1.000000
vn -0.000000 0.000000 1.000000
vn -0.000000 0.000000 1.000000
vn 0.000034 -0.000000 -1.000000
vn 0.000034 -0.000000 -1.000000
vn 0.000034 -0.000000 -1.000000
vn 0.000034 -0.000000 -1.000000
vn 0.000000 0.970386 0.241560
vn 0.000000 0.970386 0.241560
vn 0.000000 0.871030 0.491229
vn 0.000000 0.871030 0.491229
vn -0.000000 -0.488228 0.872716
vn -0.000000 -0.488228 0.872716
vn -0.000000 -0.488228 0.872716
vn -0.000000 -0.488228 0.872716
vn 0.000000 -0.177466 -0.984127
vn 0.000000 -0.177466 -0.984127
vn 0.000000 -0.177466 -0.984127
vn 0.000000 -0.177466 -0.984127
vn 0.000000 -0.989435 -0.144976
vn 0.000000 -0.989435 -0.144976
vn 0.000000 -0.989435 -0.144976
vn 0.000000 -0.989435 -0.144976
vn 0.000000 -0.695734 -0.718300
vn 0.000000 -0.695734 -0.718300
vn 0.000000 -0.695734 -0.718300
vn 0.000000 -0.695734 -0.718300
vn 0.000000 -0.731895 0.681418
vn 0.000000 -0.731895 0.681418
vn 0.000000 -0.731895 0.681418
vn 0.000000 -0.731895 0.681418
vn -0.000000 -0.999999 0.001528
vn 0.000000 -0.997392 -0.072175
vn 0.000000 -0.997392 -0.072175
vn -0.000000 -0.999999 0.001528
vn -0.000000 0.999130 0.041702
vn -0.000000 0.999130 0.041702
vn 0.000000 -0.989261 -0.146160
vn 0.000000 -0.989261 -0.146160
vn 0.000000 0.998107 -0.061505
vn 0.000000 0.998107 -0.061505
vn 0.000000 0.977231 -0.212178
vn 0.000000 0.977231 -0.212178
vt 0.990597 0.415073
vt 0.897887 0.415073
vt 0.897886 0.662458
vt 0.990596 0.662458
vt 0.003351 0.096661
vt 0.126915 0.168196
vt 0.052513 0.021736
vt 0.760702 0.803985
vt 0.623313 0.668087
vt 0.510146 0.667910
vt 0.392956 0.809339
vt 0.994357 0.171065
vt 0.952169 0.019642
vt 0.717296 0.554174
vt 0.843224 0.425330
vt 0.390302 0.416131
vt 0.429284 0.567692
vt 0.854324 0.500640
vt 0.450980 0.709081
vt 0.377717 0.660677
vt 0.377651 0.709995
vt 0.459324 0.662380
vt 0.385933 0.711145
vt 0.459325 0.711317
vt 0.375875 0.724102
vt 0.457137 0.724102
vt 0.456872 0.654062
vt 0.375875 0.654062
vt 0.990597 0.415073
vt 0.990596 0.662458
vt 0.897886 0.662458
vt 0.897887 0.415073
vt 0.127088 0.167564
vt 0.003351 0.096661
vt 0.053130 0.020300
vt 0.760702 0.803985
vt 0.392956 0.809339
vt 0.510146 0.667910
vt 0.623313 0.668087
vt 0.994357 0.171065
vt 0.952169 0.019642
vt 0.716098 0.554281
vt 0.430009 0.568009
vt 0.390302 0.416131
vt 0.842879 0.424448
vt 0.852519 0.500539
vt 0.382558 0.660690
vt 0.455400 0.709109
vt 0.382557 0.709640
vt 0.382005 0.710840
vt 0.455836 0.662061
vt 0.455279 0.711688
vt 0.375875 0.721647
vt 0.375875 0.651607
vt 0.456872 0.651607
vt 0.457136 0.721647
vt 0.042730 0.648049
vt 0.381990 0.648046
vt 0.355499 0.401791
vt 0.066391 0.401799
vt 0.028728 0.667329
vt 0.052388 0.913579
vt 0.341497 0.913582
vt 0.367987 0.667338
vt 0.556481 0.568908
vt 0.556481 0.661617
vt 0.845590 0.661617
vt 0.845590 0.568908
vt 0.421438 0.832967
vt 0.421438 0.986354
vt 0.982741 0.986354
vt 0.982741 0.832967
vt 0.125404 0.283105
vt 0.125403 0.205376
vt 0.028653 0.214692
vt 0.028646 0.273550
vt 0.858038 0.751928
vt 0.854256 0.812697
vt 0.921191 0.812864
vt 0.916902 0.751896
vt 0.401518 0.579547
vt 0.402511 0.635570
vt 0.459812 0.635560
vt 0.460786 0.579531
vt 0.055870 0.927201
vt 0.055865 0.991256
vt 0.168257 0.978009
vt 0.168249 0.940461
vt 0.978199 0.743742
vt 0.978203 0.686576
vt 0.784988 0.683122
vt 0.784985 0.747177
vt 0.168249 0.940461
vt 0.168257 0.978009
vt 0.355277 0.978530
vt 0.355274 0.939909
vt 0.976585 0.309616
vt 0.367816 0.306309
vt 0.367821 0.381728
vt 0.976586 0.381956
vt 0.700528 0.280314
vt 0.700528 0.204894
vt 0.039519 0.316997
vt 0.039517 0.374297
vt 0.903182 0.293636
vt 0.903184 0.194842
vt 1.006919 0.273875
vt 1.006911 0.214610
g part_0_s36_desc
f 1/1/1 2/2/2 3/3/3
f 3/3/3 4/4/4 1/1/1
f 5/5/5 6/6/6 7/7/7
f 8/8/8 9/9/9 10/10/10
f 10/10/10 11/11/11 8/8/8
f 12/12/12 13/13/13 7/7/7
f 7/7/7 6/6/6 12/12/12
f 14/14/14 15/15/15 16/16/16
f 16/16/16 17/17/17 14/14/14
f 14/14/14 18/18/18 15/15/15
f 19/19/19 20/20/20 21/21/21
f 22/22/22 23/23/23 24/24/24
f 25/25/25 26/26/26 27/27/27
f 27/27/27 28/28/28 25/25/25
f 29/29/29 30/30/30 31/31/31
f 31/31/31 32/32/32 29/29/29
f 33/33/33 34/34/34 35/35/35
f 36/36/36 37/37/37 38/38/38
f 38/38/38 39/39/39 36/36/36
f 40/40/40 33/33/33 35/35/35
f 35/35/35 41/41/41 40/40/40
f 42/42/42 43/43/43 44/44/44
f 44/44/44 45/45/45 42/42/42
f 46/46/46 42/42/42 45/45/45
f 47/47/47 48/48/48 49/49/49
f 50/50/50 51/51/51 52/52/52
f 53/53/53 54/54/54 55/55/55
f 55/55/55 56/56/56 53/53/53
f 57/57/57 58/58/58 59/59/59
f 59/59/59 60/60/60 57/57/57
f 61/61/61 62/62/62 63/63/63
f 63/63/63 64/64/64 61/61/61
f 65/65/65 66/66/66 67/67/67
f 67/67/67 68/68/68 65/65/65
f 69/69/69 70/70/70 71/71/71
f 71/71/71 72/72/72 69/69/69
f 73/73/73 74/74/74 75/75/75
f 75/75/75 76/76/76 73/73/73
f 77/77/77 78/78/78 79/79/79
f 79/79/79 80/80/80 77/77/77
f 81/81/81 82/82/82 83/83/83
f 83/83/83 84/84/84 81/81/81
f 85/85/85 86/86/86 87/87/87
f 87/87/87 88/88/88 85/85/85
f 89/89/89 90/90/90 91/91/91
f 91/91/91 92/92/92 89/89/89
f 93/93/93 94/94/94 95/95/95
f 95/95/95 96/96/96 93/93/93
f 97/97/97 98/98/98 99/99/99
f 99/99/99 100/100/100 97/97/97
f 73/73/73 101/101/101 102/102/102
f 102/102/102 74/74/74 73/73/73
f 98/98/98 103/103/103 104/104/104
f 104/104/104 99/99/99 98/98/98
f 101/101/101 105/105/105 106/106/106
f 106/106/106 102/102/102 101/101/101
f 105/105/105 107/107/107 108/108/108
f 108/108/108 106/106/106 105/105/105
