# f_krishna_l_exact
# Parts: 1
v 0.394603 0.810772 -2.716597
v 0.394603 -0.928836 -2.706092
v -0.399090 -0.928836 -2.706092
v -0.399090 0.810772 -2.716597
v -0.415147 -0.608715 -5.797831
v 0.410661 -0.608715 -5.797831
v 0.375056 -0.608715 -2.717881
v -0.379543 -0.608715 -2.717881
v -0.415147 0.453263 -5.797831
v -0.379543 0.453263 -2.717881
v 0.375056 0.453263 -2.717881
v 0.410661 0.453263 -5.797831
v -0.413581 -0.712088 3.446706
v -0.413581 -1.054036 2.935395
v 0.409092 -1.054036 2.935395
v 0.409092 -0.712088 3.446705
v -0.279065 1.097775 5.787506
v -0.279065 -0.712088 5.798011
v 0.274575 -0.712088 5.798011
v 0.274575 1.097775 5.787506
v -0.422970 -0.908757 -0.420675
v -0.399090 -0.906956 -2.706092
v 0.394603 -0.906956 -2.706092
v 0.418483 -0.908757 -0.420675
v -0.422970 -1.051710 -0.097427
v 0.418483 -1.051710 -0.097428
v 0.274575 -0.712088 5.798011
v -0.279065 -0.712088 5.798011
v 0.418483 0.827204 -0.431180
v 0.394603 0.810772 -2.716597
v -0.399090 0.810772 -2.716597
v -0.422970 0.827204 -0.431180
v 0.418483 1.213581 0.097876
v -0.422970 1.213581 0.097876
v -0.413581 1.097775 3.437179
v -0.279065 1.097775 5.787506
v 0.274575 1.097775 5.787506
v 0.409092 1.097775 3.437179
v -0.415147 0.453263 -5.797831
v -0.415147 -0.608715 -5.797831
v -0.379543 -0.608715 -2.717881
v -0.379543 0.453263 -2.717881
v -0.413581 1.097775 3.437179
v -0.413581 -1.054036 2.935395
v -0.413581 -0.712088 3.446706
v -0.422970 0.827204 -0.431180
v -0.399090 0.810772 -2.716597
v -0.399090 -0.906956 -2.706092
v -0.422970 -0.908757 -0.420675
v -0.422970 1.213581 0.097876
v -0.422970 -1.051710 -0.097427
v -0.279065 -0.712088 5.798011
v -0.279065 1.097775 5.787506
v 0.410661 0.453263 -5.797831
v 0.375056 0.453263 -2.717881
v 0.375056 -0.608715 -2.717881
v 0.410661 -0.608715 -5.797831
v 0.409092 -1.054036 2.935395
v 0.409092 1.097775 3.437179
v 0.409092 -0.712088 3.446705
v 0.418483 0.827204 -0.431180
v 0.418483 -0.908757 -0.420675
v 0.394603 -0.906956 -2.706092
v 0.394603 0.810772 -2.716597
v 0.418483 1.213581 0.097876
v 0.418483 -1.051710 -0.097428
v 0.274575 1.097775 5.787506
v 0.274575 -0.712088 5.798011
vn -0.000000 -0.006039 -0.999982
vn -0.000000 -0.006039 -0.999982
vn -0.000000 -0.006039 -0.999982
vn -0.000000 -0.006039 -0.999982
vn 0.000000 -1.000000 0.000000
vn 0.000000 -1.000000 0.000000
vn 0.000000 -1.000000 0.000000
vn 0.000000 -1.000000 0.000000
vn 0.000000 1.000000 0.000000
vn 0.000000 1.000000 0.000000
vn 0.000000 1.000000 0.000000
vn 0.000000 1.000000 0.000000
vn 0.000000 -0.955232 0.295856
vn 0.000000 -0.957079 0.289826
vn 0.000000 -0.957079 0.289826
vn 0.000000 -0.955232 0.295856
vn 0.000000 0.005804 0.999983
vn 0.000000 0.005804 0.999983
vn 0.000000 0.005804 0.999983
vn 0.000000 0.005804 0.999983
vn -0.000000 -0.978179 -0.207765
vn -0.000000 -1.000000 -0.000788
vn -0.000000 -1.000000 -0.000788
vn -0.000000 -0.978179 -0.207765
vn -0.000000 -0.978179 -0.207765
vn -0.000000 -0.978179 -0.207765
vn 0.000000 -1.000000 0.000000
vn 0.000000 -1.000000 0.000000
vn 0.000000 0.949216 -0.314625
vn 0.000000 0.999974 -0.007189
vn 0.000000 0.999974 -0.007189
vn 0.000000 0.949216 -0.314625
vn 0.000000 0.955818 -0.293960
vn 0.000000 0.955818 -0.293960
vn -0.000000 0.999844 0.017669
vn 0.000000 1.000000 0.000000
vn 0.000000 1.000000 0.000000
vn -0.000000 0.999844 0.017669
vn -0.999933 0.000000 0.011559
vn -0.999933 0.000000 0.011559
vn -0.999933 0.000000 0.011559
vn -0.999933 0.000000 0.011559
vn -0.999568 -0.000134 0.029383
vn -0.999998 -0.000357 0.002048
vn -0.999709 0.000133 0.024142
vn -0.999990 -0.000026 -0.004356
vn -0.999945 -0.000064 -0.010448
vn -0.999945 -0.000064 -0.010448
vn -0.999990 -0.000026 -0.004356
vn -0.999998 -0.000357 0.002048
vn -0.999998 -0.000357 0.002048
vn -0.998367 0.000332 0.057116
vn -0.998367 0.000332 0.057116
vn 0.999933 0.000000 0.011559
vn 0.999933 0.000000 0.011559
vn 0.999933 0.000000 0.011559
vn 0.999933 0.000000 0.011559
vn 0.999998 -0.000357 0.002048
vn 0.999568 -0.000134 0.029383
vn 0.999708 0.000133 0.024142
vn 0.999990 -0.000026 -0.004356
vn 0.999990 -0.000026 -0.004356
vn 0.999945 -0.000064 -0.010448
vn 0.999945 -0.000064 -0.010448
vn 0.999998 -0.000357 0.002048
vn 0.999998 -0.000357 0.002048
vn 0.998367 0.000319 0.057126
vn 0.998367 0.000319 0.057126
vt 0.195993 0.867100
vt 0.086935 0.867100
vt 0.086935 0.965641
vt 0.195993 0.965641
vt 0.315114 0.724617
vt 0.315114 0.818277
vt 0.666341 0.818277
vt 0.666341 0.724617
vt 0.955262 0.592077
vt 0.604036 0.592077
vt 0.604036 0.685737
vt 0.955262 0.685737
vt 0.723820 0.302983
vt 0.655418 0.302983
vt 0.655418 0.406440
vt 0.723820 0.406440
vt 0.972298 0.857768
vt 0.549193 0.857768
vt 0.549193 0.986146
vt 0.972298 0.986146
vt 0.273153 0.302459
vt 0.013196 0.305441
vt 0.013196 0.403982
vt 0.273153 0.406964
vt 0.311719 0.302459
vt 0.311719 0.406964
vt 0.991288 0.386023
vt 0.991288 0.323400
vt 0.726302 0.555740
vt 0.986574 0.552758
vt 0.986574 0.454216
vt 0.726302 0.451235
vt 0.652450 0.555740
vt 0.652450 0.451235
vt 0.272276 0.451758
vt 0.004608 0.472176
vt 0.004608 0.534799
vt 0.272276 0.555216
vt 0.031551 0.579026
vt 0.031551 0.700130
vt 0.382778 0.700130
vt 0.382778 0.579026
vt 0.712401 0.015540
vt 0.655435 0.260921
vt 0.713150 0.221935
vt 0.273561 0.046365
vt 0.013322 0.048056
vt 0.014520 0.244117
vt 0.274759 0.244328
vt 0.332881 0.002317
vt 0.310610 0.260643
vt 0.981883 0.221937
vt 0.980688 0.015546
vt 0.031551 0.579026
vt 0.382778 0.579026
vt 0.382778 0.700130
vt 0.031551 0.700130
vt 0.655435 0.260921
vt 0.712401 0.015540
vt 0.713150 0.221935
vt 0.273561 0.046365
vt 0.274759 0.244328
vt 0.014520 0.244117
vt 0.013322 0.048056
vt 0.332881 0.002317
vt 0.310610 0.260643
vt 0.980688 0.015546
vt 0.981883 0.221937
g part_0_s36_desc
f 1/1/1 2/2/2 3/3/3
f 3/3/3 4/4/4 1/1/1
f 5/5/5 6/6/6 7/7/7
f 7/7/7 8/8/8 5/5/5
f 9/9/9 10/10/10 11/11/11
f 11/11/11 12/12/12 9/9/9
f 13/13/13 14/14/14 15/15/15
f 15/15/15 16/16/16 13/13/13
f 17/17/17 18/18/18 19/19/19
f 19/19/19 20/20/20 17/17/17
f 21/21/21 22/22/22 23/23/23
f 23/23/23 24/24/24 21/21/21
f 25/25/25 21/21/21 24/24/24
f 24/24/24 26/26/26 25/25/25
f 16/16/16 27/27/27 28/28/28
f 28/28/28 13/13/13 16/16/16
f 29/29/29 30/30/30 31/31/31
f 31/31/31 32/32/32 29/29/29
f 33/33/33 29/29/29 32/32/32
f 32/32/32 34/34/34 33/33/33
f 35/35/35 36/36/36 37/37/37
f 37/37/37 38/38/38 35/35/35
f 14/14/14 25/25/25 26/26/26
f 26/26/26 15/15/15 14/14/14
f 38/38/38 33/33/33 34/34/34
f 34/34/34 35/35/35 38/38/38
f 39/39/39 40/40/40 41/41/41
f 41/41/41 42/42/42 39/39/39
f 43/43/43 44/44/44 45/45/45
f 46/46/46 47/47/47 48/48/48
f 48/48/48 49/49/49 46/46/46
f 50/50/50 46/46/46 49/49/49
f 49/49/49 51/51/51 50/50/50
f 45/45/45 52/52/52 53/53/53
f 53/53/53 43/43/43 45/45/45
f 50/50/50 51/51/51 44/44/44
f 44/44/44 43/43/43 50/50/50
f 54/54/54 55/55/55 56/56/56
f 56/56/56 57/57/57 54/54/54
f 58/58/58 59/59/59 60/60/60
f 61/61/61 62/62/62 63/63/63
f 63/63/63 64/64/64 61/61/61
f 65/65/65 66/66/66 62/62/62
f 62/62/62 61/61/61 65/65/65
f 60/60/60 59/59/59 67/67/67
f 67/67/67 68/68/68 60/60/60
f 65/65/65 59/59/59 58/58/58
f 58/58/58 66/66/66 65/65/65
